<svg width="95" height="104" viewBox="0 0 95 104" fill="none" xmlns="http://www.w3.org/2000/svg">
<path d="M9.61201 40.0823C11.3323 40.7568 12.2758 41.0246 14.0427 40.9753C17.6252 40.8754 21.5486 39.8414 23.9226 37.4217C26.3135 34.9847 27.4587 31.098 27.488 27.5524C27.5167 24.0865 26.3123 21.1569 23.9141 18.6304C21.4806 16.0666 18.3958 14.2933 14.9749 14.1413C13.1854 14.0618 11.303 14.4039 9.60058 15.0391C7.88362 15.6798 6.41975 16.4908 5.1295 17.7141C3.73811 19.0333 2.21199 20.6037 1.52169 22.1911C0.824711 23.7938 0.654291 25.6859 0.638767 27.5647C0.623499 29.4124 0.849092 31.3065 1.52648 32.9373C2.25584 34.6932 2.95292 36.1953 4.19392 37.4114C4.77601 37.9819 5.65 38.4728 6.65391 38.9179C7.3428 39.2234 8.04085 39.4862 8.70901 39.7378C9.01767 39.854 9.31996 39.9678 9.61201 40.0823Z" fill="#5BA763" stroke="white" stroke-width="1.48239"/>
<mask id="path-2-inside-1" fill="white">
<path d="M59.3912 76.6752C59.366 77.9638 58.9669 79.2734 58.4468 80.4529C57.9267 81.6325 57.4927 82.3978 56.558 83.2863C55.6233 84.1747 53.9856 84.7149 52.7805 85.1752C51.5754 85.6354 50.2925 86.1585 49.0029 86.1196C46.4082 86.0249 44.2081 85.1403 42.3922 83.2863C40.5763 81.4322 39.5973 78.3244 39.5591 75.7307C39.6851 73.0568 40.4455 70.959 42.3922 69.1196C44.339 67.2802 47.2679 66.2631 49.9473 66.2863C52.539 66.4519 54.8073 67.2033 56.558 69.1196C58.3088 71.0359 59.4622 74.0817 59.3912 76.6752Z"/>
</mask>
<path d="M59.3912 76.6752C59.366 77.9638 58.9669 79.2734 58.4468 80.4529C57.9267 81.6325 57.4927 82.3978 56.558 83.2863C55.6233 84.1747 53.9856 84.7149 52.7805 85.1752C51.5754 85.6354 50.2925 86.1585 49.0029 86.1196C46.4082 86.0249 44.2081 85.1403 42.3922 83.2863C40.5763 81.4322 39.5973 78.3244 39.5591 75.7307C39.6851 73.0568 40.4455 70.959 42.3922 69.1196C44.339 67.2802 47.2679 66.2631 49.9473 66.2863C52.539 66.4519 54.8073 67.2033 56.558 69.1196C58.3088 71.0359 59.4622 74.0817 59.3912 76.6752Z" fill="#4D9DE0"/>
<path d="M49.0029 86.1196L48.9582 87.6013L48.9489 87.601L49.0029 86.1196ZM39.5591 75.7307L38.0768 75.7526L38.0762 75.7067L38.0783 75.6609L39.5591 75.7307ZM49.9473 66.2863L49.9601 64.8039L50.001 64.8043L50.0418 64.8069L49.9473 66.2863ZM60.8733 76.7042C60.8428 78.2628 60.3659 79.7748 59.8032 81.051L57.0904 79.8549C57.5679 78.772 57.8891 77.6649 57.9091 76.6462L60.8733 76.7042ZM59.8032 81.051C59.2396 82.3292 58.7085 83.2874 57.5793 84.3607L55.5367 82.2118C56.2769 81.5082 56.6138 80.9358 57.0904 79.8549L59.8032 81.051ZM57.5793 84.3607C56.9292 84.9786 56.1041 85.4178 55.3773 85.7438C54.6492 86.0704 53.8623 86.3488 53.3094 86.56L52.2516 83.7903C52.9037 83.5413 53.5383 83.3194 54.164 83.0387C54.791 82.7575 55.2521 82.4824 55.5367 82.2118L57.5793 84.3607ZM53.3094 86.56C52.1993 86.984 50.6082 87.6511 48.9582 87.6013L49.0476 84.6379C49.9769 84.6659 50.9514 84.2869 52.2516 83.7903L53.3094 86.56ZM48.9489 87.601C46.0111 87.4938 43.4394 86.4739 41.3332 84.3235L43.4513 82.249C44.9769 83.8067 46.8052 84.556 49.057 84.6382L48.9489 87.601ZM41.3332 84.3235C39.1794 82.1245 38.119 78.6098 38.0768 75.7526L41.0413 75.7088C41.0757 78.039 41.9732 80.7399 43.4513 82.249L41.3332 84.3235ZM38.0783 75.6609C38.2183 72.6911 39.091 70.1993 41.3741 68.0421L43.4103 70.1971C41.7999 71.7187 41.1519 73.4225 41.0398 75.8005L38.0783 75.6609ZM41.3741 68.0421C43.6328 65.908 46.9464 64.7779 49.9601 64.8039L49.9345 67.7686C47.5894 67.7484 45.0451 68.6524 43.4103 70.1971L41.3741 68.0421ZM50.0418 64.8069C52.8709 64.9877 55.559 65.8284 57.6524 68.1197L55.4636 70.1195C54.0555 68.5782 52.2072 67.9161 49.8528 67.7656L50.0418 64.8069ZM57.6524 68.1197C59.6576 70.3145 60.9547 73.7315 60.873 76.7157L57.9094 76.6346C57.9696 74.4318 56.96 71.7573 55.4636 70.1195L57.6524 68.1197Z" fill="white" mask="url(#path-2-inside-1)"/>
<mask id="path-4-inside-2" fill="white">
<path d="M59.3946 35.119C57.2768 35.084 55.2127 33.715 53.7282 32.2857C52.2438 30.8564 51.8391 29.5672 51.8395 27.5635C51.9467 25.5946 53.1729 23.2658 54.6726 21.8968C56.1723 20.5278 58.2551 20.0392 60.3389 20.0079C62.4734 20.0959 64.5211 21.3875 66.0053 22.8413C67.4895 24.2951 67.8754 25.5424 67.894 27.5635C67.8004 29.53 66.5657 31.8706 65.0609 33.2302C63.556 34.5897 61.4754 35.121 59.3946 35.119Z"/>
</mask>
<path d="M59.3946 35.119C57.2768 35.084 55.2127 33.715 53.7282 32.2857C52.2438 30.8564 51.8391 29.5672 51.8395 27.5635C51.9467 25.5946 53.1729 23.2658 54.6726 21.8968C56.1723 20.5278 58.2551 20.0392 60.3389 20.0079C62.4734 20.0959 64.5211 21.3875 66.0053 22.8413C67.4895 24.2951 67.8754 25.5424 67.894 27.5635C67.8004 29.53 66.5657 31.8706 65.0609 33.2302C63.556 34.5897 61.4754 35.121 59.3946 35.119Z" fill="#B99862"/>
<path d="M51.8395 27.5635L50.3571 27.5632L50.3571 27.523L50.3593 27.4828L51.8395 27.5635ZM60.3389 20.0079L60.3167 18.5257L60.3584 18.5251L60.4 18.5268L60.3389 20.0079ZM67.894 27.5635L69.3764 27.5498L69.3768 27.5919L69.3748 27.634L67.894 27.5635ZM59.37 36.6012C56.6823 36.5567 54.2701 34.8653 52.7001 33.3536L54.7564 31.2179C56.1552 32.5647 57.8713 33.6112 59.4191 33.6369L59.37 36.6012ZM52.7001 33.3536C51.8396 32.5251 51.2237 31.6689 50.842 30.6684C50.4658 29.6821 50.3569 28.6582 50.3571 27.5632L53.3218 27.5637C53.3217 28.4725 53.415 29.095 53.6121 29.6116C53.8037 30.114 54.1324 30.617 54.7564 31.2179L52.7001 33.3536ZM50.3593 27.4828C50.4907 25.07 51.9307 22.3927 53.6732 20.802L55.6721 22.9916C54.4152 24.139 53.4027 26.1192 53.3197 27.6441L50.3593 27.4828ZM53.6732 20.802C55.5516 19.0872 58.0569 18.5597 60.3167 18.5257L60.3612 21.4902C58.4534 21.5188 56.793 21.9684 55.6721 22.9916L53.6732 20.802ZM60.4 18.5268C63.0572 18.6364 65.4352 20.2078 67.0426 21.7823L64.968 23.9003C63.607 22.5671 61.8896 21.5555 60.2779 21.4891L60.4 18.5268ZM67.0426 21.7823C67.8959 22.6181 68.5055 23.4672 68.8845 24.4618C69.2576 25.441 69.3663 26.4562 69.3764 27.5498L66.4117 27.5772C66.4032 26.6497 66.3096 26.0307 66.114 25.5175C65.9243 25.0197 65.5989 24.5183 64.968 23.9003L67.0426 21.7823ZM69.3748 27.634C69.2596 30.053 67.8061 32.7478 66.0546 34.3301L64.0671 32.1302C65.3254 30.9935 66.3412 29.0069 66.4133 27.493L69.3748 27.634ZM66.0546 34.3301C64.1847 36.0195 61.6948 36.6036 59.3931 36.6014L59.396 33.6367C61.256 33.6384 62.9274 33.1599 64.0671 32.1302L66.0546 34.3301Z" fill="white" mask="url(#path-4-inside-2)"/>
<mask id="path-6-inside-3" fill="white">
<path d="M87.4449 51.0026C89.5347 51.0371 90.687 51.4866 92.1668 52.8915C93.6467 54.2965 94.9585 56.5691 95 58.5582C94.9844 59.576 94.4825 60.4582 94.0556 61.3915C93.6288 62.3249 92.9389 63.5204 92.1668 64.2249C91.3948 64.9293 91.2758 64.8028 90.2781 65.1693C89.2803 65.5358 87.5696 66.1418 86.5005 66.1137C84.3959 66.0679 82.2883 65.6738 80.8342 64.2249C79.3801 62.7759 78.8972 60.5614 78.9454 58.5582C78.9936 56.555 80.2563 54.2756 81.7786 52.8915C83.3008 51.5075 85.3403 50.9568 87.4449 51.0026Z"/>
</mask>
<path d="M87.4449 51.0026C89.5347 51.0371 90.687 51.4866 92.1668 52.8915C93.6467 54.2965 94.9585 56.5691 95 58.5582C94.9844 59.576 94.4825 60.4582 94.0556 61.3915C93.6288 62.3249 92.9389 63.5204 92.1668 64.2249C91.3948 64.9293 91.2758 64.8028 90.2781 65.1693C89.2803 65.5358 87.5696 66.1418 86.5005 66.1137C84.3959 66.0679 82.2883 65.6738 80.8342 64.2249C79.3801 62.7759 78.8972 60.5614 78.9454 58.5582C78.9936 56.555 80.2563 54.2756 81.7786 52.8915C83.3008 51.5075 85.3403 50.9568 87.4449 51.0026Z" fill="#29B26B"/>
<path d="M95 58.5582L96.4821 58.5273L96.4826 58.5541L96.4822 58.581L95 58.5582ZM86.5005 66.1137L86.5328 64.6317L86.5395 64.6319L86.5005 66.1137ZM87.4693 49.5204C88.6122 49.5393 89.6199 49.6725 90.5829 50.0559C91.5504 50.441 92.3649 51.0355 93.1875 51.8165L91.1462 53.9666C90.489 53.3426 89.9873 53.0098 89.4864 52.8104C88.9808 52.6091 88.3674 52.5004 87.4205 52.4848L87.4693 49.5204ZM93.1875 51.8165C94.8455 53.3906 96.4296 56.0142 96.4821 58.5273L93.5179 58.5891C93.4874 57.1241 92.4478 55.2024 91.1462 53.9666L93.1875 51.8165ZM96.4822 58.581C96.4605 59.997 95.7467 61.258 95.4037 62.0081L92.7075 60.775C93.2182 59.6583 93.5083 59.155 93.5178 58.5354L96.4822 58.581ZM95.4037 62.0081C94.9524 62.9949 94.1623 64.4108 93.166 65.3199L91.1677 63.1298C91.7155 62.63 92.3051 61.6548 92.7075 60.775L95.4037 62.0081ZM93.166 65.3199C92.7142 65.7322 92.3431 66.0024 91.8664 66.1966C91.669 66.277 91.4682 66.3375 91.3244 66.3821C91.1669 66.4309 91.0018 66.4827 90.7892 66.5608L89.7669 63.7778C90.0532 63.6727 90.2772 63.6028 90.4467 63.5502C90.6299 63.4934 90.6942 63.4728 90.7478 63.451C90.773 63.4407 90.8474 63.422 91.1677 63.1298L93.166 65.3199ZM90.7892 66.5608C90.2856 66.7458 89.5634 67.0058 88.819 67.2161C88.1094 67.4165 87.2329 67.6159 86.4616 67.5956L86.5395 64.6319C86.8372 64.6397 87.3506 64.5501 88.013 64.363C88.6407 64.1856 89.2727 63.9594 89.7669 63.7778L90.7892 66.5608ZM86.4682 67.5958C84.2676 67.5478 81.6623 67.1427 79.7879 65.2749L81.8805 63.1748C82.9143 64.2049 84.5242 64.5879 86.5328 64.6317L86.4682 67.5958ZM79.7879 65.2749C77.9242 63.4179 77.4106 60.7204 77.4635 58.5225L80.4274 58.5938C80.3839 60.4023 80.836 62.134 81.8805 63.1748L79.7879 65.2749ZM77.4635 58.5225C77.5237 56.0179 79.0389 53.3789 80.7813 51.7947L82.7758 53.9883C81.4737 55.1722 80.4635 57.092 80.4274 58.5938L77.4635 58.5225ZM80.7813 51.7947C82.6605 50.0862 85.1092 49.469 87.4772 49.5206L87.4126 52.4847C85.5714 52.4445 83.9412 52.9288 82.7758 53.9883L80.7813 51.7947Z" fill="white" mask="url(#path-6-inside-3)"/>
</svg>
