<svg width="213" height="209" viewBox="0 0 213 209" fill="none" xmlns="http://www.w3.org/2000/svg">
<path d="M80.9366 191.626C82.8392 191.679 83.8866 191.377 85.6585 190.683C87.4305 189.988 89.9658 189.184 91.3249 187.852C92.6839 186.521 93.4282 184.892 94.158 183.135C94.8878 181.379 95.1181 179.376 95.1024 177.475C95.0867 175.574 94.9167 173.559 94.158 171.815C93.3993 170.071 91.7613 168.406 90.3805 167.098C88.9996 165.789 87.4417 164.933 85.6585 164.267C83.8754 163.602 81.8937 163.24 79.9922 163.324C76.3275 163.487 73.073 165.383 70.5483 168.041C68.0236 170.7 66.7405 173.811 66.7708 177.475C66.8011 181.139 67.98 185.236 70.5483 187.852C73.1166 190.469 77.2697 191.524 80.9366 191.626Z" fill="#5BA763"/>
<path d="M215.056 0.000652229C212.256 0.0122 209.824 1.26803 207.501 2.83265C205.179 4.39728 202.897 5.90603 201.835 8.49665C200.773 11.0873 200.334 14.2487 200.891 16.9927C201.447 19.7366 202.681 22.5718 204.668 24.5447C206.655 26.5175 209.474 27.7834 212.223 28.3207C214.972 28.8579 218.138 28.456 220.723 27.3767C223.307 26.2973 224.84 24.0451 226.389 21.7127C227.938 19.3803 229.23 16.9604 229.222 14.1607C229.225 12.2973 228.993 10.2174 228.278 8.49665C227.563 6.77588 226.767 5.0897 225.445 3.77665C224.122 2.46361 222.449 1.64763 220.723 0.944652C218.996 0.241677 216.92 -0.0147703 215.056 0.000652229" fill="#6C6C6D"/>
<path d="M171.819 148.221C171.792 150.159 172.049 152.09 172.764 153.885C173.479 155.68 174.253 158.181 175.597 159.549C176.941 160.917 178.559 161.657 180.319 162.381C182.079 163.105 184.088 163.36 185.985 163.325C187.882 163.29 189.918 163.169 191.651 162.381C193.385 161.593 195.078 160.021 196.373 158.605C197.669 157.188 198.555 155.705 199.207 153.885C199.858 152.065 200.247 150.156 200.151 148.221C200.059 144.434 198.095 140.471 195.429 137.837C192.763 135.203 189.694 134.028 185.985 134.061C184.117 134.052 182.043 134.271 180.319 135.005C178.594 135.738 176.907 137.421 175.597 138.781C174.287 140.141 173.453 141.728 172.764 143.501C172.074 145.274 171.78 146.313 171.819 148.221" fill="#FC5857"/>
<path d="M107.379 126.496C107.395 128.046 107.716 128.846 108.324 130.272C108.931 131.698 110.05 132.963 111.157 134.048C112.264 135.133 113.496 136.301 114.934 136.88C116.372 137.459 118.106 137.839 119.656 137.824C121.207 137.809 122.008 137.487 123.434 136.88C124.86 136.273 126.126 135.155 127.211 134.048C128.297 132.942 129.466 131.71 130.045 130.272C130.624 128.835 131.004 127.102 130.989 125.552C130.974 124.003 130.652 123.202 130.045 121.776C129.437 120.35 128.318 119.085 127.211 118C126.105 116.915 124.872 115.747 123.434 115.168C121.996 114.589 120.262 114.209 118.712 114.224C117.162 114.239 116.361 114.561 114.934 115.168C113.508 115.775 112.242 116.894 111.157 118C110.072 119.107 108.903 120.339 108.324 121.776C107.745 123.214 107.364 124.947 107.379 126.496" fill="#1D1A15"/>
<path d="M218.645 127.035C220.763 127 222.827 125.632 224.312 124.203C225.796 122.775 226.201 121.486 226.201 119.483C226.093 117.515 224.867 115.188 223.367 113.819C221.868 112.451 219.785 111.963 217.701 111.931C215.567 112.019 213.519 113.31 212.035 114.763C210.551 116.216 210.165 117.463 210.146 119.483C210.24 121.449 211.474 123.788 212.979 125.147C214.484 126.506 216.565 127.037 218.645 127.035" fill="#6C6C6D"/>
<path d="M177.264 185.032C179.381 184.997 181.446 183.629 182.93 182.2C184.414 180.771 184.819 179.483 184.819 177.48C184.711 175.512 183.485 173.184 181.986 171.816C180.486 170.448 178.403 169.959 176.319 169.928C174.185 170.016 172.137 171.307 170.653 172.76C169.169 174.213 168.783 175.46 168.764 177.48C168.858 179.446 170.092 181.785 171.597 183.144C173.102 184.503 175.183 185.034 177.264 185.032" fill="#1D1A15"/>
<path d="M35.6054 185.032C37.7232 184.997 39.7873 183.629 41.2718 182.2C42.7562 180.771 43.1609 179.483 43.1605 177.48C43.0533 175.512 41.8271 173.184 40.3274 171.816C38.8277 170.448 36.7449 169.959 34.6611 169.928C32.5266 170.016 30.4789 171.307 28.9947 172.76C27.5105 174.213 27.1246 175.46 27.106 177.48C27.1996 179.446 28.4343 181.785 29.9391 183.144C31.444 184.503 33.5246 185.034 35.6054 185.032" fill="#B99862"/>
<path d="M208.428 193.531C206.339 193.565 205.186 194.015 203.706 195.419C202.227 196.823 200.915 199.095 200.873 201.083C200.889 202.1 201.391 202.982 201.818 203.915C202.245 204.848 202.934 206.043 203.706 206.747C204.478 207.451 204.597 207.324 205.595 207.691C206.593 208.057 208.304 208.663 209.373 208.635C211.477 208.589 213.585 208.195 215.039 206.747C216.493 205.299 216.976 203.085 216.928 201.083C216.88 199.081 215.617 196.802 214.095 195.419C212.572 194.035 210.533 193.485 208.428 193.531" fill="#5BA763"/>
<path d="M134.766 196.363C132.676 196.397 131.524 196.847 130.044 198.251C128.565 199.655 127.253 201.927 127.211 203.915C127.227 204.932 127.729 205.814 128.156 206.747C128.582 207.68 129.272 208.875 130.044 209.579C130.816 210.283 130.935 210.157 131.933 210.523C132.931 210.889 134.642 211.495 135.711 211.467C137.815 211.421 139.923 211.027 141.377 209.579C142.831 208.131 143.314 205.917 143.266 203.915C143.218 201.913 141.955 199.634 140.433 198.251C138.91 196.867 136.871 196.317 134.766 196.363" fill="#4D9DE0"/>
<path d="M207.5 59.4724C205.41 59.5068 204.258 59.9561 202.778 61.3604C201.298 62.7647 199.986 65.0363 199.945 67.0244C199.96 68.0418 200.462 68.9235 200.889 69.8564C201.316 70.7893 202.006 71.9843 202.778 72.6884C203.55 73.3925 203.669 73.2661 204.667 73.6324C205.664 73.9988 207.375 74.6045 208.444 74.5764C209.486 74.5537 210.324 74.0328 211.277 73.6324C212.231 73.232 213.39 73.4055 214.11 72.6884C214.83 71.9713 214.678 70.7811 215.055 69.8564C215.432 68.9318 216.023 68.0158 215.999 67.0244C215.975 66.033 215.476 65.0997 215.055 64.1924C214.634 63.2852 213.92 62.0454 213.166 61.3604C212.412 60.6754 212.249 60.7748 211.277 60.4164C210.305 60.058 208.542 59.4497 207.5 59.4724" fill="#5DA1DA"/>
<path d="M167.83 67.0267C165.741 67.0611 164.588 67.5104 163.109 68.9147C161.629 70.319 160.317 72.5906 160.275 74.5787C160.291 75.5961 160.793 76.4778 161.22 77.4107C161.647 78.3436 162.337 79.5386 163.109 80.2427C163.881 80.9468 164 80.8203 164.997 81.1867C165.995 81.553 167.706 82.1588 168.775 82.1307C170.879 82.0848 172.987 81.6909 174.441 80.2427C175.895 78.7944 176.378 76.5809 176.33 74.5787C176.282 72.5764 175.019 70.2981 173.497 68.9147C171.975 67.5313 169.935 66.9808 167.83 67.0267" fill="#5BA763"/>
<path d="M7.5551 200.908C5.46528 200.943 4.31299 201.392 2.83316 202.796C1.35333 204.2 0.0414898 206.472 0 208.46C0.0156346 209.478 0.517527 210.359 0.944387 211.292C1.37125 212.225 2.06113 213.42 2.83316 214.124C3.6052 214.828 3.72419 214.702 4.72194 215.068C5.71968 215.435 7.43041 216.04 8.49948 216.012C10.6041 215.966 12.7117 215.572 14.1658 214.124C15.6199 212.676 16.1028 210.462 16.0546 208.46C16.0064 206.458 14.7437 204.18 13.2214 202.796C11.6992 201.413 9.65969 200.862 7.5551 200.908" fill="#383736"/>
</svg>
