<svg width="236" height="236" viewBox="0 0 236 236" fill="none" xmlns="http://www.w3.org/2000/svg">
<path d="M122.55 51.8728V52.3379L123.014 52.3715C139.172 53.5424 153.693 60.6138 164.563 71.3891C175.339 82.2593 182.41 96.7334 183.581 112.938L183.615 113.402H184.08H219.055C221.564 113.402 223.653 115.491 223.653 118C223.653 120.497 221.576 122.503 219.055 122.503H184.08H183.615L183.581 122.967C182.41 139.126 175.338 153.694 164.563 164.516C153.693 175.292 139.218 182.364 123.012 183.629L122.55 183.665V184.127V219.102C122.55 221.611 120.461 223.7 117.953 223.7C115.456 223.7 113.45 221.623 113.45 219.102V184.127V183.665L112.989 183.629C96.8275 182.364 82.2587 175.291 71.4368 164.516C60.6625 153.742 53.5889 139.173 52.3241 122.964L52.2881 122.503H51.8256H16.8504C14.3417 122.503 12.3472 120.509 12.3472 118C12.3472 115.479 14.3538 113.402 16.8504 113.402H51.8256H52.288L52.3241 112.941C53.5888 96.781 60.6616 82.2589 71.4374 71.389C82.2117 60.615 96.7791 53.5425 112.986 52.3715L113.45 52.338V51.8728V16.8976C113.45 14.3767 115.456 12.3 117.953 12.3C120.461 12.3 122.55 14.389 122.55 16.8976V51.8728ZM123.093 60.9563L122.55 60.9095V61.4544V81.3256C122.55 83.7781 120.471 85.8288 117.953 85.8288C115.45 85.8288 113.45 83.746 113.45 81.3256V61.4544V60.9095L112.907 60.9563C99.0968 62.1468 86.7165 68.2424 77.4329 77.4784L77.4302 77.4811C68.2913 86.7153 62.0998 99.0473 60.9091 112.859L60.8622 113.402H61.4072H81.2784C83.7871 113.402 85.876 115.491 85.876 118C85.876 120.497 83.7993 122.503 81.2784 122.503H61.4072H60.8622L60.9091 123.046C62.0997 136.858 68.2909 149.237 77.4293 158.518L77.4339 158.523C86.6688 167.662 99.0955 173.853 112.907 175.044L113.45 175.091V174.546V154.674C113.45 152.166 115.444 150.171 117.953 150.171C120.474 150.171 122.55 152.178 122.55 154.674V174.546V175.091L123.093 175.044C136.906 173.853 149.238 167.662 158.472 158.523L158.474 158.521C167.711 149.283 173.806 136.855 174.997 123.046L175.043 122.503H174.498H154.627C152.163 122.503 150.124 120.506 150.124 118C150.124 115.485 152.219 113.402 154.627 113.402H174.498H175.043L174.997 112.859C173.806 99.0493 167.71 86.7158 158.474 77.4793C149.237 68.2427 136.904 62.1468 123.093 60.9563ZM90.0296 34.2848C63.8655 43.0943 43.0485 63.8177 34.3304 90.0768H20.2962C29.9246 56.4428 56.3974 29.9252 90.0296 20.3426V34.2848ZM201.668 145.97H215.596C205.956 179.581 179.493 206.033 145.876 215.657V201.67C172.135 192.952 192.859 172.135 201.668 145.97ZM89.9824 201.622V215.642C56.4181 205.957 29.9666 179.539 20.297 145.923H34.2834C43.0012 172.135 63.8174 192.905 89.9824 201.622ZM145.876 20.3417C179.508 29.8786 205.981 56.4416 215.609 90.0768H201.668C192.859 63.8187 172.134 43.0942 145.876 34.2844V20.3417ZM117.953 100.328C127.683 100.328 135.625 108.27 135.625 118C135.625 127.727 127.686 135.578 117.953 135.578C108.223 135.578 100.375 127.73 100.375 118C100.375 108.266 108.226 100.328 117.953 100.328Z" fill="#131414" stroke="white"/>
</svg>
