<svg width="20" height="20" viewBox="0 0 20 20" fill="none" xmlns="http://www.w3.org/2000/svg">
<path d="M9.65909 0C4.33316 0 0 4.33316 0 9.65909C0 14.985 4.33316 19.3182 9.65909 19.3182C14.985 19.3182 19.3182 14.985 19.3182 9.65909C19.3182 4.33316 14.985 0 9.65909 0ZM9.65909 18.1108C4.99874 18.1108 1.20739 14.3194 1.20739 9.65909C1.20739 4.99874 4.99874 1.20739 9.65909 1.20739C14.3194 1.20739 18.1108 4.99874 18.1108 9.65909C18.1108 14.3194 14.3194 18.1108 9.65909 18.1108Z" fill="white"/>
<path d="M10.2705 3.40918H9.09091V9.78418L12.8024 13.6365L13.6364 12.7708L10.2705 9.27724V3.40918Z" fill="white"/>
</svg>
