<svg width="20" height="20" viewBox="0 0 20 20" fill="none" xmlns="http://www.w3.org/2000/svg">
<g clip-path="url(#clip0)">
<path d="M11.3502 19.9609H8.14115C7.60513 19.9609 7.1691 19.5258 7.1691 18.9908V11.7667H5.29685C4.76083 11.7667 4.3248 11.3313 4.3248 10.7965V7.70096C4.3248 7.16599 4.76083 6.73081 5.29685 6.73081H7.1691V5.18066C7.1691 3.64365 7.65268 2.33597 8.5674 1.39923C9.48625 0.458221 10.7703 -0.0390625 12.2809 -0.0390625L14.7283 -0.0350952C15.2634 -0.0341797 15.6986 0.401001 15.6986 0.935059V3.8092C15.6986 4.34418 15.2628 4.77936 14.7269 4.77936L13.0791 4.77997C12.5765 4.77997 12.4486 4.88052 12.4212 4.91135C12.3761 4.96246 12.3224 5.10696 12.3224 5.50598V6.73065H14.6031C14.7747 6.73065 14.9411 6.77292 15.084 6.85257C15.3924 7.02454 15.5841 7.3497 15.5841 7.70111L15.5829 10.7967C15.5829 11.3313 15.1469 11.7665 14.6109 11.7665H12.3224V18.9908C12.3224 19.5258 11.8863 19.9609 11.3502 19.9609V19.9609ZM8.34388 18.7885H11.1475V11.2418C11.1475 10.8846 11.4388 10.594 11.7965 10.594H14.4081L14.4092 7.90329H11.7964C11.4386 7.90329 11.1475 7.61276 11.1475 7.25555V5.50598C11.1475 5.04791 11.1941 4.52698 11.5406 4.13544C11.9592 3.66211 12.6189 3.60748 13.0788 3.60748L14.5239 3.60687V1.13709L12.2799 1.13342C9.85241 1.13342 8.34388 2.68433 8.34388 5.18066V7.25555C8.34388 7.61261 8.05278 7.90329 7.69503 7.90329H5.49958V10.594H7.69503C8.05278 10.594 8.34388 10.8846 8.34388 11.2418V18.7885ZM14.726 1.13739H14.7261H14.726Z" fill="white"/>
</g>
<defs>
<clipPath id="clip0">
<rect width="20" height="20" fill="white"/>
</clipPath>
</defs>
</svg>
