<svg width="19" height="19" viewBox="0 0 19 19" fill="none" xmlns="http://www.w3.org/2000/svg">
<path d="M14.2487 11.1502C13.8796 10.7665 13.4345 10.5614 12.9627 10.5614C12.4948 10.5614 12.0458 10.7627 11.6616 11.1464L10.4593 12.3431C10.3604 12.2899 10.2615 12.2405 10.1664 12.1912C10.0294 12.1228 9.90005 12.0582 9.78971 11.9898C8.66357 11.2756 7.64014 10.3448 6.65857 9.14054C6.183 8.54029 5.86342 8.03502 5.63134 7.52215C5.94331 7.23723 6.23246 6.9409 6.51399 6.65597C6.62052 6.5496 6.72705 6.43943 6.83358 6.33306C7.63253 5.53526 7.63253 4.50193 6.83358 3.70413L5.79493 2.667C5.67699 2.54923 5.55525 2.42766 5.44111 2.30609C5.21284 2.07055 4.97315 1.82741 4.72585 1.59947C4.35681 1.23477 3.91548 1.04102 3.45133 1.04102C2.98717 1.04102 2.53824 1.23477 2.15778 1.59947C2.15398 1.60327 2.15398 1.60327 2.15017 1.60707L0.856624 2.91014C0.369641 3.39641 0.0919089 3.98906 0.031036 4.67668C-0.0602732 5.786 0.266918 6.81933 0.518019 7.49556C1.13436 9.15573 2.05506 10.6943 3.4285 12.3431C5.0949 14.33 7.0999 15.899 9.39024 17.0045C10.2653 17.4186 11.4333 17.9087 12.7382 17.9923C12.8181 17.9961 12.9018 17.9999 12.9779 17.9999C13.8568 17.9999 14.5949 17.6845 15.1732 17.0577C15.177 17.0501 15.1846 17.0463 15.1884 17.0387C15.3862 16.7994 15.6145 16.5828 15.8542 16.3511C16.0178 16.1953 16.1852 16.032 16.3488 15.861C16.7254 15.4697 16.9233 15.0138 16.9233 14.5465C16.9233 14.0755 16.7216 13.6234 16.3373 13.2435L14.2487 11.1502ZM15.6107 15.1506C15.6069 15.1506 15.6069 15.1544 15.6107 15.1506C15.4623 15.3102 15.3101 15.4545 15.1465 15.6141C14.8992 15.8496 14.6481 16.0966 14.4122 16.3739C14.028 16.7842 13.5752 16.9779 12.9817 16.9779C12.9247 16.9779 12.8638 16.9779 12.8067 16.9741C11.6768 16.9019 10.6267 16.4613 9.83917 16.0852C7.6858 15.0442 5.79493 13.5664 4.22365 11.6935C2.9263 10.1321 2.05886 8.68845 1.48438 7.13845C1.13055 6.19249 1.0012 5.45548 1.05827 4.76026C1.09631 4.31578 1.26752 3.94727 1.58329 3.63195L2.88065 2.33648C3.06707 2.16173 3.26491 2.06675 3.45894 2.06675C3.69863 2.06675 3.89266 2.21112 4.0144 2.33268C4.01821 2.33648 4.02201 2.34028 4.02582 2.34408C4.25789 2.56063 4.47856 2.78477 4.71064 3.02411C4.82858 3.14568 4.95032 3.26724 5.07207 3.39261L6.11071 4.42975C6.51399 4.83244 6.51399 5.20475 6.11071 5.60744C6.00038 5.71762 5.89385 5.82779 5.78352 5.93416C5.46394 6.26088 5.15957 6.5648 4.82858 6.86112C4.82097 6.86872 4.81336 6.87252 4.80955 6.88012C4.48236 7.20683 4.54324 7.52595 4.61172 7.7425C4.61552 7.75389 4.61933 7.76529 4.62313 7.77669C4.89325 8.43012 5.27371 9.04556 5.852 9.77877L5.85581 9.78257C6.90586 11.0742 8.01299 12.081 9.23425 12.8522C9.39024 12.951 9.55003 13.0307 9.70221 13.1067C9.83917 13.1751 9.96853 13.2397 10.0789 13.3081C10.0941 13.3157 10.1093 13.3271 10.1245 13.3347C10.2539 13.3992 10.3756 13.4296 10.5012 13.4296C10.8169 13.4296 11.0148 13.2321 11.0795 13.1675L12.3806 11.8682C12.51 11.7391 12.7154 11.5833 12.9551 11.5833C13.191 11.5833 13.385 11.7315 13.503 11.8606C13.5068 11.8644 13.5068 11.8644 13.5106 11.8682L15.6069 13.9615C15.9987 14.349 15.9987 14.7479 15.6107 15.1506Z" fill="#29B26B" stroke="#29B26B" stroke-width="0.2"/>
<path d="M9.74406 4.28181C10.7409 4.44897 11.6463 4.92005 12.3692 5.64186C13.0921 6.36368 13.56 7.26784 13.7312 8.26319C13.7731 8.51393 13.9899 8.68868 14.2372 8.68868C14.2677 8.68868 14.2943 8.68488 14.3247 8.68108C14.6063 8.63549 14.7927 8.36956 14.747 8.08843C14.5416 6.88414 13.9709 5.78623 13.0997 4.91625C12.2284 4.04627 11.1289 3.47642 9.92287 3.27127C9.64134 3.22568 9.37882 3.41183 9.32936 3.68916C9.2799 3.96649 9.46252 4.23622 9.74406 4.28181Z" fill="#29B26B" stroke="#29B26B" stroke-width="0.2"/>
<path d="M18.0075 7.94018C17.6689 5.95709 16.733 4.15255 15.2949 2.71652C13.8568 1.28049 12.0496 0.345932 10.0636 0.00781895C9.78589 -0.0415684 9.52337 0.148383 9.47391 0.425712C9.42826 0.70684 9.61468 0.968972 9.89622 1.01836C11.6691 1.31848 13.2861 2.15807 14.572 3.43834C15.858 4.72241 16.695 6.33699 16.9955 8.10734C17.0374 8.35808 17.2542 8.53283 17.5015 8.53283C17.532 8.53283 17.5586 8.52903 17.589 8.52523C17.8668 8.48344 18.057 8.21751 18.0075 7.94018Z" fill="#29B26B" stroke="#29B26B" stroke-width="0.2"/>
</svg>
