<svg width="141" height="125" viewBox="0 0 141 125" fill="none" xmlns="http://www.w3.org/2000/svg">
<path d="M27.8813 54.245C31.3974 57.7808 34.701 61.1138 38.0142 64.4274C42.1485 68.5429 48.0022 68.7167 51.9046 64.8621C55.8071 61.0075 55.7685 55.2014 51.7404 51.1053C48.3982 47.6564 44.9304 44.3428 41.3854 40.8263C45.027 37.1939 48.5431 33.745 52.0109 30.1996C53.6715 28.3823 54.5658 25.9935 54.507 23.5323C54.4481 21.0711 53.4407 18.7279 51.6951 16.992C49.9495 15.2562 47.6008 14.2621 45.1396 14.2173C42.6783 14.1726 40.295 15.0807 38.4875 16.7519C35.0487 20.1138 31.6389 23.5144 28.2097 26.9053C28.0296 27.0142 27.8425 27.111 27.6495 27.1951C26.6835 26.1807 25.7176 25.0118 24.6743 23.9394C22.1532 21.389 19.69 18.7806 17.0336 16.3848C15.1903 14.7038 12.7621 13.8114 10.269 13.8988C7.77596 13.9862 5.41619 15.0464 3.69505 16.8523C1.97391 18.6583 1.02822 21.0665 1.06048 23.5612C1.09274 26.0558 2.10039 28.4387 3.86766 30.1996C5.5774 31.9771 7.34511 33.7064 9.10315 35.4453L14.3869 40.6718C13.875 41.2224 13.421 41.7055 12.9863 42.1692C9.85659 45.3282 6.6303 48.3907 3.61652 51.6656C2.34336 52.9548 1.49313 54.6013 1.17906 56.3859C0.864985 58.1704 1.10198 60.0083 1.85848 61.6548C2.4887 63.3486 3.6089 64.8163 5.07632 65.871C6.54375 66.9257 8.29194 67.5195 10.0981 67.5768C11.4868 67.6927 12.8837 67.4921 14.1838 66.9901C15.4838 66.4881 16.653 65.6978 17.6035 64.6786L27.9296 54.2644" fill="#C80019"/>
<path d="M83.6265 31.1754C84.5697 31.2017 85.5086 31.0377 86.387 30.693C87.2654 30.3484 88.0653 29.8303 88.7391 29.1696C89.4128 28.5089 89.9465 27.7191 90.3083 26.8476C90.67 25.976 90.8525 25.0404 90.8447 24.0968C90.8369 23.1531 90.639 22.2207 90.2629 21.3552C89.8868 20.4898 89.3401 19.709 88.6556 19.0595C87.971 18.41 87.1626 17.9051 86.2786 17.5751C85.3947 17.245 84.4533 17.0965 83.5106 17.1384C81.6939 17.2192 79.9793 18.0016 78.7277 19.3211C77.4761 20.6405 76.7851 22.3941 76.8002 24.2128C76.8152 26.0315 77.535 27.7734 78.8083 29.072C80.0815 30.3706 81.8087 31.1246 83.6265 31.1754Z" fill="#5BA763"/>
<path d="M121.028 58.1093C121.063 57.1657 120.908 56.2248 120.571 55.3427C120.234 54.4606 119.723 53.6555 119.067 52.9756C118.412 52.2956 117.627 51.7548 116.758 51.3854C115.889 51.016 114.955 50.8256 114.011 50.8256C113.066 50.8256 112.132 51.016 111.263 51.3854C110.394 51.7548 109.609 52.2956 108.954 52.9756C108.299 53.6555 107.787 54.4606 107.45 55.3427C107.114 56.2248 106.958 57.1657 106.993 58.1093C106.958 59.0529 107.114 59.9939 107.45 60.8759C107.787 61.758 108.299 62.5631 108.954 63.243C109.609 63.923 110.394 64.4638 111.263 64.8333C112.132 65.2027 113.066 65.3931 114.011 65.3931C114.955 65.3931 115.889 65.2027 116.758 64.8333C117.627 64.4638 118.412 63.923 119.067 63.243C119.723 62.5631 120.234 61.758 120.571 60.8759C120.908 59.9939 121.063 59.0529 121.028 58.1093Z" fill="#C2B89B"/>
<path d="M64.0853 1.52649C62.6949 1.53222 61.3374 1.95005 60.1844 2.72718C59.0314 3.50431 58.1346 4.60584 57.6073 5.89257C57.0801 7.1793 56.9461 8.59346 57.2223 9.95633C57.4985 11.3192 58.1724 12.5696 59.1589 13.5495C60.1455 14.5294 61.4003 15.1948 62.7649 15.4617C64.1295 15.7285 65.5425 15.5848 66.8255 15.0487C68.1084 14.5126 69.2036 13.6081 69.9727 12.4497C70.7418 11.2912 71.1503 9.93072 71.1465 8.54015C71.1478 7.61466 70.9657 6.69809 70.6107 5.8434C70.2557 4.98872 69.7348 4.21287 69.0783 3.5607C68.4217 2.90853 67.6424 2.39297 66.7854 2.04381C65.9284 1.69465 65.0107 1.51882 64.0853 1.52649Z" fill="#6C6C6D"/>
<path d="M19.4388 8.61763C19.4541 10.3045 19.9686 11.9492 20.9174 13.344C21.8662 14.7388 23.2068 15.8213 24.7701 16.455C26.3333 17.0887 28.0492 17.2451 29.7013 16.9045C31.3534 16.564 32.8676 15.7417 34.0529 14.5414C35.2382 13.3412 36.0415 11.8167 36.3615 10.1604C36.6815 8.504 36.5038 6.78996 35.8509 5.23449C35.1979 3.67902 34.099 2.3518 32.6927 1.42027C31.2864 0.488738 29.6357 -0.00537049 27.9489 0.000285418C26.8198 -0.00899972 25.7002 0.208349 24.6566 0.639465C23.6129 1.07058 22.6663 1.7067 21.8729 2.51018C21.0794 3.31367 20.4551 4.26818 20.037 5.31723C19.619 6.36628 19.4155 7.48855 19.4388 8.61763Z" fill="#DF911D"/>
<path d="M76.5847 58.1481C76.571 59.0895 76.7466 60.0241 77.1013 60.8963C77.4559 61.7684 77.9822 62.5604 78.649 63.225C79.3158 63.8897 80.1094 64.4135 80.9826 64.7653C81.8558 65.1171 82.7909 65.2897 83.7321 65.2728C84.6734 65.256 85.6016 65.05 86.4617 64.6672C87.3218 64.2844 88.0962 63.7326 88.7387 63.0445C89.3813 62.3564 89.879 61.5461 90.2022 60.6618C90.5254 59.7775 90.6675 58.8372 90.6201 57.8969C90.5745 56.057 89.8076 54.3087 88.4849 53.0292C87.1621 51.7496 85.3895 51.0414 83.5493 51.0571C82.6224 51.0531 81.7042 51.2346 80.8486 51.5909C79.993 51.9473 79.2174 52.4714 78.5674 53.1322C77.9175 53.793 77.4064 54.5772 77.0642 55.4387C76.722 56.3001 76.5557 57.2214 76.5751 58.1481" fill="#1D1A15"/>
<path d="M108.114 24.2292C108.121 25.0031 108.281 25.7679 108.584 26.48C108.887 27.192 109.328 27.8374 109.88 28.3792C110.433 28.9211 111.087 29.3488 111.805 29.6379C112.522 29.927 113.29 30.0719 114.064 30.0643C114.838 30.0567 115.602 29.8967 116.314 29.5935C117.026 29.2903 117.672 28.8499 118.213 28.2973C118.755 27.7447 119.183 27.0908 119.472 26.3729C119.761 25.655 119.906 24.8872 119.898 24.1133C119.891 23.3394 119.731 22.5746 119.428 21.8626C119.124 21.1505 118.684 20.5051 118.131 19.9633C117.579 19.4214 116.925 18.9938 116.207 18.7046C115.489 18.4155 114.722 18.2706 113.948 18.2782C113.174 18.2859 112.409 18.4458 111.697 18.749C110.985 19.0522 110.34 19.4927 109.798 20.0453C109.257 20.5979 108.829 21.2518 108.54 21.9697C108.251 22.6875 108.106 23.4553 108.114 24.2292Z" fill="#1D1A15"/>
<path d="M88.2148 8.76203C88.2273 9.40057 88.3663 10.0303 88.6237 10.6148C88.8811 11.1992 89.2518 11.7268 89.7145 12.1671C90.1771 12.6073 90.7225 12.9514 91.3189 13.1795C91.9154 13.4075 92.5512 13.5151 93.1895 13.4958C94.4738 13.4489 95.691 12.9105 96.5898 11.9918C97.4886 11.0731 98.0003 9.84431 98.0193 8.55915C97.9569 7.23422 97.3838 5.98497 96.4202 5.07354C95.4567 4.16212 94.1776 3.65939 92.8514 3.67085C91.5686 3.7529 90.3677 4.32931 89.5011 5.27883C88.6346 6.22834 88.17 7.47696 88.2051 8.76203" fill="#6C6C6D"/>
<path d="M132.852 12.3936C133.865 12.3758 134.83 11.9609 135.54 11.2382C136.25 10.5155 136.648 9.54288 136.648 8.52974C136.597 7.53419 136.169 6.5953 135.452 5.90308C134.734 5.21085 133.781 4.81697 132.784 4.80115C131.763 4.84565 130.798 5.28027 130.088 6.01537C129.378 6.75047 128.977 7.72999 128.968 8.75191C129.013 9.74622 129.44 10.6849 130.16 11.3723C130.88 12.0597 131.837 12.4429 132.832 12.4419" fill="#1D1A15"/>
<path d="M132.852 27.9767C133.865 27.959 134.83 27.5441 135.54 26.8214C136.25 26.0987 136.648 25.126 136.648 24.1129C136.597 23.1173 136.169 22.1784 135.452 21.4862C134.734 20.794 133.781 20.4001 132.784 20.3843C131.763 20.4288 130.798 20.8634 130.088 21.5985C129.378 22.3336 128.977 23.3131 128.969 24.335C129.013 25.3294 129.44 26.268 130.16 26.9555C130.88 27.6429 131.837 28.026 132.832 28.025" fill="#1D1A15"/>
<path d="M113.996 12.3936C115.009 12.3758 115.975 11.9609 116.685 11.2382C117.395 10.5155 117.793 9.54288 117.792 8.52974C117.741 7.53419 117.314 6.5953 116.596 5.90308C115.879 5.21085 114.925 4.81697 113.929 4.80115C112.908 4.84565 111.943 5.28027 111.233 6.01537C110.523 6.75047 110.122 7.72999 110.113 8.75191C110.158 9.74622 110.585 10.6849 111.304 11.3723C112.024 12.0597 112.982 12.4429 113.977 12.4419" fill="#B99862"/>
<path d="M132.794 70.9484C131.794 70.9657 130.84 71.3699 130.132 72.076C129.424 72.7821 129.017 73.7352 128.997 74.7349C129.005 75.2465 129.114 75.7515 129.318 76.2206C129.522 76.6897 129.818 77.1136 130.187 77.4677C130.556 77.8217 130.992 78.0989 131.47 78.2831C131.947 78.4673 132.456 78.5549 132.968 78.5408C133.974 78.5177 134.931 78.0957 135.626 77.3674C136.322 76.6392 136.7 75.6645 136.677 74.6576C136.654 73.6508 136.232 72.6944 135.503 71.9988C134.775 71.3032 133.801 70.9253 132.794 70.9484Z" fill="#1D1A15"/>
<path d="M106.162 70.9484C105.163 70.9657 104.208 71.3699 103.5 72.076C102.793 72.7821 102.386 73.7352 102.366 74.7349C102.374 75.2465 102.483 75.7515 102.687 76.2206C102.891 76.6897 103.186 77.1136 103.556 77.4677C103.925 77.8217 104.361 78.0989 104.838 78.2831C105.316 78.4673 105.825 78.5549 106.336 78.5408C107.343 78.5177 108.299 78.0957 108.995 77.3674C109.691 76.6392 110.068 75.6645 110.045 74.6576C110.022 73.6508 109.6 72.6944 108.872 71.9988C108.144 71.3032 107.169 70.9253 106.162 70.9484Z" fill="#CF4E1E"/>
<path d="M83.5686 70.9484C82.5688 70.9657 81.6147 71.3699 80.9068 72.076C80.1989 72.7821 79.7922 73.7352 79.7724 74.7349C79.7799 75.2465 79.8889 75.7515 80.0931 76.2206C80.2973 76.6897 80.5926 77.1136 80.962 77.4677C81.3313 77.8217 81.7673 78.0989 82.2446 78.2831C82.7219 78.4673 83.231 78.5549 83.7425 78.5408C84.241 78.5294 84.7324 78.4199 85.1886 78.2185C85.6448 78.0172 86.0569 77.728 86.4013 77.3674C86.7458 77.0069 87.0158 76.582 87.196 76.117C87.3763 75.6521 87.4632 75.1562 87.4517 74.6576C87.4403 74.1591 87.3308 73.6677 87.1295 73.2115C86.9282 72.7553 86.639 72.3432 86.2784 71.9988C85.9178 71.6544 85.4929 71.3843 85.028 71.2041C84.563 71.0239 84.0671 70.937 83.5686 70.9484Z" fill="#5DA1DA"/>
<path d="M83.5686 84.6085C82.5688 84.6258 81.6147 85.03 80.9068 85.7362C80.1989 86.4423 79.7922 87.3954 79.7724 88.3951C79.7799 88.9067 79.8889 89.4117 80.0931 89.8808C80.2973 90.3499 80.5926 90.7738 80.962 91.1278C81.3313 91.4819 81.7673 91.759 82.2446 91.9433C82.7219 92.1275 83.231 92.2151 83.7425 92.201C84.7493 92.1779 85.7057 91.7558 86.4013 91.0276C87.097 90.2994 87.4748 89.3246 87.4517 88.3178C87.4287 87.311 87.0066 86.3546 86.2784 85.659C85.5501 84.9633 84.5754 84.5855 83.5686 84.6085Z" fill="#C80019"/>
<path d="M58.6855 70.9484C57.6858 70.9657 56.7317 71.3699 56.0238 72.076C55.3158 72.7821 54.9092 73.7352 54.8893 74.7349C54.8968 75.2465 55.0058 75.7515 55.21 76.2206C55.4142 76.6897 55.7096 77.1136 56.0789 77.4677C56.4482 77.8217 56.8842 78.0989 57.3615 78.2831C57.8388 78.4673 58.348 78.5549 58.8594 78.5408C59.8662 78.5177 60.8227 78.0957 61.5183 77.3674C62.2139 76.6392 62.5917 75.6645 62.5687 74.6576C62.5456 73.6508 62.1236 72.6944 61.3953 71.9988C60.6671 71.3032 59.6924 70.9253 58.6855 70.9484Z" fill="#5BA763"/>
<path d="M29.2239 70.9484C28.2242 70.9657 27.2701 71.3699 26.5621 72.076C25.8542 72.7821 25.4476 73.7352 25.4277 74.7349C25.4352 75.2465 25.5442 75.7515 25.7484 76.2206C25.9526 76.6897 26.248 77.1136 26.6173 77.4677C26.9866 77.8217 27.4226 78.0989 27.8999 78.2831C28.3772 78.4673 28.8864 78.5549 29.3978 78.5408C30.4046 78.5177 31.361 78.0957 32.0567 77.3674C32.7523 76.6392 33.1301 75.6645 33.1071 74.6576C33.084 73.6508 32.662 72.6944 31.9337 71.9988C31.2055 71.3032 30.2308 70.9253 29.2239 70.9484Z" fill="#383736"/>
<path d="M56.4929 81.2467C54.5327 79.6999 52.0387 78.9948 49.5589 79.2865C47.0792 79.5781 44.8167 80.8427 43.2689 82.8021L30.0353 99.5827L16.8017 82.8021C16.0362 81.8315 15.087 81.0213 14.0084 80.4177C12.9297 79.814 11.7428 79.4287 10.5153 79.2839C9.28777 79.139 8.04375 79.2373 6.85425 79.5733C5.66474 79.9092 4.55305 80.4762 3.58264 81.2418C2.61223 82.0075 1.80211 82.9568 1.19853 84.0355C0.594944 85.1143 0.209727 86.3014 0.0648659 87.5291C-0.0799952 88.7567 0.0183341 90.0009 0.354246 91.1905C0.690159 92.3802 1.25708 93.492 2.02262 94.4625L22.6265 120.546C24.0667 122.368 26.1321 123.591 28.4222 123.976H28.5671L29.2432 124.053H29.5717H30.5376H30.8661L31.5422 123.976H31.6871C33.9772 123.591 36.0427 122.368 37.4828 120.546L58.0867 94.4625C58.8537 93.4923 59.422 92.3805 59.759 91.1904C60.096 90.0004 60.1951 88.7557 60.0506 87.5273C59.9062 86.299 59.521 85.1111 58.9172 84.0318C58.3133 82.9525 57.5027 82.0027 56.5315 81.237" fill="#5DA1DA"/>
<path d="M83.9839 107.137C84.093 108.249 83.8818 109.368 83.3754 110.364C83.0625 110.67 82.6844 110.901 82.2695 111.04C81.8546 111.179 81.4137 111.222 80.9798 111.166H66.9348C66.493 111.119 66.0466 111.189 65.6404 111.369C65.4666 111.504 65.3796 111.826 65.3796 112.335C65.3579 113.076 65.4843 113.814 65.7513 114.506C66.0183 115.197 66.4207 115.829 66.9348 116.363C67.4376 116.891 68.0457 117.307 68.7196 117.585C69.3935 117.863 70.1182 117.997 70.8469 117.977C72.4568 117.977 74.1086 117.094 75.8023 115.33C76.2684 114.771 76.8478 114.317 77.5022 113.999C78.1566 113.681 78.8712 113.506 79.5985 113.484C80.6186 113.435 81.6184 113.781 82.3901 114.45C82.7348 114.762 83.0082 115.144 83.1915 115.571C83.3749 115.998 83.464 116.459 83.4526 116.924C83.4526 119.152 82.2323 121.042 79.7917 122.594C77.1131 124.213 74.0233 125.022 70.8952 124.923C66.3295 124.923 62.6814 123.541 59.9509 120.778C57.2205 118.015 55.8585 114.331 55.865 109.726C55.865 105.083 57.2173 101.331 59.922 98.4716C61.2942 97.0637 62.9484 95.9615 64.7762 95.2373C66.6039 94.5131 68.5641 94.1832 70.5282 94.2692C74.598 94.2692 77.8501 95.4414 80.2843 97.7857C81.5171 99.0079 82.4799 100.475 83.1105 102.093C83.7411 103.71 84.0255 105.442 83.9453 107.176L83.9839 107.137ZM65.5921 104.278C65.5865 104.485 65.6475 104.688 65.766 104.857C65.8819 105.012 66.2844 105.089 66.9734 105.089H73.426C73.7928 105.138 74.1654 105.067 74.4886 104.886C74.5679 104.786 74.6267 104.672 74.6615 104.549C74.6963 104.426 74.7065 104.298 74.6914 104.171C74.6837 103.663 74.5606 103.164 74.3313 102.71C74.102 102.256 73.7727 101.861 73.3681 101.553C72.5033 100.812 71.3966 100.413 70.2577 100.433C69.5381 100.417 68.8248 100.57 68.1754 100.88C67.526 101.191 66.9587 101.65 66.5194 102.22C65.9722 102.783 65.6317 103.515 65.5535 104.297" fill="#9DC03A"/>
<path d="M99.2364 96.8293V101.727C99.5965 100.177 100.253 98.7107 101.168 97.409C102.014 96.3725 103.09 95.5486 104.311 95.0034C105.533 94.4581 106.865 94.2067 108.201 94.2693C110.176 94.2197 112.09 94.9563 113.523 96.3173C114.221 96.9562 114.775 97.7363 115.148 98.6057C115.521 99.4752 115.705 100.414 115.687 101.36C115.735 102.777 115.241 104.159 114.305 105.224C113.866 105.72 113.324 106.114 112.717 106.378C112.109 106.642 111.451 106.769 110.789 106.751C109.778 106.778 108.796 106.406 108.056 105.717C107.697 105.401 107.412 105.011 107.218 104.574C107.025 104.137 106.928 103.664 106.935 103.186C107.014 102.393 107.268 101.628 107.679 100.945H107.331C104.755 100.945 103.026 102.307 102.144 105.031C101.417 107.479 101.068 110.023 101.11 112.576V114.769C101.035 115.666 101.153 116.569 101.458 117.416C101.552 117.539 101.676 117.636 101.818 117.697C101.96 117.758 102.116 117.781 102.27 117.764C102.757 117.743 103.24 117.665 103.709 117.532C104.159 117.404 104.623 117.326 105.09 117.3C105.496 117.291 105.9 117.364 106.278 117.513C106.655 117.663 106.999 117.886 107.289 118.171C107.579 118.455 107.809 118.795 107.965 119.17C108.122 119.545 108.202 119.947 108.201 120.353C108.214 120.87 108.122 121.385 107.929 121.865C107.737 122.345 107.448 122.781 107.08 123.145C106.72 123.501 106.29 123.779 105.819 123.964C105.347 124.148 104.843 124.234 104.337 124.217C103.257 124.175 102.18 124.078 101.11 123.928C99.9041 123.8 98.6914 123.741 97.4784 123.754C96.1883 123.746 94.8987 123.804 93.6146 123.928C91.7728 124.121 90.6394 124.217 90.2144 124.217C87.8317 124.217 86.6404 122.929 86.6404 120.353C86.6404 118.202 87.5613 117.126 89.403 117.126C89.7564 117.136 90.1058 117.205 90.4366 117.329C90.7111 117.44 91.001 117.509 91.2963 117.532C91.9403 117.532 92.2622 116.457 92.2622 114.306V104.973C92.2622 102.784 91.9403 101.689 91.2963 101.689C90.9931 101.721 90.6948 101.789 90.4076 101.892C90.0958 102.001 89.7711 102.069 89.4417 102.094C87.5999 102.094 86.679 101.038 86.679 98.9257C86.6481 97.8993 86.9914 96.8967 87.645 96.1048C87.9283 95.7548 88.2881 95.4744 88.6967 95.2852C89.1052 95.0959 89.5518 95.0029 90.0019 95.0131C90.5461 95.0357 91.0866 95.1134 91.6151 95.245C92.2487 95.3921 92.8965 95.4698 93.547 95.4768C94.225 95.4537 94.9001 95.3761 95.5658 95.245C96.203 95.1189 96.8488 95.0414 97.4977 95.0131C97.7407 94.9774 97.9886 94.9989 98.2217 95.0761C98.4549 95.1533 98.6667 95.2839 98.8404 95.4576C99.014 95.6312 99.1446 95.8431 99.2218 96.0763C99.2989 96.3094 99.3205 96.5574 99.2847 96.8004" fill="#E8AE38"/>
<path d="M130.331 102.964V105.321L130.273 108.896L130.157 112.76C130.118 114.048 130.099 114.566 130.099 114.315C130.099 116.582 130.826 117.716 132.282 117.716C133.737 117.716 134.429 116.698 134.359 114.663C134.366 114.43 134.346 114.196 134.301 113.967V113.224C134.269 113.032 134.25 112.838 134.243 112.644C134.243 110.57 135.279 109.533 137.353 109.533C139.768 109.533 140.979 111.465 140.985 115.33C141.059 116.638 140.857 117.948 140.391 119.173C139.925 120.398 139.206 121.512 138.28 122.44C136.477 124.147 133.962 125 130.736 125C124.4 125 121.231 121.661 121.231 114.982C121.231 113.906 121.279 112.296 121.376 110.151C121.473 108.007 121.521 106.397 121.521 105.321V103.476C121.581 102.858 121.492 102.235 121.26 101.66C121.086 101.409 120.674 101.283 120.024 101.283H119.058C118.716 101.292 118.377 101.222 118.067 101.078C117.757 100.933 117.484 100.719 117.271 100.452C116.788 99.837 116.541 99.0694 116.575 98.2882C116.557 97.4718 116.812 96.6727 117.3 96.0179C117.483 95.7308 117.734 95.4928 118.03 95.3245C118.327 95.1561 118.659 95.0625 119 95.0518H120.091C121.012 95.0518 121.55 94.7845 121.705 94.25C121.845 93.7441 121.904 93.219 121.878 92.6946V89.8737C121.816 89.3614 121.881 88.8417 122.066 88.36C122.251 87.8784 122.552 87.4494 122.941 87.1107C124.134 86.5053 125.472 86.2443 126.805 86.3572C127.754 86.2634 128.709 86.4659 129.538 86.9368C130.021 87.3233 130.263 88.167 130.263 89.4679V92.5787C130.185 93.287 130.295 94.0033 130.582 94.6557C130.794 94.9262 131.342 95.0615 132.224 95.0615H136.368C138.635 95.0615 139.768 96.1177 139.768 98.2302C139.768 100.343 138.731 101.36 136.658 101.283H131.934C131.132 101.283 130.649 101.418 130.495 101.689C130.315 102.085 130.235 102.52 130.263 102.954" fill="#9D9E9F"/>
<path d="M68.0361 36.7013V38.3146V40.7588L67.9588 43.3961C67.9588 44.2656 67.9588 44.6198 67.9588 44.4588C67.9588 46.011 68.4579 46.787 69.456 46.787C70.4542 46.787 70.9275 46.0915 70.876 44.7003C70.8937 44.543 70.8937 44.3842 70.876 44.2269V43.7149C70.868 43.583 70.868 43.4508 70.876 43.3188C70.8455 43.0323 70.8796 42.7425 70.9756 42.4708C71.0717 42.1991 71.2273 41.9524 71.431 41.7486C71.6348 41.5448 71.8815 41.3892 72.1532 41.2932C72.4248 41.1971 72.7145 41.1631 73.0011 41.1935C74.6561 41.1935 75.4836 42.5202 75.4836 45.1737C75.5286 46.0637 75.3868 46.9532 75.0674 47.7852C74.7479 48.6171 74.258 49.3729 73.629 50.004C72.203 51.2443 70.3475 51.8756 68.4611 51.7623C64.1207 51.7623 61.9505 49.4759 61.9505 44.9032C61.9505 44.169 61.9827 43.0644 62.0471 41.5896C62.1115 40.1147 62.1437 39.0102 62.1437 38.276V37.0587C62.1864 36.6354 62.1268 36.208 61.9699 35.8125C61.8539 35.6386 61.5706 35.5516 61.1198 35.5516H60.492C60.2573 35.5581 60.0244 35.5099 59.8115 35.411C59.5986 35.3121 59.4116 35.1651 59.2652 34.9817C58.9364 34.5611 58.7686 34.0369 58.7919 33.5036C58.7777 32.9446 58.9511 32.3971 59.2845 31.9482C59.411 31.7546 59.5825 31.5946 59.7844 31.4819C59.9863 31.3691 60.2125 31.307 60.4436 31.3009H61.1971C61.8411 31.3009 62.2081 31.1174 62.2983 30.7503C62.3937 30.4046 62.4328 30.0458 62.4142 29.6876V27.7555C62.3646 27.3986 62.4048 27.0349 62.5313 26.6975C62.6578 26.3601 62.8666 26.0596 63.1387 25.8233C63.9619 25.4063 64.8856 25.2289 65.8047 25.3113C66.4553 25.2462 67.1101 25.3846 67.6787 25.7074C67.8785 25.9462 68.0257 26.2246 68.1106 26.5243C68.1955 26.8239 68.2162 27.1381 68.1713 27.4463V29.5717C68.1162 30.0555 68.1895 30.5453 68.3838 30.9918C68.5255 31.1786 68.899 31.272 69.5043 31.272H72.3442C73.8962 31.272 74.6722 31.9933 74.6722 33.436C74.7204 33.7338 74.6957 34.0388 74.6001 34.325C74.5046 34.6111 74.341 34.8698 74.1235 35.0788C73.9059 35.2878 73.6409 35.4409 73.3512 35.525C73.0615 35.609 72.7557 35.6215 72.4601 35.5613H69.2242C68.6704 35.5613 68.3484 35.6547 68.2582 35.8415C68.136 36.1142 68.0829 36.4128 68.1037 36.7109" fill="#5DA1DA"/>
<path d="M99.6132 34.257V37.2712C99.8328 36.3049 100.236 35.3898 100.801 34.5758C101.334 33.9298 102.011 33.4183 102.778 33.0826C103.545 32.7469 104.38 32.5966 105.216 32.6437C105.826 32.6274 106.434 32.7317 107.004 32.9505C107.574 33.1693 108.096 33.4984 108.539 33.9189C108.972 34.3172 109.316 34.8031 109.547 35.3444C109.779 35.8857 109.893 36.47 109.881 37.0586C109.916 37.9473 109.608 38.8153 109.022 39.4835C108.749 39.7956 108.412 40.044 108.033 40.211C107.654 40.3779 107.243 40.4594 106.829 40.4496C106.2 40.4626 105.59 40.2305 105.129 39.8023C104.904 39.605 104.724 39.3612 104.602 39.0876C104.48 38.8141 104.419 38.5173 104.424 38.2179C104.473 37.7225 104.631 37.2441 104.887 36.8171H104.675C103.924 36.7935 103.19 37.0339 102.598 37.4965C102.007 37.959 101.597 38.6143 101.439 39.3482C100.984 40.8742 100.766 42.4609 100.792 44.053V45.4151C100.742 45.9747 100.814 46.5385 101.004 47.0671C101.063 47.1424 101.14 47.2015 101.228 47.2387C101.316 47.2758 101.412 47.29 101.506 47.2797C101.81 47.266 102.112 47.2174 102.405 47.1347C102.685 47.0548 102.973 47.0062 103.264 46.9898C103.777 46.9898 104.268 47.1934 104.631 47.5558C104.993 47.9181 105.196 48.4095 105.196 48.922C105.205 49.244 105.148 49.5644 105.029 49.8635C104.909 50.1626 104.729 50.434 104.501 50.6609C104.28 50.8866 104.015 51.0647 103.723 51.1843C103.43 51.3039 103.117 51.3625 102.801 51.3565C102.128 51.329 101.458 51.2677 100.792 51.1729C100.041 51.0941 99.2862 51.0586 98.5313 51.0667C97.7283 51.0614 96.9255 51.0968 96.1261 51.1729C94.9798 51.2953 94.2747 51.3565 94.0106 51.3565C92.5231 51.3565 91.7825 50.5546 91.7889 48.951C91.7889 47.6113 92.3621 46.9415 93.5083 46.9415C93.7297 46.946 93.9486 46.9885 94.1555 47.0671C94.3283 47.1366 94.5108 47.179 94.6965 47.1927C95.1022 47.1927 95.305 46.5229 95.305 45.1833V39.3869C95.305 38.0215 95.1022 37.3388 94.6965 37.3388C94.5053 37.3579 94.3172 37.4 94.1362 37.4644C93.9335 37.5342 93.7223 37.5764 93.5083 37.59C92.3621 37.59 91.7889 36.9459 91.7889 35.6578C91.7633 35.021 91.9692 34.3964 92.3685 33.8996C92.5444 33.6805 92.7683 33.5047 93.0228 33.3858C93.2774 33.2669 93.5559 33.208 93.8368 33.2137C94.1627 33.2303 94.4862 33.2788 94.8027 33.3586C95.202 33.451 95.6101 33.4996 96.0198 33.5035C96.4416 33.4885 96.8615 33.44 97.2756 33.3586C97.6769 33.279 98.0838 33.2306 98.4927 33.2137C98.6442 33.1886 98.7995 33.2 98.9458 33.2469C99.092 33.2939 99.225 33.375 99.3336 33.4837C99.4422 33.5923 99.5233 33.7252 99.5703 33.8715C99.6172 34.0178 99.6286 34.1731 99.6035 34.3247" fill="#CF4E1E"/>
<path d="M137.073 49.5306C136.445 49.591 135.814 49.448 135.273 49.1228C134.732 48.7976 134.31 48.3073 134.069 47.7241C132.854 48.9036 131.222 49.5532 129.529 49.5306C128.277 49.5951 127.047 49.1884 126.08 48.3907C125.657 48.012 125.323 47.5448 125.101 47.0221C124.879 46.4995 124.774 45.9343 124.796 45.3669C124.718 44.5545 124.924 43.7403 125.378 43.0624C125.832 42.3845 126.507 41.8846 127.288 41.6475C128.093 41.3884 128.916 41.1882 129.751 41.0486C130.666 40.9447 131.557 40.6901 132.388 40.295C132.612 40.1624 132.796 39.9706 132.919 39.7405C133.041 39.5105 133.098 39.2511 133.084 38.9908C133.085 38.7858 133.037 38.5834 132.945 38.4003C132.852 38.2172 132.718 38.0587 132.552 37.9378C132.173 37.6476 131.706 37.4974 131.229 37.5127C130.63 37.5127 130.331 37.706 130.331 38.0924C130.321 38.221 130.321 38.3502 130.331 38.4788V38.5851C130.331 38.835 130.273 39.0815 130.16 39.3047C130.048 39.5279 129.884 39.7215 129.683 39.87C129.227 40.2271 128.659 40.4118 128.08 40.3916C127.415 40.4156 126.767 40.18 126.274 39.7347C126.043 39.5291 125.859 39.2757 125.736 38.9921C125.612 38.7086 125.552 38.4016 125.559 38.0924C125.566 37.5957 125.717 37.1119 125.993 36.6989C126.269 36.2858 126.658 35.9613 127.114 35.7642C128.456 35.1333 129.932 34.8414 131.412 34.914C132.935 34.8127 134.456 35.1231 135.817 35.8125C136.854 36.4565 137.372 37.677 137.372 39.4739V45.135C137.372 45.7211 137.517 46.0142 137.807 46.0142C137.945 46.0241 138.084 46.0241 138.222 46.0142C138.286 46.0037 138.352 46.0037 138.416 46.0142C138.614 46.0129 138.81 46.051 138.994 46.1263C139.177 46.2015 139.344 46.3125 139.484 46.4527C139.624 46.5929 139.735 46.7595 139.81 46.943C139.886 47.1264 139.924 47.323 139.922 47.5212C139.923 47.816 139.849 48.1061 139.707 48.3645C139.565 48.623 139.36 48.8413 139.111 48.9993C138.5 49.4057 137.777 49.6086 137.044 49.5789L137.073 49.5306ZM133.074 43.7246V43.0676C132.285 43.3377 131.482 43.5666 130.669 43.7535C129.664 44.0112 129.162 44.404 129.162 44.9322C129.162 45.7694 129.654 46.188 130.64 46.188C132.262 46.188 133.074 45.3476 133.074 43.6666" fill="#9DC03A"/>
<path d="M32.2184 38.2373C32.3041 38.9279 32.1901 39.6285 31.89 40.2564C31.6971 40.4484 31.4626 40.5936 31.2047 40.6807C30.9468 40.7678 30.6723 40.7945 30.4024 40.7587H21.5929C21.3161 40.7281 21.0361 40.7714 20.7815 40.8843C20.6753 40.9713 20.6173 41.1741 20.6173 41.5123C20.6034 41.9741 20.6817 42.4341 20.8475 42.8654C21.0134 43.2966 21.2635 43.6905 21.5833 44.024C21.9008 44.3466 22.2822 44.5991 22.7031 44.7655C23.1239 44.9319 23.5749 45.0084 24.0271 44.9901C24.626 44.9386 25.2081 44.7655 25.7379 44.4815C26.2677 44.1974 26.7341 43.8084 27.1085 43.3381C27.3993 42.99 27.7606 42.7076 28.1685 42.5094C28.5765 42.3113 29.0218 42.2019 29.4751 42.1885C30.1114 42.1598 30.7343 42.3779 31.2138 42.7971C31.4301 42.9912 31.6017 43.23 31.7167 43.4968C31.8318 43.7637 31.8876 44.0523 31.8803 44.3428C31.8517 45.0824 31.6275 45.8012 31.2304 46.4258C30.8333 47.0504 30.2776 47.5584 29.62 47.898C27.9504 48.9061 26.0247 49.4093 24.0754 49.3471C22.8226 49.4083 21.5705 49.2109 20.3972 48.7671C19.224 48.3233 18.1546 47.6427 17.2558 46.7677C16.3897 45.8498 15.7175 44.7668 15.2794 43.5834C14.8412 42.3999 14.6461 41.1402 14.7057 39.8796C14.5918 37.2995 15.5014 34.7788 17.2365 32.8659C18.0883 31.9758 19.1196 31.2768 20.262 30.8155C21.4045 30.3541 22.6319 30.1409 23.8629 30.1899C24.9774 30.1423 26.0901 30.3168 27.1365 30.7032C28.1829 31.0896 29.142 31.6803 29.9581 32.4409C30.7159 33.1977 31.3081 34.1037 31.6972 35.1016C32.0863 36.0994 32.2638 37.1672 32.2184 38.2373ZM20.8105 36.4597C20.8063 36.5872 20.8436 36.7127 20.9167 36.8172C20.9876 36.9138 21.2387 36.9621 21.6702 36.9621H25.6886C25.9185 36.9934 26.1523 36.9494 26.3551 36.8365C26.4519 36.7097 26.4968 36.5508 26.4807 36.3921C26.4759 36.0756 26.3996 35.7643 26.2574 35.4816C26.1152 35.1988 25.9108 34.9519 25.6596 34.7594C25.1235 34.296 24.4362 34.0452 23.7277 34.0542C23.2786 34.0455 22.8337 34.1414 22.428 34.3342C22.0223 34.527 21.667 34.8115 21.3901 35.1652C21.0605 35.5207 20.8598 35.9765 20.8202 36.4597" fill="white"/>
</svg>
