<svg width="185" height="35" viewBox="0 0 185 35" fill="none" xmlns="http://www.w3.org/2000/svg">
<path d="M89.7082 5.62071L79.1972 28.3385L76.7849 24.4264C84.022 19.519 81.9887 6.03251 70.7195 5.96388H59.5538H58.1408H42.7362H38.2561H35.1545L30.571 13.3763H30.3642L25.8152 5.96388H21.7486V0.953613H0.588806V34.5498H17.1996H21.4385H25.0915L30.3297 25.5588H30.571L35.8092 34.5498H43.7356V33.4517L34.4308 19.4161L39.0487 12.5184H45.2519V34.5498H52.489V12.5184H58.0719V34.5498H65.4123V26.1422H69.2377L74.1658 34.5498H76.7849H82.3678H83.953L85.6417 30.9466H96.9453L98.634 34.5498H105.802V33.486L92.8443 5.62071H89.7082ZM21.1283 27.4462H8.51513V20.9947H19.9911V13.994H8.51513V8.22879H18.9227L26.401 19.3818L21.1283 27.4462ZM70.6851 19.5877H65.4468V12.5184C67.1699 12.5184 68.9619 12.4841 70.6851 12.5184C74.8895 12.5527 74.6827 19.5877 70.6851 19.5877ZM88.0885 24.6666L91.2935 17.1512L94.5674 24.6666H88.0885Z" fill="white"/>
<path d="M162.975 5.99819V8.50332C161.287 6.99338 158.943 6.03251 155.945 5.99819H143.435H143.366H128.341L129.995 2.25766V0.953613H121.689L113.97 19.9652H113.729L105.837 0.953613H97.5313V2.25766L112.005 34.9616H115.658L125.515 12.4498V34.5841H143.332H143.78H150.672V26.1765H154.497L159.426 34.5841H167.628V33.486L162.01 24.4264C165.904 21.784 167.076 16.7051 165.629 12.5184H170.005V34.5498H177.243V12.5184H184.238V5.99819H162.975ZM132.821 28.0639V23.0537H142.091V16.5678H132.821V12.5184H143.366V28.0639H132.821ZM155.945 19.5877H150.707V12.5184C152.43 12.5184 154.222 12.4841 155.945 12.5184C160.115 12.5527 159.908 19.5877 155.945 19.5877Z" fill="white"/>
</svg>
