<svg width="202" height="37" viewBox="0 0 202 37" fill="none" xmlns="http://www.w3.org/2000/svg">
<path d="M97.5924 5.13463L86.0742 30.1148L83.4292 25.8471C91.3641 20.4556 89.1173 5.6041 76.7885 5.56142H37.8396L32.82 13.7269H32.5924L27.6154 5.56142H23.1503V0.0134277H0V36.9999H26.7906L32.4787 27.1274H32.7489L38.4369 36.9999H47.2676V35.7908L37.086 20.356L42.1625 12.7738H48.974V36.9573H56.9088V12.7738H63.0234V36.9573H71.0578V27.6822H75.2243L80.6137 36.9288H91.3214L93.1558 32.9741H105.541L107.376 36.9288H115.225V35.7623L101.005 5.10619L97.5924 5.13463ZM22.5246 29.1048H8.71691V21.992H21.2733V14.2817H8.71691V7.95131H20.093L28.298 20.2138L22.5246 29.1048ZM76.7885 20.4414H71.1004V12.6742C72.9917 12.6742 74.9541 12.6742 76.7885 12.6742C81.3673 12.6742 81.1398 20.4414 76.7885 20.4414ZM95.8007 26.0463L99.2989 17.7954L102.882 26.0463H95.8007Z" fill="#ED2026"/>
<path d="M178.544 5.47479V8.19107C176.409 6.36809 173.661 5.3991 170.839 5.47479H140.519L142.317 1.4074V0H133.214L124.739 20.6888H124.482L115.793 0H106.69V1.4074L122.627 36.9865H126.651L137.48 12.4837V36.5784H165.117V27.3881H169.298L174.705 36.5362H183.708V35.3821L177.545 25.5303C179.544 24.0883 181.014 22.0439 181.732 19.7056C182.45 17.3674 182.378 14.8622 181.526 12.5681H186.334V36.4939H194.295V12.5681H202V5.5311L178.544 5.47479ZM145.456 29.4992V24.0384H155.615V17.0014H145.456V12.6103H157.027V29.4992H145.456ZM170.839 20.2666H165.132V12.5822C167.029 12.5822 168.998 12.5822 170.839 12.5822C175.433 12.5822 175.205 20.2666 170.839 20.2666Z" fill="white"/>
</svg>
