<svg width="235" height="43" viewBox="0 0 235 43" fill="none" xmlns="http://www.w3.org/2000/svg">
<path d="M113.536 5.96804L100.136 34.9991L97.0588 30.0393C106.29 23.7735 103.676 6.51364 89.3331 6.46404H44.0214L38.1816 15.9537H37.9169L32.1268 6.46404H26.9323V0.0163574H0V43.0008H31.1673L37.7846 31.5273H38.0989L44.7162 43.0008H54.9895V41.5956L43.1446 23.6578L49.0505 14.846H56.9747V42.9512H66.2058V14.846H73.3193V42.9512H82.6662V32.172H87.5134L93.7832 42.9182H106.24L108.374 38.3221H122.783L124.917 42.9182H134.049V41.5625L117.506 5.93499L113.536 5.96804ZM26.2044 33.8253H10.141V25.559H24.7486V16.5984H10.141V9.24149H23.3755L32.9209 23.4925L26.2044 33.8253ZM89.3331 23.757H82.7158V14.7303C84.9161 14.7303 87.199 14.7303 89.3331 14.7303C94.66 14.7303 94.3953 23.757 89.3331 23.757ZM111.451 30.2708L115.521 20.6819L119.69 30.2708H111.451Z" fill="#ED2026"/>
<path d="M207.711 6.36261V9.51937C205.229 7.40078 202.031 6.27465 198.748 6.36261H163.476L165.567 1.63563V0H154.977L145.117 24.0438H144.818L134.71 0H124.12V1.63563L142.661 42.9845H147.342L159.94 14.5081V42.5101H192.092V31.8294H196.955L203.246 42.4611H213.72V41.1198L206.55 29.6704C208.876 27.9945 210.585 25.6186 211.421 22.9012C212.256 20.1838 212.172 17.2723 211.181 14.6062H216.774V42.412H226.037V14.6062H235V6.42805L207.711 6.36261ZM169.219 34.2829V27.9366H181.037V19.7585H169.219V14.6553H182.68V34.2829H169.219ZM198.748 23.5531H192.109V14.6226C194.316 14.6226 196.607 14.6226 198.748 14.6226C204.093 14.6226 203.827 23.5531 198.748 23.5531Z" fill="#29ABE2"/>
</svg>
