<svg width="13" height="22" viewBox="0 0 13 22" fill="none" xmlns="http://www.w3.org/2000/svg">
<path d="M11.8217 0.415291C8.31076 -0.13843 4.69024 -0.13843 1.17836 0.415291C0.495858 0.522555 0 1.10928 0 1.80972V20.1884C0 20.8879 0.495858 21.4747 1.17836 21.5819C2.93428 21.8597 4.72367 22 6.5 22C8.27542 22 10.0657 21.8597 11.8216 21.5819C12.5041 21.4747 13 20.8879 13 20.1875V1.80972C13 1.10928 12.5042 0.523457 11.8217 0.415291ZM12.0715 20.1875C12.0715 20.4314 11.9006 20.6413 11.675 20.6771C8.26249 21.2161 4.74043 21.2161 1.32513 20.6771C1.09949 20.6413 0.928646 20.4314 0.928646 20.1875V18.3329H12.0715V20.1875H12.0715ZM12.0715 17.4161H0.928603V3.66435H12.0715V17.4161ZM12.0715 2.74758H0.928603V1.80972C0.928603 1.56584 1.09945 1.35591 1.32509 1.32015C3.03182 1.05062 4.7729 0.914006 6.50004 0.914006C8.22628 0.914006 9.96827 1.05062 11.675 1.32015C11.9006 1.35591 12.0715 1.56584 12.0715 1.80972V2.74758Z" fill="#0C6BBB"/>
<path d="M5.57139 20.1663H7.42855C7.68484 20.1663 7.89285 19.9609 7.89285 19.7079C7.89285 19.4549 7.68484 19.2495 7.42855 19.2495H5.57139C5.3151 19.2495 5.10709 19.4549 5.10709 19.7079C5.10709 19.9609 5.3151 20.1663 5.57139 20.1663Z" fill="#0C6BBB"/>
</svg>
