<svg width="38" height="38" viewBox="0 0 38 38" fill="none" xmlns="http://www.w3.org/2000/svg">
<path d="M36.5492 6.98345L13.276 2.03972C12.2914 1.83062 11.3154 2.46826 11.1071 3.45661L10.6649 6.30872L37.5182 12.0126L37.9604 9.16052C38.1687 8.17255 37.5338 7.19261 36.5492 6.98345Z" fill="#0278D7"/>
<path d="M26.7622 12.6176C26.4903 11.635 25.4673 11.0542 24.4887 11.3266L20.0706 12.5577L9.65518 10.3452L8.50971 15.7778L1.35275 17.7717C0.37418 18.0441 -0.204454 19.071 0.0669495 20.0533L4.10032 34.6422C4.37215 35.6244 5.39524 36.2056 6.37381 35.9328L29.5098 29.4882C30.4883 29.2154 31.067 28.1889 30.7955 27.2062L30.1032 24.7018L32.698 25.2524C33.6826 25.4619 34.6586 24.8242 34.8669 23.8359L36.5086 16.0492L27.1621 14.064L26.7622 12.6176ZM29.4341 20.0323L30.0062 17.3179C30.0922 16.9115 30.4937 16.6494 30.8985 16.7352L33.6027 17.3099C34.008 17.3962 34.2692 17.7987 34.1837 18.2055L33.6115 20.9199C33.5255 21.3263 33.1241 21.5888 32.7192 21.5026L30.015 20.9283C29.6093 20.8417 29.3481 20.4387 29.4341 20.0323ZM1.75535 19.2275L8.15796 17.4446L23.2649 13.2367L24.8905 12.7833C24.9202 12.7753 24.9498 12.7715 24.9787 12.7715C25.1091 12.7715 25.265 12.8573 25.3106 13.0218L25.5015 13.7118L26.0995 15.8747L2.3066 22.5021L1.51773 19.6496C1.4683 19.4706 1.57709 19.2771 1.75535 19.2275ZM29.3447 27.6099C29.3751 27.7206 29.3432 27.8121 29.3109 27.8694C29.279 27.9266 29.2174 28.0015 29.1071 28.032L5.97158 34.4765C5.94233 34.4846 5.91228 34.4888 5.88335 34.4888C5.75295 34.4888 5.59704 34.4025 5.55146 34.238L3.19893 25.7286L26.9918 19.1008L28.4429 24.3491L29.3447 27.6099Z" fill="#0278D7"/>
<path d="M9.70969 28.1921C9.59867 27.7914 9.18197 27.5548 8.78278 27.6658L6.08085 28.4187C5.68203 28.5298 5.44596 28.9484 5.55698 29.3491L6.30668 32.0608C6.4177 32.4615 6.8344 32.6981 7.23359 32.5867L9.93552 31.8342C10.3347 31.7231 10.5704 31.3045 10.4598 30.9038L9.70969 28.1921Z" fill="#0278D7"/>
</svg>
