<svg width="50" height="50" viewBox="0 0 50 50" fill="none" xmlns="http://www.w3.org/2000/svg">
<g clip-path="url(#clip0)">
<path d="M50 23.5395H46.8434C46.4965 18.2045 44.2544 13.2365 40.4394 9.42158C36.6244 5.60664 31.6564 3.36445 26.3215 3.01758V0H23.4005V3.01768C18.0655 3.36455 13.0976 5.60664 9.28262 9.42168C5.46768 13.2367 3.22559 18.2046 2.87861 23.5396H0V26.4605H2.87861C3.22549 31.7955 5.46758 36.7635 9.28262 40.5784C13.0976 44.3934 18.0655 46.6354 23.4005 46.9824V50H26.3215V46.9823C31.6565 46.6354 36.6244 44.3934 40.4394 40.5783C44.2544 36.7634 46.4965 31.7954 46.8434 26.4604H50V23.5395ZM43.9158 23.5395H41.4459C40.7457 15.5218 34.3393 9.11533 26.3215 8.41514V5.94522C35.6971 6.65703 43.2039 14.164 43.9158 23.5395ZM38.5119 26.4605C37.8313 32.8664 32.7273 37.9704 26.3215 38.6509V36.1585H23.4005V38.6509C16.9946 37.9703 11.8907 32.8663 11.2102 26.4605H13.7361V23.5396H11.2102C11.8907 17.1337 16.9947 12.0298 23.4005 11.3492V13.7059H26.3215V11.3492C32.7273 12.0298 37.8313 17.1338 38.5119 23.5396H35.9717V26.4605H38.5119ZM23.4005 5.94522V8.41523C15.3828 9.11543 8.97637 15.5219 8.27617 23.5396H5.80615C6.51807 14.164 14.0249 6.65703 23.4005 5.94522ZM5.80615 26.4605H8.27617C8.97637 34.4782 15.3828 40.8847 23.4005 41.5849V44.0549C14.0249 43.343 6.51807 35.836 5.80615 26.4605ZM26.3215 44.0548V41.5848C34.3393 40.8846 40.7457 34.4781 41.4459 26.4604H43.9158C43.2039 35.836 35.6971 43.343 26.3215 44.0548Z" fill="#ED2026" fill-opacity="0.3"/>
<path d="M22.7201 25.808L19.6803 22.7683L17.6149 24.8337L22.7201 29.939L32.691 19.9682L30.6255 17.9027L22.7201 25.808Z" fill="#ED2026" fill-opacity="0.3"/>
</g>
<defs>
<clipPath id="clip0">
<rect width="50" height="50" fill="white"/>
</clipPath>
</defs>
</svg>
