<svg width="27" height="24" viewBox="0 0 27 24" fill="none" xmlns="http://www.w3.org/2000/svg">
<path d="M5.91682 10.7371C6.5716 11.3891 7.15747 12.0068 7.77779 12.5902C8.53596 13.3451 9.60431 13.3795 10.328 12.6588C11.0517 11.9725 11.0172 10.9086 10.2935 10.1537C9.67322 9.53597 9.0529 8.91827 8.39811 8.26625C9.0529 7.61423 9.70769 6.96221 10.328 6.31019C11.0517 5.58953 11.0173 4.45707 10.2591 3.77074C9.56984 3.15303 8.53597 3.18735 7.84672 3.83937C7.2264 4.45707 6.57162 5.07478 5.95129 5.69248C5.95129 5.69248 5.91684 5.69248 5.84791 5.76112C5.6756 5.58953 5.50327 5.34931 5.2965 5.17773C4.84849 4.69729 4.36603 4.25117 3.88355 3.80505C3.15984 3.15303 2.0915 3.22167 1.43672 3.908C0.781931 4.59434 0.816406 5.62385 1.47119 6.3445C1.78135 6.68767 2.12597 6.99652 2.43613 7.30537C2.74629 7.61423 3.05645 7.92308 3.40107 8.26625C3.29769 8.3692 3.22876 8.47215 3.15983 8.54078C2.57397 9.12417 1.98811 9.67324 1.43672 10.2909C0.954243 10.8057 0.850868 11.4577 1.12657 12.1097C1.40227 12.7618 1.91919 13.1392 2.6429 13.2079C3.19429 13.2422 3.6423 13.0706 4.02139 12.6588C4.64171 12.0411 5.26203 11.3891 5.91682 10.7371Z" fill="white"/>
<path d="M16.1866 6.51615C16.9103 6.51615 17.4962 5.93276 17.4617 5.21211C17.4617 4.49145 16.8759 3.94238 16.1522 3.94238C15.4629 3.94238 14.8771 4.52577 14.8771 5.21211C14.8771 5.93276 15.4629 6.51615 16.1866 6.51615Z" fill="white"/>
<path d="M23.0446 11.4578C23.0446 10.7372 22.4588 10.1538 21.7351 10.1538C21.0114 10.1538 20.46 10.7372 20.46 11.4578C20.46 12.1442 21.0458 12.7276 21.7351 12.7276C22.4588 12.7619 23.0446 12.1785 23.0446 11.4578Z" fill="white"/>
<path d="M12.5681 1.09375C11.8444 1.09375 11.293 1.67714 11.293 2.39779C11.293 3.08413 11.8789 3.66751 12.5681 3.66751C13.2919 3.66751 13.8777 3.08413 13.8777 2.36347C13.8777 1.67714 13.2919 1.09375 12.5681 1.09375Z" fill="white"/>
<path d="M4.36603 2.39805C4.36603 3.25597 5.08975 3.97662 5.9513 3.94231C6.81286 3.94231 7.50211 3.22165 7.50211 2.36373C7.50211 1.50581 6.81285 0.785156 5.91683 0.785156C5.05527 0.819473 4.36603 1.50581 4.36603 2.39805Z" fill="white"/>
<path d="M14.8771 11.4578C14.8771 12.1785 15.4974 12.7619 16.1867 12.7276C16.9104 12.6932 17.4617 12.1098 17.4617 11.3892C17.4273 10.7029 16.8759 10.1195 16.1522 10.1538C15.4285 10.1538 14.8771 10.7372 14.8771 11.4578Z" fill="white"/>
<path d="M20.6667 5.24625C20.6667 5.82963 21.1492 6.31007 21.7695 6.31007C22.3554 6.31007 22.8379 5.82963 22.8379 5.21193C22.8379 4.62854 22.3209 4.11379 21.7351 4.14811C21.1492 4.18242 20.6667 4.66286 20.6667 5.24625Z" fill="white"/>
<path d="M17.0137 2.43232C17.0137 2.91276 17.4273 3.29024 17.9442 3.29024C18.4267 3.29024 18.8402 2.87844 18.8402 2.398C18.8402 1.91757 18.3577 1.47145 17.8753 1.50577C17.3928 1.50577 17.0137 1.95188 17.0137 2.43232Z" fill="white"/>
<path d="M25.2157 3.08424C25.5948 3.08424 25.9394 2.74107 25.9049 2.36358C25.9049 1.9861 25.5603 1.67725 25.2157 1.67725C24.8366 1.67725 24.492 2.02041 24.5264 2.3979C24.5264 2.77539 24.8366 3.08424 25.2157 3.08424Z" fill="white"/>
<path d="M25.2157 5.93238C25.5948 5.93238 25.9394 5.58921 25.9049 5.21173C25.9049 4.83424 25.5603 4.52539 25.2157 4.52539C24.8366 4.52539 24.492 4.86856 24.5264 5.24604C24.5264 5.62353 24.8366 5.93238 25.2157 5.93238Z" fill="white"/>
<path d="M21.7695 3.08424C22.1486 3.08424 22.4932 2.74107 22.4588 2.36358C22.4588 1.9861 22.1141 1.67725 21.7695 1.67725C21.3904 1.67725 21.0458 2.02041 21.0803 2.3979C21.0458 2.77539 21.3904 3.08424 21.7695 3.08424Z" fill="white"/>
<path d="M25.2157 13.791C24.8366 13.791 24.5265 14.0999 24.5265 14.4774C24.5265 14.8548 24.8711 15.198 25.2502 15.1637C25.6293 15.1637 25.9394 14.8205 25.9394 14.443C25.905 14.0999 25.5948 13.791 25.2157 13.791Z" fill="white"/>
<path d="M20.3221 13.791C19.943 13.791 19.6328 14.0999 19.6328 14.4774C19.6328 14.8548 19.9774 15.198 20.3565 15.1637C20.7356 15.1637 21.0457 14.8205 21.0457 14.443C21.0113 14.0999 20.7011 13.791 20.3221 13.791Z" fill="white"/>
<path d="M16.1521 13.791C15.7731 13.791 15.4629 14.0999 15.4629 14.4774C15.4629 14.8548 15.8075 15.198 16.1866 15.1637C16.5657 15.1637 16.8759 14.8205 16.8759 14.443C16.8759 14.0999 16.5312 13.791 16.1521 13.791Z" fill="white"/>
<path d="M16.1521 16.2964C15.7731 16.2964 15.4629 16.6052 15.4629 16.9827C15.4629 17.3602 15.8075 17.7034 16.1866 17.6691C16.5657 17.6691 16.8759 17.3259 16.8759 16.9484C16.8759 16.6052 16.5312 16.2964 16.1521 16.2964Z" fill="white"/>
<path d="M11.5686 13.791C11.1896 13.791 10.8794 14.0999 10.8794 14.4774C10.8794 14.8548 11.224 15.198 11.6031 15.1637C11.9822 15.1637 12.2923 14.8205 12.2923 14.443C12.2923 14.0999 11.9822 13.791 11.5686 13.791Z" fill="white"/>
<path d="M6.15812 13.791C5.77904 13.791 5.46887 14.0999 5.46887 14.4774C5.46887 14.8548 5.81351 15.198 6.1926 15.1637C6.57169 15.1637 6.88185 14.8205 6.88185 14.443C6.88185 14.0999 6.53721 13.791 6.15812 13.791Z" fill="white"/>
<path d="M11.1896 15.6788C10.4315 15.0954 9.36311 15.2327 8.74279 15.9533L6.29598 19.0075L3.84914 15.9533C3.26328 15.1983 2.16049 15.0954 1.43678 15.6788C0.678611 16.2622 0.575228 17.3603 1.16109 18.1153L4.95194 22.8853C5.22764 23.2285 5.60674 23.4344 6.02028 23.503C6.02028 23.503 6.02028 23.503 6.05474 23.503C6.0892 23.503 6.12367 23.503 6.1926 23.503C6.22706 23.503 6.22704 23.503 6.2615 23.503C6.29597 23.503 6.33044 23.503 6.36491 23.503C6.39937 23.503 6.43383 23.503 6.46829 23.503C6.50275 23.503 6.50276 23.503 6.53722 23.503C6.57168 23.503 6.60613 23.503 6.67506 23.503H6.70953C7.12308 23.4344 7.50215 23.2285 7.77785 22.8853L11.5687 18.1153C12.0512 17.3603 11.9478 16.2965 11.1896 15.6788Z" fill="white"/>
<path d="M16.2211 20.4145C16.2211 20.7234 16.1866 20.895 16.1177 20.9979C16.0488 21.1009 15.9109 21.1352 15.6697 21.1352H13.085C12.9472 21.1352 12.8783 21.1352 12.8438 21.1695C12.8093 21.2038 12.8093 21.2724 12.8093 21.3411C12.8093 21.6499 12.9127 21.8902 13.085 22.0617C13.2918 22.2676 13.4986 22.3706 13.8087 22.3706C14.1189 22.3706 14.3946 22.199 14.7047 21.8902C14.9115 21.6499 15.1527 21.547 15.394 21.547C15.6007 21.547 15.7731 21.6156 15.9109 21.7186C16.0488 21.8215 16.1177 21.9931 16.1177 22.1647C16.1177 22.5765 15.8765 22.9197 15.4284 23.1942C14.9804 23.4687 14.429 23.606 13.8087 23.606C12.9816 23.606 12.2924 23.3658 11.8099 22.851C11.293 22.3363 11.0518 21.6842 11.0518 20.8263C11.0518 19.9684 11.293 19.2821 11.8099 18.7673C12.2924 18.2526 12.9472 17.978 13.7743 17.978C14.5324 17.978 15.1183 18.1839 15.5663 18.63C16.0143 19.1448 16.2211 19.7282 16.2211 20.4145ZM12.8782 19.8998C12.8782 19.9341 12.8783 19.9684 12.9127 20.0027C12.9472 20.037 13.0161 20.037 13.1195 20.037H14.2912C14.3946 20.037 14.4635 20.037 14.498 20.0027C14.5324 19.9684 14.5324 19.9341 14.5324 19.8655C14.5324 19.6939 14.4635 19.5223 14.2912 19.385C14.1189 19.2478 13.9466 19.1791 13.7053 19.1791C13.4296 19.1791 13.1884 19.2821 13.0161 19.5223C12.9127 19.6596 12.8782 19.7968 12.8782 19.8998Z" fill="white"/>
<path d="M19.047 18.5267V19.4532C19.1504 19.1101 19.2538 18.8355 19.3917 18.664C19.7018 18.2865 20.1498 18.0806 20.7012 18.0806C21.0803 18.0806 21.4249 18.2178 21.6662 18.4581C21.9419 18.6983 22.0797 19.0071 22.0797 19.3846C22.0797 19.6591 22.0108 19.8994 21.8385 20.1053C21.6662 20.2768 21.4594 20.3798 21.1837 20.3798C20.9769 20.3798 20.8046 20.3112 20.6668 20.1739C20.5289 20.0366 20.46 19.8994 20.46 19.6935C20.46 19.5905 20.4945 19.4532 20.5978 19.2817H20.5289C20.0464 19.2817 19.7363 19.5219 19.564 20.0366C19.4261 20.4484 19.3572 20.8945 19.3572 21.4093V21.8211C19.3572 22.0613 19.3917 22.2329 19.4261 22.3015C19.4606 22.3359 19.495 22.3702 19.564 22.3702C19.6329 22.3702 19.7018 22.3702 19.8397 22.3359C19.9431 22.3015 20.0464 22.3015 20.0809 22.3015C20.2188 22.3015 20.3566 22.3702 20.4945 22.4731C20.5978 22.5761 20.6668 22.7133 20.6668 22.8849C20.6668 23.0908 20.5978 23.2624 20.46 23.3997C20.3221 23.5369 20.1498 23.6056 19.943 23.6056C19.8397 23.6056 19.6329 23.5713 19.3572 23.5369C19.1849 23.5026 18.9437 23.5026 18.7024 23.5026C18.4267 23.5026 18.1855 23.5026 17.9787 23.5369C17.6341 23.5713 17.4273 23.6056 17.3584 23.6056C16.9104 23.6056 16.7036 23.3654 16.7036 22.8849C16.7036 22.5074 16.8759 22.3015 17.2205 22.3015C17.2895 22.3015 17.3239 22.3015 17.4273 22.3359C17.4962 22.3702 17.5652 22.3702 17.5996 22.3702C17.703 22.3702 17.7719 22.1643 17.7719 21.7868V20.0709C17.7719 19.6591 17.703 19.4532 17.5996 19.4532C17.5652 19.4532 17.5307 19.4532 17.4273 19.4876C17.3584 19.5219 17.2895 19.5219 17.255 19.5219C16.9104 19.5219 16.7381 19.316 16.7381 18.9385C16.7381 18.7326 16.807 18.561 16.9104 18.4237C17.0138 18.2865 17.1516 18.2178 17.3584 18.2178C17.4273 18.2178 17.5307 18.2178 17.6686 18.2522C17.8064 18.2865 17.9098 18.2865 18.0132 18.2865C18.0821 18.2865 18.2199 18.2865 18.3922 18.2522C18.5646 18.2178 18.6679 18.2178 18.7369 18.2178C18.9436 18.2178 19.047 18.3208 19.047 18.5267Z" fill="white"/>
<path d="M24.7677 19.6595V20.1057V20.7577L24.7333 21.4783C24.7333 21.7185 24.7333 21.8215 24.7333 21.7529C24.7333 22.1647 24.8711 22.3706 25.1468 22.3706C25.388 22.3706 25.5259 22.199 25.5259 21.8215C25.5259 21.7529 25.5259 21.7185 25.5259 21.6842V21.547C25.5259 21.5126 25.5259 21.4783 25.5259 21.444C25.5259 21.0665 25.7327 20.8606 26.1117 20.8606C26.5598 20.8606 26.7665 21.2038 26.7665 21.9244C26.7665 22.4735 26.5942 22.9196 26.2841 23.2285C25.9394 23.5373 25.4914 23.7089 24.9056 23.7089C23.7339 23.7089 23.148 23.0912 23.148 21.8901C23.148 21.6842 23.148 21.4097 23.1825 20.9979C23.1825 20.6204 23.2169 20.3116 23.2169 20.1057V19.7625C23.2169 19.5909 23.2169 19.4879 23.1825 19.4193C23.148 19.385 23.0791 19.3507 22.9412 19.3507H22.7689C22.6311 19.3507 22.5277 19.3164 22.4243 19.2134C22.3554 19.1105 22.2864 18.9732 22.2864 18.8016C22.2864 18.63 22.3209 18.4928 22.4243 18.3898C22.5277 18.2869 22.6311 18.2182 22.7345 18.2182H22.9412C23.1135 18.2182 23.2169 18.1839 23.2514 18.081C23.2859 18.0123 23.2858 17.9437 23.2858 17.8064V17.2917C23.2858 17.0514 23.3548 16.8799 23.4926 16.7769C23.6305 16.674 23.8717 16.6396 24.2163 16.6396C24.4576 16.6396 24.6299 16.674 24.7333 16.7426C24.8366 16.8112 24.8711 16.9828 24.8711 17.223V17.8064C24.8711 18.0123 24.9056 18.1496 24.94 18.1839C24.9745 18.2182 25.0779 18.2525 25.2502 18.2525H26.0084C26.4219 18.2525 26.6287 18.4584 26.6287 18.8359C26.6287 19.2134 26.4219 19.385 26.0428 19.385H25.1813C25.0434 19.385 24.94 19.4193 24.9056 19.4536C24.7677 19.4879 24.7677 19.5566 24.7677 19.6595Z" fill="white"/>
<path d="M13.2918 7.54562V7.85447V8.30059V8.78102C13.2918 8.95261 13.2918 9.02124 13.2918 8.98692C13.2918 9.26146 13.3952 9.39873 13.5675 9.39873C13.7399 9.39873 13.8432 9.26146 13.8432 9.02124C13.8432 8.98692 13.8432 8.95261 13.8432 8.91829V8.81534C13.8432 8.78102 13.8432 8.74671 13.8432 8.74671C13.8432 8.47217 13.9811 8.36922 14.2223 8.36922C14.5325 8.36922 14.6703 8.60944 14.6703 9.08987C14.6703 9.46736 14.567 9.77621 14.3257 9.98211C14.0845 10.188 13.7743 10.291 13.3608 10.291C12.5681 10.291 12.1546 9.87916 12.1546 9.02124C12.1546 8.88397 12.1546 8.67807 12.189 8.40354C12.189 8.129 12.2235 7.9231 12.2235 7.78583V7.54562C12.2235 7.40835 12.2235 7.33971 12.189 7.3054C12.1546 7.27108 12.1201 7.27108 12.0167 7.27108H11.9134C11.81 7.27108 11.741 7.23676 11.6721 7.16813C11.6032 7.0995 11.5687 6.99655 11.5687 6.8936C11.5687 6.79064 11.6032 6.68769 11.6721 6.61906C11.741 6.55043 11.81 6.51611 11.8789 6.51611H12.0167C12.1201 6.51611 12.1891 6.48179 12.2235 6.41316C12.2235 6.37884 12.258 6.31021 12.258 6.20726V5.86409C12.258 5.6925 12.2924 5.58955 12.3958 5.52092C12.4992 5.45229 12.6371 5.41797 12.8783 5.41797C13.0506 5.41797 13.154 5.45229 13.2229 5.4866C13.2918 5.52092 13.3263 5.62387 13.3263 5.79546V6.17294C13.3263 6.31021 13.3263 6.41316 13.3608 6.44747C13.3952 6.48179 13.4642 6.48179 13.5675 6.48179H14.0845C14.3602 6.48179 14.498 6.61906 14.498 6.8936C14.498 7.13381 14.3602 7.27108 14.119 7.27108H13.5331C13.4297 7.27108 13.3608 7.27108 13.3608 7.3054C13.3263 7.40835 13.2918 7.47698 13.2918 7.54562Z" fill="white"/>
<path d="M19.116 7.09938V7.64845C19.1849 7.44255 19.2538 7.27096 19.3227 7.16801C19.5295 6.9278 19.7708 6.79053 20.1498 6.79053C20.3911 6.79053 20.5978 6.85916 20.7701 7.03075C20.9425 7.20233 21.0114 7.37391 21.0114 7.61413C21.0114 7.78572 20.9425 7.9573 20.8391 8.06025C20.7357 8.1632 20.5978 8.23184 20.4255 8.23184C20.2877 8.23184 20.1843 8.19752 20.1154 8.12889C20.012 8.06025 19.9775 7.9573 19.9775 7.85435C19.9775 7.78572 20.012 7.71708 20.0464 7.61413H20.012C19.7018 7.61413 19.5295 7.78572 19.4261 8.09457C19.3572 8.33479 19.3227 8.64364 19.3227 8.95249V9.19271C19.3227 9.36429 19.3227 9.46724 19.3572 9.50156C19.3917 9.53588 19.3917 9.53588 19.4606 9.53588C19.4951 9.53588 19.564 9.53588 19.6329 9.50156C19.7018 9.46724 19.7708 9.46724 19.8052 9.46724C19.9086 9.46724 19.9775 9.50156 20.0464 9.5702C20.1154 9.63883 20.1498 9.70746 20.1498 9.81041C20.1498 9.94768 20.1154 10.0506 20.012 10.1193C19.9431 10.1879 19.8052 10.2565 19.7018 10.2565C19.6329 10.2565 19.5295 10.2565 19.3227 10.2222C19.2194 10.2222 19.0815 10.1879 18.9092 10.1879C18.7369 10.1879 18.599 10.1879 18.4612 10.2222C18.2544 10.2565 18.1166 10.2565 18.0821 10.2565C17.8064 10.2565 17.6686 10.1193 17.6686 9.81041C17.6686 9.5702 17.772 9.43293 17.9787 9.43293C18.0132 9.43293 18.0477 9.43293 18.0821 9.46724C18.1166 9.46724 18.151 9.50156 18.1855 9.50156C18.2544 9.50156 18.2889 9.36429 18.2889 9.12408V8.06025C18.2889 7.82003 18.2544 7.68277 18.1855 7.68277C18.1855 7.68277 18.1166 7.68277 18.0821 7.71708C18.0477 7.71708 17.9787 7.7514 17.9787 7.7514C17.772 7.7514 17.6686 7.61413 17.6686 7.37391C17.6686 7.23665 17.703 7.1337 17.772 7.06506C17.8409 6.99643 17.9443 6.9278 18.0477 6.9278C18.0821 6.9278 18.151 6.92779 18.22 6.96211C18.2889 6.99643 18.3578 6.99643 18.4612 6.99643C18.5301 6.99643 18.599 6.99643 18.7024 6.96211C18.8058 6.96211 18.8747 6.9278 18.9092 6.9278C19.047 6.89348 19.116 6.96211 19.116 7.09938Z" fill="white"/>
<path d="M26.0084 9.87886C25.7327 9.87886 25.5603 9.77591 25.4569 9.53569C25.2157 9.7416 24.94 9.87886 24.6299 9.87886C24.3542 9.87886 24.1474 9.81023 24.0095 9.67296C23.8372 9.5357 23.7683 9.36411 23.7683 9.12389C23.7683 8.78072 23.9062 8.54051 24.2163 8.43756C24.3542 8.40324 24.492 8.36892 24.6643 8.3346C24.9056 8.30029 25.0779 8.23165 25.1468 8.19734C25.2157 8.16302 25.2846 8.06007 25.2846 7.95712C25.2846 7.88849 25.2502 7.81985 25.1813 7.75122C25.1123 7.7169 25.0434 7.68259 24.94 7.68259C24.8366 7.68259 24.7677 7.7169 24.7677 7.78554C24.7677 7.81985 24.7677 7.81985 24.7677 7.85417V7.88849C24.7677 7.99144 24.7332 8.06007 24.6643 8.1287C24.5954 8.19734 24.492 8.23165 24.3542 8.23165C24.2163 8.23165 24.1129 8.19734 24.0095 8.09439C23.9061 8.02575 23.8717 7.9228 23.8717 7.78554C23.8717 7.61395 23.9751 7.47668 24.1474 7.37373C24.3542 7.27078 24.5954 7.20215 24.94 7.20215C25.2846 7.20215 25.5603 7.27078 25.7326 7.37373C25.9394 7.47668 26.0084 7.7169 26.0084 8.06007V9.08958C26.0084 9.19253 26.0428 9.26116 26.0773 9.26116C26.1117 9.26116 26.1462 9.26116 26.1462 9.26116H26.1807C26.2496 9.26116 26.3185 9.29548 26.3874 9.32979C26.4564 9.39843 26.4564 9.43274 26.4564 9.53569C26.4564 9.63865 26.4219 9.7416 26.3185 9.81023C26.284 9.84455 26.1462 9.87886 26.0084 9.87886ZM25.2502 8.81504V8.71209C25.2157 8.71209 25.0779 8.78072 24.8022 8.84936C24.6299 8.88367 24.5265 8.95231 24.5265 9.05526C24.5265 9.19253 24.6299 9.29548 24.8022 9.29548C25.1123 9.26116 25.2502 9.12389 25.2502 8.81504Z" fill="white"/>
<path d="M6.70956 7.81986C6.70956 7.99145 6.6751 8.12872 6.64064 8.19735C6.60617 8.26598 6.50279 8.3003 6.36494 8.3003H4.7452C4.67628 8.3003 4.60735 8.3003 4.60735 8.33462C4.57288 8.33462 4.57289 8.40325 4.57289 8.43757C4.57289 8.60915 4.64182 8.78074 4.7452 8.88369C4.84859 9.02095 5.0209 9.05527 5.19321 9.05527C5.36552 9.05527 5.57229 8.95232 5.7446 8.74642C5.88245 8.60915 6.02032 8.54052 6.19263 8.54052C6.33048 8.54052 6.43385 8.57484 6.50278 8.64347C6.5717 8.7121 6.64064 8.81505 6.64064 8.918C6.64064 9.15822 6.50278 9.39844 6.22708 9.57002C5.95138 9.74161 5.60676 9.84456 5.19321 9.84456C4.67628 9.84456 4.26274 9.67297 3.95257 9.36412C3.64241 9.05527 3.47009 8.64347 3.47009 8.0944C3.47009 7.57965 3.60794 7.13353 3.9181 6.82468C4.22826 6.48151 4.64181 6.34424 5.12428 6.34424C5.60676 6.34424 5.95138 6.48151 6.22708 6.75604C6.57171 7.03058 6.70956 7.37374 6.70956 7.81986ZM4.64182 7.51101C4.64182 7.54533 4.64181 7.54533 4.67628 7.57965C4.67628 7.61396 4.74521 7.61396 4.81413 7.61396H5.53784C5.60676 7.61396 5.64123 7.61396 5.67569 7.57965C5.67569 7.57965 5.71015 7.54533 5.71015 7.51101C5.71015 7.40806 5.67568 7.30511 5.57229 7.20216C5.4689 7.13353 5.36551 7.06489 5.22767 7.06489C5.05535 7.06489 4.91752 7.13353 4.81413 7.27079C4.67628 7.33943 4.64182 7.40806 4.64182 7.51101Z" fill="black"/>
</svg>
