<svg width="30" height="30" viewBox="0 0 30 30" fill="none" xmlns="http://www.w3.org/2000/svg">
<g clip-path="url(#clip0)">
<mask id="path-2-outside-1" maskUnits="userSpaceOnUse" x="-0.999969" y="5.26831" width="32" height="19" fill="black">
<rect fill="white" x="-0.999969" y="5.26831" width="32" height="19"/>
<path d="M28.1245 23.7692H24.3743C23.7975 23.7706 23.2523 23.5051 22.8975 23.0503L19.2412 18.3861C19.0771 18.1765 18.7983 18.0936 18.5463 18.1801C18.2945 18.2664 18.1249 18.5027 18.124 18.7689V20.6439C18.124 22.3707 16.4441 23.7692 14.3738 23.7692C13.5644 23.7766 12.7699 23.5516 12.0846 23.1208C6.83428 19.7611 3.27156 15.5188 0.177851 8.94043C-0.0947605 8.35996 -0.0517285 7.68038 0.291839 7.13882C0.635407 6.59725 1.2319 6.26902 1.87326 6.26834H5.62344C6.37375 6.26651 7.05287 6.71216 7.34997 7.40113L7.77182 8.38559C8.40929 9.86447 9.26512 11.2394 10.3112 12.464C10.3453 12.5006 10.3938 12.5208 10.4439 12.5187C10.4899 12.5231 10.5359 12.5077 10.57 12.4764C10.6044 12.4452 10.6238 12.4008 10.6236 12.3546V9.9091C9.76571 9.60262 9.25253 8.7239 9.40658 7.82618C9.56062 6.92846 10.3377 6.27131 11.2487 6.26834H16.2489C17.2844 6.26834 18.124 7.10791 18.124 8.14343V12.5187C18.1244 12.7977 18.3098 13.0426 18.5783 13.1189C18.8468 13.1951 19.1331 13.0841 19.2803 12.8467L22.7725 7.16674C23.1111 6.60618 23.7195 6.2649 24.3743 6.26834H28.1245C28.8174 6.26857 29.4535 6.65104 29.7789 7.26265C30.1044 7.87425 30.066 8.61563 29.6791 9.19038L25.7415 14.6515C25.5824 14.8706 25.5824 15.167 25.7415 15.386L29.648 20.8003C30.0582 21.3716 30.1143 22.1244 29.7931 22.7502C29.472 23.376 28.8277 23.7692 28.1245 23.7692ZM18.7491 16.8938C19.3259 16.8926 19.8709 17.1579 20.2256 17.6127L23.882 22.2769C24.0001 22.4291 24.1816 22.5186 24.3743 22.519H28.1245C28.3598 22.5199 28.5757 22.3883 28.6828 22.1789C28.7901 21.9692 28.7704 21.7174 28.6322 21.5268L24.7259 16.1126C24.2526 15.4572 24.2526 14.5726 24.7259 13.9172L28.6558 8.47166C28.7176 8.37323 28.7501 8.25947 28.7494 8.14343C28.7494 7.79826 28.4697 7.51832 28.1245 7.51832H24.3743C24.1576 7.51855 23.9566 7.63093 23.8431 7.81519L20.3506 13.4952C19.9134 14.2134 19.0514 14.5529 18.2418 14.3254C17.4322 14.0981 16.8733 13.3594 16.874 12.5187V8.14343C16.874 7.79826 16.594 7.51832 16.2489 7.51832H11.2487C10.9033 7.51832 10.6236 7.79826 10.6236 8.14343C10.6236 8.4886 10.9033 8.76853 11.2487 8.76853H11.8736V12.3546C11.8665 12.9477 11.4941 13.4748 10.9372 13.6797C10.3805 13.8843 9.75518 13.7238 9.3656 13.2766C8.23968 11.9579 7.3177 10.4779 6.63125 8.88572L6.20139 7.90126C6.10365 7.6687 5.87568 7.51763 5.62344 7.51832H1.87326C1.65993 7.51946 1.46194 7.62933 1.34795 7.8097C1.23396 7.99007 1.22 8.21598 1.31064 8.40917C4.33431 14.839 7.65463 18.8002 12.7642 22.0738C13.2483 22.3703 13.8061 22.5248 14.3738 22.519C15.7487 22.519 16.874 21.6753 16.874 20.6439V18.7689C16.874 17.7333 17.7133 16.8938 18.7491 16.8938V16.8938Z"/>
</mask>
<path d="M28.1245 23.7692H24.3743C23.7975 23.7706 23.2523 23.5051 22.8975 23.0503L19.2412 18.3861C19.0771 18.1765 18.7983 18.0936 18.5463 18.1801C18.2945 18.2664 18.1249 18.5027 18.124 18.7689V20.6439C18.124 22.3707 16.4441 23.7692 14.3738 23.7692C13.5644 23.7766 12.7699 23.5516 12.0846 23.1208C6.83428 19.7611 3.27156 15.5188 0.177851 8.94043C-0.0947605 8.35996 -0.0517285 7.68038 0.291839 7.13882C0.635407 6.59725 1.2319 6.26902 1.87326 6.26834H5.62344C6.37375 6.26651 7.05287 6.71216 7.34997 7.40113L7.77182 8.38559C8.40929 9.86447 9.26512 11.2394 10.3112 12.464C10.3453 12.5006 10.3938 12.5208 10.4439 12.5187C10.4899 12.5231 10.5359 12.5077 10.57 12.4764C10.6044 12.4452 10.6238 12.4008 10.6236 12.3546V9.9091C9.76571 9.60262 9.25253 8.7239 9.40658 7.82618C9.56062 6.92846 10.3377 6.27131 11.2487 6.26834H16.2489C17.2844 6.26834 18.124 7.10791 18.124 8.14343V12.5187C18.1244 12.7977 18.3098 13.0426 18.5783 13.1189C18.8468 13.1951 19.1331 13.0841 19.2803 12.8467L22.7725 7.16674C23.1111 6.60618 23.7195 6.2649 24.3743 6.26834H28.1245C28.8174 6.26857 29.4535 6.65104 29.7789 7.26265C30.1044 7.87425 30.066 8.61563 29.6791 9.19038L25.7415 14.6515C25.5824 14.8706 25.5824 15.167 25.7415 15.386L29.648 20.8003C30.0582 21.3716 30.1143 22.1244 29.7931 22.7502C29.472 23.376 28.8277 23.7692 28.1245 23.7692ZM18.7491 16.8938C19.3259 16.8926 19.8709 17.1579 20.2256 17.6127L23.882 22.2769C24.0001 22.4291 24.1816 22.5186 24.3743 22.519H28.1245C28.3598 22.5199 28.5757 22.3883 28.6828 22.1789C28.7901 21.9692 28.7704 21.7174 28.6322 21.5268L24.7259 16.1126C24.2526 15.4572 24.2526 14.5726 24.7259 13.9172L28.6558 8.47166C28.7176 8.37323 28.7501 8.25947 28.7494 8.14343C28.7494 7.79826 28.4697 7.51832 28.1245 7.51832H24.3743C24.1576 7.51855 23.9566 7.63093 23.8431 7.81519L20.3506 13.4952C19.9134 14.2134 19.0514 14.5529 18.2418 14.3254C17.4322 14.0981 16.8733 13.3594 16.874 12.5187V8.14343C16.874 7.79826 16.594 7.51832 16.2489 7.51832H11.2487C10.9033 7.51832 10.6236 7.79826 10.6236 8.14343C10.6236 8.4886 10.9033 8.76853 11.2487 8.76853H11.8736V12.3546C11.8665 12.9477 11.4941 13.4748 10.9372 13.6797C10.3805 13.8843 9.75518 13.7238 9.3656 13.2766C8.23968 11.9579 7.3177 10.4779 6.63125 8.88572L6.20139 7.90126C6.10365 7.6687 5.87568 7.51763 5.62344 7.51832H1.87326C1.65993 7.51946 1.46194 7.62933 1.34795 7.8097C1.23396 7.99007 1.22 8.21598 1.31064 8.40917C4.33431 14.839 7.65463 18.8002 12.7642 22.0738C13.2483 22.3703 13.8061 22.5248 14.3738 22.519C15.7487 22.519 16.874 21.6753 16.874 20.6439V18.7689C16.874 17.7333 17.7133 16.8938 18.7491 16.8938V16.8938Z" fill="white"/>
<path d="M24.3743 23.7692L24.3743 23.6692L24.3741 23.6692L24.3743 23.7692ZM22.8975 23.0503L22.9764 22.9888L22.9762 22.9886L22.8975 23.0503ZM19.2412 18.3861L19.1624 18.4478L19.1625 18.4478L19.2412 18.3861ZM18.5463 18.1801L18.5787 18.2747L18.5787 18.2747L18.5463 18.1801ZM18.124 18.7689L18.024 18.7685V18.7689H18.124ZM14.3738 23.7692V23.6692L14.3729 23.6692L14.3738 23.7692ZM12.0846 23.1208L12.0307 23.205L12.0314 23.2055L12.0846 23.1208ZM0.177851 8.94043L0.0873357 8.98294L0.0873583 8.98299L0.177851 8.94043ZM1.87326 6.26834L1.87326 6.16834L1.87315 6.16834L1.87326 6.26834ZM5.62344 6.26834L5.62344 6.36834L5.62368 6.36834L5.62344 6.26834ZM7.34997 7.40113L7.44189 7.36174L7.4418 7.36153L7.34997 7.40113ZM7.77182 8.38559L7.67991 8.42498L7.67999 8.42518L7.77182 8.38559ZM10.3112 12.464L10.2351 12.529L10.238 12.5322L10.3112 12.464ZM10.4439 12.5187L10.4534 12.4182L10.4398 12.4188L10.4439 12.5187ZM10.57 12.4764L10.5029 12.4023L10.5024 12.4028L10.57 12.4764ZM10.6236 12.3546H10.5236L10.5236 12.3551L10.6236 12.3546ZM10.6236 9.9091H10.7236V9.83864L10.6572 9.81493L10.6236 9.9091ZM9.40658 7.82618L9.50514 7.84309L9.40658 7.82618ZM11.2487 6.26834L11.2487 6.16834L11.2484 6.16834L11.2487 6.26834ZM18.124 12.5187L18.024 12.5187L18.024 12.5189L18.124 12.5187ZM18.5783 13.1189L18.551 13.2151L18.551 13.2151L18.5783 13.1189ZM19.2803 12.8467L19.3653 12.8994L19.3655 12.8991L19.2803 12.8467ZM22.7725 7.16674L22.8577 7.21912L22.8581 7.21844L22.7725 7.16674ZM24.3743 6.26834L24.3738 6.36834H24.3743V6.26834ZM28.1245 6.26834L28.1245 6.16834H28.1245V6.26834ZM29.6791 9.19038L29.7603 9.2489L29.7621 9.24622L29.6791 9.19038ZM25.7415 14.6515L25.8224 14.7103L25.8226 14.71L25.7415 14.6515ZM25.7415 15.386L25.8226 15.3275L25.8224 15.3273L25.7415 15.386ZM29.648 20.8003L29.7292 20.742L29.7291 20.7418L29.648 20.8003ZM29.7931 22.7502L29.7042 22.7046L29.7042 22.7046L29.7931 22.7502ZM20.2256 17.6127L20.1468 17.6742L20.1469 17.6744L20.2256 17.6127ZM23.882 22.2769L23.961 22.2156L23.9607 22.2152L23.882 22.2769ZM24.3743 22.519L24.3741 22.619H24.3743V22.519ZM28.1245 22.519L28.1249 22.419H28.1245V22.519ZM28.6828 22.1789L28.5938 22.1333L28.5937 22.1334L28.6828 22.1789ZM28.6322 21.5268L28.5511 21.5853L28.5512 21.5855L28.6322 21.5268ZM24.7259 16.1126L24.807 16.054L24.807 16.054L24.7259 16.1126ZM24.7259 13.9172L24.807 13.9758L24.807 13.9758L24.7259 13.9172ZM28.6558 8.47166L28.737 8.5303L28.7405 8.52483L28.6558 8.47166ZM28.7494 8.14343L28.6494 8.14343L28.6494 8.14402L28.7494 8.14343ZM24.3743 7.51832L24.3743 7.41832L24.3742 7.41832L24.3743 7.51832ZM23.8431 7.81519L23.7579 7.76274L23.7579 7.76282L23.8431 7.81519ZM20.3506 13.4952L20.2654 13.4428L20.2652 13.4432L20.3506 13.4952ZM18.2418 14.3254L18.2689 14.2291L18.2689 14.2291L18.2418 14.3254ZM16.874 12.5187L16.974 12.5188V12.5187H16.874ZM11.8736 8.76853H11.9736V8.66853H11.8736V8.76853ZM11.8736 12.3546L11.9736 12.3558V12.3546H11.8736ZM10.9372 13.6797L10.9717 13.7735L10.9717 13.7735L10.9372 13.6797ZM9.3656 13.2766L9.28955 13.3415L9.2902 13.3423L9.3656 13.2766ZM6.63125 8.88572L6.72308 8.84613L6.7229 8.84571L6.63125 8.88572ZM6.20139 7.90126L6.10919 7.94001L6.10975 7.94127L6.20139 7.90126ZM5.62344 7.51832L5.62344 7.61832L5.62371 7.61832L5.62344 7.51832ZM1.87326 7.51832L1.87326 7.41832L1.87272 7.41832L1.87326 7.51832ZM1.34795 7.8097L1.26342 7.75628L1.26342 7.75628L1.34795 7.8097ZM1.31064 8.40917L1.22011 8.45165L1.22015 8.45172L1.31064 8.40917ZM12.7642 22.0738L12.7102 22.1581L12.712 22.1591L12.7642 22.0738ZM14.3738 22.519L14.3738 22.419L14.3728 22.419L14.3738 22.519ZM28.1245 23.6692H24.3743V23.8692H28.1245V23.6692ZM24.3741 23.6692C23.8282 23.6705 23.3122 23.4192 22.9764 22.9888L22.8187 23.1118C23.1924 23.591 23.7668 23.8707 24.3746 23.8692L24.3741 23.6692ZM22.9762 22.9886L19.3199 18.3245L19.1625 18.4478L22.8188 23.112L22.9762 22.9886ZM19.3199 18.3245C19.1296 18.0813 18.8062 17.9852 18.5138 18.0856L18.5787 18.2747C18.7904 18.2021 19.0245 18.2716 19.1624 18.4478L19.3199 18.3245ZM18.5138 18.0855C18.2218 18.1856 18.025 18.4596 18.024 18.7685L18.224 18.7692C18.2247 18.5457 18.3671 18.3472 18.5787 18.2747L18.5138 18.0855ZM18.024 18.7689V20.6439H18.224V18.7689H18.024ZM18.024 20.6439C18.024 22.2992 16.4068 23.6692 14.3738 23.6692V23.8692C16.4815 23.8692 18.224 22.4423 18.224 20.6439H18.024ZM14.3729 23.6692C13.5826 23.6764 12.8069 23.4567 12.1378 23.0361L12.0314 23.2055C12.7329 23.6464 13.5462 23.8767 14.3747 23.8692L14.3729 23.6692ZM12.1385 23.0366C6.90654 19.6886 3.35539 15.4621 0.268343 8.89787L0.0873583 8.98299C3.18774 15.5755 6.76201 19.8336 12.0307 23.205L12.1385 23.0366ZM0.268366 8.89792C0.0102976 8.34842 0.0510289 7.70507 0.37628 7.19238L0.207398 7.08525C-0.154486 7.65568 -0.199819 8.3715 0.0873357 8.98294L0.268366 8.89792ZM0.37628 7.19238C0.701517 6.67972 1.26619 6.36899 1.87337 6.36834L1.87315 6.16834C1.19761 6.16906 0.569298 6.51479 0.207398 7.08525L0.37628 7.19238ZM1.87326 6.36834H5.62344V6.16834H1.87326V6.36834ZM5.62368 6.36834C6.33397 6.3666 6.97688 6.78849 7.25815 7.44072L7.4418 7.36153C7.12886 6.63583 6.41352 6.16641 5.62319 6.16834L5.62368 6.36834ZM7.25806 7.44051L7.67991 8.42498L7.86374 8.34621L7.44189 7.36174L7.25806 7.44051ZM7.67999 8.42518C8.32142 9.91324 9.18257 11.2968 10.2351 12.529L10.3872 12.3991C9.34767 11.1821 8.49716 9.8157 7.86366 8.34601L7.67999 8.42518ZM10.238 12.5322C10.2918 12.59 10.3685 12.6219 10.448 12.6186L10.4398 12.4188C10.4191 12.4196 10.3987 12.4113 10.3843 12.3959L10.238 12.5322ZM10.4345 12.6183C10.5085 12.6253 10.5826 12.6006 10.6377 12.55L10.5024 12.4028C10.4892 12.4148 10.4713 12.4209 10.4533 12.4192L10.4345 12.6183ZM10.6372 12.5504C10.6926 12.5002 10.724 12.4286 10.7236 12.3541L10.5236 12.3551C10.5237 12.373 10.5161 12.3903 10.5029 12.4023L10.6372 12.5504ZM10.7236 12.3546V9.9091H10.5236V12.3546H10.7236ZM10.6572 9.81493C9.84512 9.5248 9.3593 8.69295 9.50514 7.84309L9.30802 7.80927C9.14576 8.75484 9.68629 9.68043 10.59 10.0033L10.6572 9.81493ZM9.50514 7.84309C9.65096 6.99327 10.3866 6.37115 11.249 6.36834L11.2484 6.16834C10.2888 6.17147 9.47028 6.86366 9.30802 7.80927L9.50514 7.84309ZM11.2487 6.36834H16.2489V6.16834H11.2487V6.36834ZM16.2489 6.36834C17.2291 6.36834 18.024 7.16314 18.024 8.14343H18.224C18.224 7.05269 17.3396 6.16834 16.2489 6.16834V6.36834ZM18.024 8.14343V12.5187H18.224V8.14343H18.024ZM18.024 12.5189C18.0245 12.8426 18.2396 13.1267 18.551 13.2151L18.6056 13.0227C18.3801 12.9586 18.2243 12.7529 18.224 12.5185L18.024 12.5189ZM18.551 13.2151C18.8625 13.3035 19.1946 13.1747 19.3653 12.8994L19.1953 12.794C19.0717 12.9935 18.8311 13.0867 18.6056 13.0227L18.551 13.2151ZM19.3655 12.8991L22.8577 7.21912L22.6874 7.11436L19.1951 12.7943L19.3655 12.8991ZM22.8581 7.21844C23.1785 6.68801 23.7542 6.36509 24.3738 6.36833L24.3749 6.16834C23.6848 6.16472 23.0437 6.52435 22.6869 7.11504L22.8581 7.21844ZM24.3743 6.36834H28.1245V6.16834H24.3743V6.36834ZM28.1245 6.36834C28.7804 6.36855 29.3825 6.73062 29.6907 7.30963L29.8672 7.21567C29.5244 6.57147 28.8544 6.16858 28.1245 6.16834L28.1245 6.36834ZM29.6907 7.30963C29.9988 7.88859 29.9624 8.59044 29.5962 9.13455L29.7621 9.24622C30.1696 8.64082 30.2101 7.8599 29.8672 7.21567L29.6907 7.30963ZM29.598 9.1319L25.6604 14.593L25.8226 14.71L29.7603 9.24887L29.598 9.1319ZM25.6606 14.5928C25.4761 14.8469 25.4761 15.1907 25.6606 15.4448L25.8224 15.3273C25.6888 15.1433 25.6888 14.8943 25.8224 14.7103L25.6606 14.5928ZM25.6604 15.4446L29.5669 20.8588L29.7291 20.7418L25.8226 15.3275L25.6604 15.4446ZM29.5668 20.8586C29.9551 21.3995 30.0082 22.1121 29.7042 22.7046L29.8821 22.7959C30.2204 22.1367 30.1613 21.3437 29.7292 20.742L29.5668 20.8586ZM29.7042 22.7046C29.4002 23.297 28.7902 23.6692 28.1245 23.6692V23.8692C28.8651 23.8692 29.5438 23.455 29.8821 22.7959L29.7042 22.7046ZM18.7493 16.9938C19.2952 16.9927 19.811 17.2438 20.1468 17.6742L20.3045 17.5512C19.9307 17.072 19.3565 16.7926 18.7489 16.7938L18.7493 16.9938ZM20.1469 17.6744L23.8033 22.3386L23.9607 22.2152L20.3043 17.551L20.1469 17.6744ZM23.803 22.3382C23.9399 22.5146 24.1504 22.6185 24.3741 22.619L24.3746 22.419C24.2128 22.4186 24.0603 22.3435 23.961 22.2156L23.803 22.3382ZM24.3743 22.619H28.1245V22.419H24.3743V22.619ZM28.1241 22.619C28.3971 22.6201 28.6475 22.4674 28.7718 22.2244L28.5937 22.1334C28.5038 22.3093 28.3225 22.4198 28.1249 22.419L28.1241 22.619ZM28.7718 22.2245C28.8963 21.9812 28.8734 21.6892 28.7131 21.4681L28.5512 21.5855C28.6674 21.7457 28.6839 21.9572 28.5938 22.1333L28.7718 22.2245ZM28.7133 21.4683L24.807 16.054L24.6448 16.1711L28.5511 21.5853L28.7133 21.4683ZM24.807 16.054C24.3589 15.4336 24.3589 14.5962 24.807 13.9758L24.6448 13.8587C24.1462 14.549 24.1462 15.4808 24.6448 16.1711L24.807 16.054ZM24.807 13.9758L28.7369 8.53018L28.5747 8.41314L24.6448 13.8587L24.807 13.9758ZM28.7405 8.52483C28.8123 8.41037 28.8502 8.27798 28.8494 8.14283L28.6494 8.14402C28.65 8.24097 28.6228 8.33609 28.5711 8.41848L28.7405 8.52483ZM28.8494 8.14343C28.8494 7.74307 28.525 7.41832 28.1245 7.41832V7.61832C28.4144 7.61832 28.6494 7.85344 28.6494 8.14343H28.8494ZM28.1245 7.41832H24.3743V7.61832H28.1245V7.41832ZM24.3742 7.41832C24.1228 7.41858 23.8897 7.54894 23.7579 7.76274L23.9282 7.86765C24.0235 7.71293 24.1923 7.61851 24.3744 7.61832L24.3742 7.41832ZM23.7579 7.76282L20.2654 13.4428L20.4358 13.5475L23.9283 7.86757L23.7579 7.76282ZM20.2652 13.4432C19.8513 14.1231 19.0353 14.4445 18.2689 14.2291L18.2148 14.4216C19.0676 14.6613 19.9755 14.3037 20.436 13.5472L20.2652 13.4432ZM18.2689 14.2291C17.5025 14.0139 16.9733 13.3147 16.974 12.5188L16.774 12.5186C16.7732 13.4042 17.362 14.1822 18.2148 14.4216L18.2689 14.2291ZM16.974 12.5187V8.14343H16.774V12.5187H16.974ZM16.974 8.14343C16.974 7.74303 16.6493 7.41832 16.2489 7.41832V7.61832C16.5388 7.61832 16.774 7.85348 16.774 8.14343H16.974ZM16.2489 7.41832H11.2487V7.61832H16.2489V7.41832ZM11.2487 7.41832C10.8481 7.41832 10.5236 7.74305 10.5236 8.14343H10.7236C10.7236 7.85346 10.9586 7.61832 11.2487 7.61832V7.41832ZM10.5236 8.14343C10.5236 8.5438 10.8481 8.86853 11.2487 8.86853V8.66853C10.9586 8.66853 10.7236 8.43339 10.7236 8.14343H10.5236ZM11.2487 8.86853H11.8736V8.66853H11.2487V8.86853ZM11.7736 8.76853V12.3546H11.9736V8.76853H11.7736ZM11.7736 12.3534C11.767 12.905 11.4206 13.3953 10.9027 13.5858L10.9717 13.7735C11.5675 13.5543 11.966 12.9903 11.9736 12.3558L11.7736 12.3534ZM10.9027 13.5858C10.385 13.7761 9.80335 13.6269 9.44101 13.2109L9.2902 13.3423C9.70701 13.8208 10.3761 13.9925 10.9717 13.7735L10.9027 13.5858ZM9.44165 13.2116C8.32222 11.9006 7.40556 10.4291 6.72308 8.84613L6.53942 8.92532C7.22984 10.5267 8.15714 12.0153 9.28955 13.3415L9.44165 13.2116ZM6.7229 8.84571L6.29304 7.86124L6.10975 7.94127L6.53961 8.92574L6.7229 8.84571ZM6.29358 7.86251C6.18021 7.59276 5.91577 7.41752 5.62316 7.41832L5.62371 7.61832C5.83558 7.61774 6.0271 7.74464 6.1092 7.94L6.29358 7.86251ZM5.62344 7.41832H1.87326V7.61832H5.62344V7.41832ZM1.87272 7.41832C1.62525 7.41965 1.39561 7.5471 1.26342 7.75628L1.43248 7.86312C1.52827 7.71156 1.69461 7.61928 1.8738 7.61832L1.87272 7.41832ZM1.26342 7.75628C1.13116 7.96555 1.115 8.22762 1.22011 8.45165L1.40117 8.36669C1.325 8.20435 1.33676 8.01459 1.43248 7.86312L1.26342 7.75628ZM1.22015 8.45172C4.25044 14.8956 7.58228 18.8726 12.7103 22.158L12.8181 21.9896C7.72699 18.7278 4.41818 14.7824 1.40113 8.36661L1.22015 8.45172ZM12.712 22.1591C13.2121 22.4653 13.7883 22.6249 14.3748 22.619L14.3728 22.419C13.8239 22.4246 13.2846 22.2752 12.8164 21.9886L12.712 22.1591ZM14.3738 22.619C15.081 22.619 15.7275 22.4022 16.1995 22.0483C16.6714 21.6944 16.974 21.1984 16.974 20.6439H16.774C16.774 21.1208 16.514 21.5624 16.0795 21.8883C15.6451 22.214 15.0415 22.419 14.3738 22.419V22.619ZM16.974 20.6439V18.7689H16.774V20.6439H16.974ZM16.974 18.7689C16.974 17.7886 17.7686 16.9938 18.7491 16.9938V16.7938C17.6581 16.7938 16.774 17.6781 16.774 18.7689H16.974Z" fill="white" mask="url(#path-2-outside-1)"/>
</g>
<defs>
<clipPath id="clip0">
<rect width="30" height="30" fill="white"/>
</clipPath>
</defs>
</svg>
