<svg width="21" height="21" viewBox="0 0 21 21" fill="none" xmlns="http://www.w3.org/2000/svg">
<path d="M10.5 21C7.69535 21 5.05858 19.9078 3.07535 17.9246C1.09221 15.9414 0 13.3046 0 10.5C0 7.69535 1.09221 5.05858 3.07535 3.07535C5.05858 1.09221 7.69535 0 10.5 0C13.3046 0 15.9414 1.09221 17.9246 3.07535C19.9078 5.05858 21 7.69535 21 10.5C21 13.3046 19.9078 15.9414 17.9246 17.9246C15.9414 19.9078 13.3046 21 10.5 21ZM10.5 1.23047C8.02401 1.23047 5.69625 2.19466 3.94546 3.94546C2.19466 5.69625 1.23047 8.02401 1.23047 10.5C1.23047 12.976 2.19466 15.3038 3.94546 17.0545C5.69625 18.8053 8.02401 19.7695 10.5 19.7695C12.976 19.7695 15.3038 18.8053 17.0545 17.0545C18.8053 15.3038 19.7695 12.976 19.7695 10.5C19.7695 8.02401 18.8053 5.69625 17.0545 3.94546C15.3038 2.19466 12.976 1.23047 10.5 1.23047Z" fill="white"/>
<path d="M9.88477 2.4624H11.1152V4.10434H9.88477V2.4624Z" fill="white"/>
<path d="M14.5853 5.54358L15.7461 4.38273L16.6161 5.25267L15.4552 6.41352L14.5853 5.54358Z" fill="white"/>
<path d="M16.8956 9.88477H18.5376V11.1152H16.8956V9.88477Z" fill="white"/>
<path d="M14.5842 15.4575L15.4541 14.5875L16.615 15.7484L15.745 16.6183L14.5842 15.4575Z" fill="white"/>
<path d="M9.88477 16.8956H11.1152V18.5376H9.88477V16.8956Z" fill="white"/>
<path d="M4.37943 15.7473L5.54028 14.5864L6.41022 15.4563L5.24937 16.6172L4.37943 15.7473Z" fill="white"/>
<path d="M2.46241 9.88477H4.10435V11.1152H2.46241V9.88477Z" fill="white"/>
<path d="M4.38052 5.25165L5.25046 4.38171L6.41131 5.54256L5.54136 6.4125L4.38052 5.25165Z" fill="white"/>
<path d="M14.8432 11.1153H9.88477V6.1568H11.1152V9.88479H14.8432V11.1153Z" fill="white"/>
</svg>
