<svg width="39" height="39" viewBox="0 0 39 39" fill="none" xmlns="http://www.w3.org/2000/svg">
<g clip-path="url(#clip0)">
<path d="M3.2531 34.4807C4.27061 34.4781 5.22744 33.9964 5.83616 33.1809H22.1185C22.7249 33.9988 23.6832 34.481 24.7013 34.481C25.7194 34.481 26.6774 33.9988 27.2841 33.1809H37.7003C38.4182 33.1809 39.0001 32.5989 39.0001 31.881V29.9314C38.9972 29.3723 38.6375 28.8776 38.1064 28.7029C37.7449 28.1647 36.7363 26.8982 34.2068 24.8741C30.9115 22.2378 23.9194 19.6791 23.6237 19.5711C23.3863 19.4848 23.1203 19.5441 22.9418 19.7226C22.2024 20.4128 21.7532 21.3586 21.6857 22.3678L20.7937 21.3351L21.9513 19.9481C22.181 19.6723 22.1435 19.262 21.8674 19.0323C21.5916 18.8026 21.1814 18.8401 20.9517 19.1162L18.623 21.9064C18.3061 21.7005 17.9363 21.5913 17.5585 21.5925H17.49L13.3747 21.7368C13.2028 21.7409 13.0356 21.6782 12.9088 21.5618L11.0526 19.8294V19.4021C11.4539 19.2177 11.7321 18.8392 11.7875 18.4007C11.9454 17.2118 12.0261 15.0072 10.7893 13.5942C10.7738 13.5761 10.7563 13.5618 10.7399 13.5443L10.7256 13.5294C9.96247 12.7433 8.89675 12.3253 7.80277 12.3827C6.56747 12.2831 5.35627 12.7636 4.52499 13.6826C3.47415 14.9825 3.71782 16.809 3.87521 17.542C3.93085 17.7807 4.05224 17.9987 4.22539 18.1719L5.20304 19.1525C5.38126 19.3298 5.60707 19.4515 5.85283 19.503V24.0818H3.90318C3.18526 24.0818 2.60331 24.6638 2.60331 25.3817V28.0466C0.966952 28.3786 -0.151128 29.8966 0.0166732 31.5579C0.184474 33.219 1.58371 34.4825 3.2531 34.4807ZM6.43775 31.881C6.62578 30.9682 6.40621 30.0191 5.83676 29.2813H11.9904C12.5655 29.2804 13.14 29.2477 13.7115 29.184C13.7344 29.1837 13.7573 29.1825 13.7802 29.1798C15.4065 28.9793 17.0571 29.2161 18.5614 29.8662C19.4792 30.2586 20.2198 30.9763 20.6411 31.881H6.43775ZM7.15269 21.5282L8.34099 22.6377C8.18211 22.5895 8.01699 22.5651 7.85097 22.5654C7.61028 22.5683 7.37286 22.6198 7.15269 22.7168V21.5282ZM13.4339 25.6417L19.6682 27.0169C20.0088 27.0921 20.3233 27.2576 20.578 27.4959L21.0234 27.9112C20.3858 28.3194 19.858 28.6348 19.4459 28.8707C19.3463 28.8148 19.2507 28.7574 19.1425 28.7035C17.4847 27.9541 15.6549 27.6666 13.8472 27.8716C12.1849 26.9562 10.7905 25.6227 9.80122 24.0033L11.0318 25.1508C11.3915 25.4882 11.8663 25.6753 12.3596 25.6747H12.4322L13.4339 25.6417ZM22.2822 29.0864C21.8671 29.5523 21.5961 30.1286 21.5024 30.7457C21.2563 30.3556 20.957 30.0019 20.6131 29.6948C21.0109 29.4574 21.4768 29.1676 22.0034 28.8258L22.2822 29.0864ZM8.45285 27.9814H8.3877C7.704 26.8627 7.2836 25.6033 7.15805 24.2981C7.32674 24.0723 7.57398 23.9179 7.85097 23.8652C8.12201 23.8652 8.39216 24.197 8.54122 24.4139C9.32459 25.7997 10.3793 27.013 11.6426 27.9814H8.45285ZM24.7013 33.1809C23.6243 33.1809 22.7514 32.308 22.7514 31.2312C22.7514 30.1542 23.6243 29.2813 24.7013 29.2813C25.778 29.2813 26.651 30.1542 26.651 31.2312C26.651 32.308 25.778 33.1809 24.7013 33.1809ZM37.7003 31.881H27.886C28.0811 30.9248 27.8363 29.9317 27.2189 29.1757C26.6016 28.4197 25.6772 27.9811 24.7013 27.9814C24.217 27.9841 23.7394 28.0963 23.3045 28.3096C23.2762 28.2534 23.2393 28.2016 23.1953 28.1564L23.0477 28.0186C23.6139 27.3795 24.0233 26.6173 24.2437 25.7926C24.3178 25.5495 24.3827 25.2945 24.4386 25.0327C25.2187 25.2178 26.2942 25.515 27.7444 25.9985C28.9142 26.3885 29.6878 26.9505 29.9737 27.6232C30.154 28.0623 30.1519 28.5553 29.9677 28.9927C29.8678 29.1944 29.8794 29.4333 29.9981 29.6243C30.1168 29.8153 30.3259 29.9314 30.5509 29.9314H37.7003V31.881ZM23.5865 20.946C25.136 21.5359 30.7035 23.7367 33.3943 25.8893C34.4647 26.7205 35.4653 27.6375 36.3867 28.6315H31.3872C31.4467 28.1251 31.3765 27.6122 31.1831 27.1403C30.7478 26.0883 29.7285 25.2895 28.1564 24.7649C26.8072 24.2972 25.4308 23.9119 24.0352 23.6112L24.0274 23.6079H24.0221C23.6496 23.5332 23.3586 23.4871 23.1584 23.463C22.799 22.6121 22.9659 21.63 23.5865 20.946ZM22.8814 25.7405C22.7154 26.2522 22.4482 26.725 22.0956 27.1314L21.4652 26.5432C21.0403 26.1451 20.5161 25.869 19.9475 25.7444L18.2252 25.3641C19.0169 25.0818 19.5337 24.3184 19.5019 23.4788C19.4947 23.311 19.4659 23.1449 19.4165 22.9846L19.9496 22.3464L22.8814 25.7405ZM13.4208 23.036L17.5585 22.8923C17.9173 22.8876 18.2124 23.1747 18.2172 23.5335C18.2219 23.8926 17.9348 24.1874 17.576 24.1922L14.5922 24.2969H14.583L12.387 24.3737C12.2147 24.3782 12.0475 24.3157 11.9202 24.1993L7.89768 20.4423C7.77094 20.3244 7.69626 20.1614 7.69031 19.9888C7.68406 19.816 7.74714 19.6479 7.86525 19.5217C7.98307 19.3947 8.147 19.32 8.32016 19.3144H8.34366C8.50849 19.3147 8.66707 19.3771 8.78756 19.4899L12.0228 22.5097C12.4024 22.8608 12.9041 23.0497 13.4208 23.036ZM10.0419 14.7876C10.2621 15.1646 10.4105 15.5787 10.4805 16.0095L8.61709 15.7429C8.5311 15.731 8.46386 15.6626 8.45345 15.5763C8.44333 15.49 8.49272 15.4076 8.57365 15.3758L10.0419 14.7876ZM5.14324 17.2659C5.05339 16.8414 4.81835 15.3874 5.53329 14.5011C6.12535 13.8965 6.96109 13.5954 7.80277 13.6826C8.17021 13.6781 8.53586 13.7347 8.88485 13.8498L8.09077 14.1676C7.46449 14.4187 7.08486 15.0592 7.16519 15.7293C7.24552 16.399 7.76588 16.9315 8.43381 17.0273L10.5688 17.3329C10.5584 17.6923 10.5292 18.01 10.5001 18.2311H9.21183C8.92145 18.0832 8.59894 18.0094 8.27345 18.0166C7.99051 18.0279 7.71381 18.1011 7.46211 18.2311H6.12387L5.14324 17.2659ZM3.90318 25.3817H5.99266C6.18307 26.2853 6.49309 27.1597 6.91438 27.9814H3.90318V25.3817ZM3.2531 29.2813C4.33012 29.2813 5.20304 30.1542 5.20304 31.2312C5.20304 32.308 4.33012 33.1809 3.2531 33.1809C2.17637 33.1809 1.30345 32.308 1.30345 31.2312C1.30345 30.1542 2.17637 29.2813 3.2531 29.2813Z" fill="white"/>
<path d="M25.3511 31.2312C25.3511 31.59 25.0601 31.881 24.7013 31.881C24.3422 31.881 24.0512 31.59 24.0512 31.2312C24.0512 30.8721 24.3422 30.5811 24.7013 30.5811C25.0601 30.5811 25.3511 30.8721 25.3511 31.2312Z" fill="white"/>
<path d="M3.9032 31.2312C3.9032 31.59 3.61222 31.881 3.25312 31.881C2.89431 31.881 2.60333 31.59 2.60333 31.2312C2.60333 30.8721 2.89431 30.5811 3.25312 30.5811C3.61222 30.5811 3.9032 30.8721 3.9032 31.2312Z" fill="white"/>
</g>
<defs>
<clipPath id="clip0">
<rect width="39" height="39" fill="white"/>
</clipPath>
</defs>
</svg>
