<svg width="181" height="219" viewBox="0 0 181 219" fill="none" xmlns="http://www.w3.org/2000/svg">
<path d="M70.8502 217.518C72.3975 217.554 74.0224 217.257 75.4602 216.683C76.8979 216.108 78.1791 215.412 79.2782 214.319C80.3773 213.226 81.719 211.863 82.3042 210.426C82.8894 208.989 83.0309 207.349 83.009 205.796C82.987 204.244 82.7991 202.609 82.1734 201.189C81.5477 199.768 80.1679 198.445 79.0383 197.383C77.9087 196.322 76.6083 195.662 75.1548 195.128C73.7013 194.595 72.0687 194.345 70.523 194.424C68.9758 194.388 68.121 194.674 66.6832 195.248C65.2454 195.823 63.9643 196.519 62.8652 197.612C61.7661 198.705 60.4243 200.068 59.8391 201.505C59.2539 202.942 59.1124 204.582 59.1344 206.135C59.1564 207.687 59.3443 209.323 59.97 210.743C60.5957 212.163 61.9755 213.487 63.1051 214.548C64.2347 215.609 65.5351 216.269 66.9886 216.803C68.442 217.336 69.3046 217.598 70.8502 217.518Z" fill="#C2B89B"/>
<path d="M179.456 173.377C179.414 171.094 178.361 169.127 177.058 167.252C175.755 165.377 174.497 163.534 172.372 162.698C170.246 161.863 167.662 161.542 165.429 162.027C163.197 162.512 160.898 163.551 159.312 165.193C157.725 166.836 156.725 169.148 156.319 171.395C155.912 173.642 156.276 176.219 157.187 178.313C158.097 180.407 159.952 181.63 161.873 182.866C163.794 184.102 165.783 185.127 168.067 185.088C169.587 185.069 171.281 184.856 172.677 184.253C174.073 183.65 175.439 182.982 176.495 181.889C177.551 180.796 178.197 179.422 178.751 178.007C179.304 176.592 179.49 174.897 179.456 173.377Z" fill="#E5E5E5"/>
<path d="M15.9839 140.529C13.1983 140.594 10.6737 141.324 8.39235 142.923C6.11098 144.523 4.16272 147.262 3.15276 149.858C2.1428 152.454 1.89726 154.771 2.49833 157.49C3.0994 160.21 4.40829 163.129 6.41827 165.058C8.42825 166.986 11.3532 168.271 14.0962 168.76C16.8392 169.25 19.9181 168.994 22.4718 167.879C25.0254 166.765 26.9898 164.802 28.4953 162.458C30.0009 160.114 30.7125 156.827 30.6638 154.042C30.6527 152.178 30.5622 150.431 29.8258 148.718C29.0894 147.005 28.057 145.48 26.7114 144.189C25.3659 142.897 23.0738 141.881 21.3315 141.216C19.5892 140.55 17.8481 140.464 15.9839 140.529Z" fill="#E5E5E5"/>
<path d="M94.2213 127.094C92.6401 127.094 91.0677 127.326 89.6114 127.929C88.155 128.533 86.1238 129.193 85.0232 130.304C83.9226 131.415 83.3377 132.743 82.7673 134.186C82.1969 135.629 82.0124 137.269 82.0626 138.816C82.1128 140.362 82.2353 142.019 82.8982 143.423C83.561 144.827 84.8628 146.189 86.0333 147.229C87.2037 148.268 88.4242 148.974 89.9167 149.484C91.4092 149.994 92.9705 150.288 94.5485 150.188C97.6372 150.069 100.848 148.423 102.966 146.219C105.084 144.015 106.006 141.5 105.937 138.477C105.922 136.954 105.72 135.267 105.102 133.869C104.483 132.472 103.091 131.116 101.966 130.064C100.842 129.012 99.5376 128.351 98.083 127.809C96.6284 127.267 95.7771 127.04 94.2213 127.094Z" fill="#4D9DE0"/>
<path d="M100.638 90.8243C99.3741 90.8547 98.7246 91.1263 97.5684 91.6378C96.4123 92.1493 95.3929 93.076 94.5206 93.9908C93.6482 94.9056 92.7094 95.9239 92.2537 97.1027C91.7981 98.2816 91.5078 99.6992 91.5381 100.963C91.5685 102.226 91.8402 102.875 92.3519 104.031C92.8636 105.187 93.7907 106.206 94.706 107.077C95.6212 107.949 96.6399 108.888 97.8193 109.343C98.9986 109.799 100.417 110.089 101.681 110.058C102.945 110.028 103.594 109.756 104.751 109.245C105.907 108.733 106.926 107.807 107.798 106.892C108.671 105.977 109.61 104.959 110.065 103.78C110.521 102.601 110.811 101.184 110.781 99.9201C110.751 98.6567 110.479 98.0074 109.967 96.8518C109.455 95.6962 108.528 94.6773 107.613 93.8053C106.698 92.9334 105.679 91.995 104.5 91.5396C103.32 91.0841 101.902 90.794 100.638 90.8243Z" fill="#1D1A15"/>
<path d="M22.1655 43.4231C21.1149 43.4585 20.0517 43.799 19.0958 44.2365C18.1399 44.6741 17.5209 45.0367 16.8072 45.8089C16.0935 46.581 15.6719 47.9222 15.3105 48.9099C14.9491 49.8975 14.5374 50.9492 14.584 52C14.6912 54.114 15.4379 55.8971 16.9708 57.3559C18.5036 58.8147 21.0492 59.5767 23.1646 59.578C25.3437 59.4443 27.0455 58.8003 28.523 57.1922C30.0004 55.5841 30.796 53.1849 30.7462 51.0011C30.5812 48.8904 29.9422 47.0502 28.3594 45.6452C26.7765 44.2403 24.2795 43.3353 22.1655 43.4231Z" fill="#6C6C6D"/>
<path d="M93.4848 184.082C93.5378 185.808 94.6781 187.475 95.8608 188.669C97.0435 189.862 98.0996 190.177 99.7336 190.154C101.338 190.044 103.223 189.017 104.322 187.779C105.421 186.54 105.796 184.837 105.797 183.138C105.701 181.399 104.624 179.745 103.421 178.551C102.218 177.358 101.197 177.058 99.5482 177.066C97.9456 177.165 96.051 178.199 94.9597 179.441C93.8684 180.684 93.4591 182.386 93.4848 184.082Z" fill="#6C6C6D"/>
<path d="M56.0514 42.9409C56.1045 44.6668 57.2448 46.3337 58.4275 47.5273C59.6102 48.7208 60.6663 49.0358 62.3003 49.0124C63.9047 48.9022 65.7896 47.8757 66.8887 46.6374C67.9879 45.3991 68.3622 43.6955 68.3637 41.9965C68.2673 40.2575 67.1904 38.6032 65.9877 37.4101C64.7849 36.217 63.7633 35.9168 62.1149 35.9249C60.5123 36.024 58.6177 37.0575 57.5264 38.3C56.4351 39.5424 56.0258 41.2446 56.0514 42.9409Z" fill="#B99862"/>
<path d="M70.4338 151.117C70.3815 149.414 70.0017 148.48 68.8388 147.29C67.676 146.1 65.8075 145.056 64.1849 145.046C63.355 145.07 62.6415 145.489 61.8852 145.848C61.129 146.207 60.162 146.783 59.5965 147.421C59.0309 148.058 59.1355 148.154 58.8481 148.971C58.5607 149.789 58.0862 151.19 58.1215 152.062C58.1832 153.777 58.5289 155.49 59.7273 156.659C60.9257 157.827 62.7373 158.195 64.3703 158.133C66.0034 158.071 67.8477 157.015 68.9588 155.758C70.0699 154.501 70.4955 152.832 70.4338 151.117Z" fill="#5BA763"/>
<path d="M138.669 196.098C138.617 194.394 138.237 193.46 137.074 192.27C135.912 191.08 134.043 190.037 132.421 190.026C131.591 190.051 130.877 190.47 130.121 190.829C129.365 191.187 128.398 191.764 127.832 192.401C127.267 193.039 127.371 193.134 127.084 193.952C126.796 194.769 126.322 196.171 126.357 197.042C126.388 197.891 126.822 198.568 127.16 199.341C127.498 200.113 127.37 201.061 127.963 201.639C128.556 202.218 129.526 202.08 130.284 202.376C131.043 202.673 131.797 203.144 132.606 203.113C133.415 203.083 134.17 202.664 134.906 202.311C135.641 201.957 136.644 201.361 137.194 200.738C137.745 200.116 137.662 199.984 137.943 199.188C138.224 198.391 138.7 196.947 138.669 196.098Z" fill="#FC5857"/>
<path d="M17.645 105.081C17.5928 103.378 17.2129 102.444 16.0501 101.254C14.8873 100.063 13.0188 99.0203 11.3962 99.0094C10.5663 99.0339 9.85274 99.4533 9.09652 99.812C8.34029 100.171 7.3733 100.747 6.80774 101.384C6.24217 102.022 6.34674 102.117 6.05935 102.935C5.77197 103.753 5.29752 105.154 5.33278 106.025C5.3945 107.74 5.74022 109.454 6.93861 110.623C8.137 111.791 9.94854 112.159 11.5816 112.097C13.2147 112.034 15.059 110.979 16.1701 109.722C17.2812 108.465 17.7067 106.796 17.645 105.081Z" fill="#FC5857"/>
<path d="M140.756 149.543C140.703 147.84 140.324 146.906 139.161 145.716C137.998 144.526 136.129 143.483 134.507 143.472C133.677 143.496 132.963 143.916 132.207 144.274C131.451 144.633 130.484 145.209 129.918 145.847C129.353 146.484 129.457 146.58 129.17 147.397C128.883 148.215 128.408 149.617 128.443 150.488C128.505 152.203 128.851 153.916 130.049 155.085C131.248 156.254 133.059 156.622 134.692 156.559C136.325 156.497 138.17 155.441 139.281 154.184C140.392 152.927 140.817 151.258 140.756 149.543Z" fill="#5BA763"/>
<path d="M56.5525 7.8666C56.5003 6.16341 56.1205 5.22927 54.9576 4.03917C53.7948 2.84906 51.9263 1.80592 50.3037 1.79508C49.4738 1.81959 48.7603 2.23891 48.004 2.59767C47.2478 2.95642 46.2808 3.53261 45.7153 4.1701C45.1497 4.80759 45.2543 4.90313 44.9669 5.72071C44.6795 6.5383 44.205 7.93986 44.2403 8.81103C44.302 10.5261 44.6477 12.2397 45.8461 13.4083C47.0445 14.5769 48.8561 14.945 50.4891 14.8825C52.1222 14.8201 53.9665 13.7644 55.0776 12.5075C56.1887 11.2506 56.6143 9.58171 56.5525 7.8666Z" fill="#383736"/>
<path d="M50.1477 91.8267C50.1318 92.983 50.3245 93.6167 50.7619 94.6872C51.1994 95.7577 51.7104 97.291 52.5316 98.1052C53.3527 98.9194 54.35 99.3575 55.4241 99.7858C56.4981 100.214 57.718 100.337 58.8739 100.311C60.0299 100.285 61.2537 100.164 62.3075 99.6882C63.3613 99.2123 64.3593 98.2029 65.1431 97.3527C65.9269 96.5025 66.4343 95.5487 66.8233 94.4597C67.2124 93.3707 67.4159 92.1637 67.3482 91.0092C67.2177 88.7842 66.037 86.8234 64.3988 85.3125C62.7606 83.8016 60.8579 83.0489 58.6301 83.0989C56.4023 83.1488 53.9216 83.9004 52.3528 85.4832C50.7839 87.066 50.1783 89.5981 50.1477 91.8267Z" fill="#5BA763"/>
</svg>
