<svg width="242" height="309" viewBox="0 0 242 309" fill="none" xmlns="http://www.w3.org/2000/svg">
<path d="M154.27 307.385C152.084 307.436 149.789 307.017 147.758 306.205C145.727 305.393 143.917 304.409 142.364 302.864C140.812 301.32 138.916 299.395 138.09 297.364C137.263 295.332 137.063 293.015 137.094 290.821C137.125 288.627 137.391 286.316 138.275 284.309C139.158 282.303 141.108 280.432 142.703 278.932C144.299 277.432 146.136 276.499 148.189 275.745C150.242 274.991 152.549 274.638 154.732 274.75C156.918 274.7 158.125 275.103 160.156 275.915C162.187 276.727 163.997 277.711 165.549 279.255C167.102 280.8 168.997 282.725 169.824 284.756C170.651 286.787 170.851 289.105 170.82 291.299C170.788 293.493 170.523 295.804 169.639 297.81C168.755 299.817 166.806 301.688 165.21 303.188C163.615 304.688 161.778 305.621 159.725 306.375C157.671 307.128 156.453 307.498 154.27 307.385Z" fill="#C2B89B"/>
<path d="M0.853556 245.008C0.912571 241.782 2.39953 239.002 4.24058 236.352C6.08163 233.702 7.85762 231.098 10.8605 229.917C13.8634 228.736 17.514 228.283 20.6671 228.968C23.8203 229.654 27.0676 231.121 29.3088 233.443C31.55 235.764 32.9629 239.032 33.5371 242.207C34.1114 245.382 33.5966 249.023 32.3105 251.982C31.0244 254.942 28.4038 256.671 25.6906 258.417C22.9773 260.164 20.1675 261.612 16.9411 261.557C14.7936 261.53 12.4004 261.229 10.429 260.377C8.45758 259.525 6.52731 258.581 5.03568 257.036C3.54405 255.491 2.63097 253.551 1.849 251.551C1.06703 249.551 0.805364 247.155 0.853556 245.008Z" fill="white"/>
<path d="M231.775 198.588C235.71 198.679 239.276 199.712 242.498 201.971C245.721 204.231 248.473 208.103 249.9 211.771C251.326 215.439 251.673 218.713 250.824 222.556C249.975 226.4 248.126 230.524 245.287 233.25C242.448 235.976 238.316 237.791 234.441 238.483C230.566 239.174 226.217 238.813 222.61 237.238C219.002 235.663 216.227 232.889 214.101 229.577C211.974 226.265 210.969 221.619 211.038 217.684C211.053 215.049 211.181 212.581 212.221 210.16C213.262 207.739 214.72 205.584 216.621 203.759C218.522 201.934 221.759 200.499 224.221 199.558C226.682 198.617 229.141 198.496 231.775 198.588Z" fill="white"/>
<path d="M121.256 179.602C123.49 179.602 125.711 179.93 127.768 180.783C129.826 181.635 132.695 182.568 134.249 184.139C135.804 185.709 136.63 187.585 137.436 189.624C138.242 191.663 138.503 193.982 138.432 196.167C138.361 198.352 138.188 200.694 137.251 202.678C136.315 204.662 134.476 206.587 132.823 208.056C131.169 209.525 129.445 210.522 127.337 211.242C125.228 211.963 123.023 212.379 120.794 212.238C116.431 212.07 111.896 209.743 108.904 206.629C105.912 203.515 104.608 199.961 104.706 195.689C104.727 193.537 105.013 191.152 105.887 189.177C106.76 187.203 108.726 185.286 110.315 183.8C111.904 182.313 113.746 181.379 115.801 180.613C117.856 179.848 119.058 179.526 121.256 179.602Z" fill="#4D9DE0"/>
<path d="M112.192 128.348C113.978 128.39 114.895 128.774 116.528 129.497C118.162 130.22 119.602 131.53 120.834 132.822C122.066 134.115 123.392 135.554 124.036 137.22C124.68 138.886 125.09 140.889 125.047 142.675C125.004 144.46 124.62 145.377 123.897 147.011C123.174 148.644 121.865 150.084 120.572 151.316C119.279 152.548 117.84 153.874 116.174 154.518C114.508 155.161 112.504 155.571 110.719 155.528C108.933 155.485 108.016 155.102 106.383 154.379C104.75 153.656 103.31 152.346 102.077 151.054C100.845 149.761 99.5189 148.322 98.8752 146.656C98.2315 144.99 97.8215 142.987 97.8644 141.201C97.9072 139.416 98.291 138.499 99.0139 136.865C99.7368 135.232 101.046 133.792 102.339 132.56C103.632 131.328 105.071 130.002 106.737 129.358C108.403 128.715 110.407 128.305 112.192 128.348Z" fill="#1D1A15"/>
<path d="M223.043 61.3618C224.527 61.4119 226.029 61.893 227.379 62.5113C228.73 63.1297 229.604 63.6421 230.612 64.7333C231.621 65.8244 232.216 67.7198 232.727 69.1155C233.237 70.5112 233.819 71.9974 233.753 73.4823C233.601 76.4696 232.547 78.9894 230.381 81.0509C228.216 83.1125 224.62 84.1894 221.632 84.1912C218.554 84.0023 216.15 83.0922 214.063 80.8198C211.975 78.5473 210.852 75.1568 210.922 72.0708C211.155 69.088 212.058 66.4875 214.294 64.5021C216.53 62.5167 220.057 61.2377 223.043 61.3618Z" fill="#6C6C6D"/>
<path d="M122.295 260.135C122.22 262.574 120.61 264.929 118.939 266.616C117.268 268.302 115.777 268.747 113.469 268.714C111.202 268.559 108.54 267.108 106.987 265.358C105.435 263.608 104.906 261.201 104.904 258.8C105.04 256.343 106.561 254.006 108.26 252.32C109.959 250.634 111.402 250.209 113.731 250.221C115.994 250.361 118.67 251.821 120.212 253.577C121.753 255.333 122.331 257.738 122.295 260.135Z" fill="#6C6C6D"/>
<path d="M175.175 60.6803C175.1 63.1192 173.489 65.4745 171.818 67.1611C170.148 68.8477 168.656 69.2928 166.348 69.2597C164.082 69.104 161.419 67.6536 159.867 65.9037C158.314 64.1539 157.786 61.7467 157.784 59.3458C157.92 56.8885 159.441 54.5509 161.14 52.865C162.839 51.179 164.282 50.7549 166.61 50.7664C168.874 50.9063 171.55 52.3667 173.091 54.1224C174.633 55.878 175.211 58.2834 175.175 60.6803Z" fill="#B99862"/>
<path d="M166.468 235.115C166.542 232.708 167.079 231.388 168.721 229.706C170.364 228.025 173.003 226.551 175.295 226.535C176.467 226.57 177.475 227.162 178.543 227.669C179.611 228.176 180.977 228.99 181.776 229.891C182.575 230.792 182.427 230.927 182.833 232.082C183.239 233.238 183.909 235.218 183.859 236.449C183.772 238.873 183.284 241.294 181.591 242.945C179.898 244.597 177.34 245.117 175.033 245.029C172.726 244.94 170.121 243.449 168.552 241.673C166.982 239.896 166.381 237.538 166.468 235.115Z" fill="#5BA763"/>
<path d="M186.614 175.089C186.688 172.682 187.225 171.362 188.867 169.681C190.51 167.999 193.149 166.525 195.441 166.51C196.613 166.544 197.621 167.137 198.689 167.644C199.758 168.151 201.123 168.965 201.922 169.866C202.721 170.766 202.573 170.901 202.979 172.057C203.385 173.212 204.055 175.192 204.006 176.423C203.918 178.847 203.43 181.268 201.737 182.92C200.045 184.571 197.486 185.091 195.179 185.003C192.872 184.915 190.267 183.423 188.698 181.647C187.128 179.871 186.527 177.513 186.614 175.089Z" fill="#4D9DE0"/>
<path d="M167.142 121.703C167.216 119.296 167.752 117.976 169.395 116.294C171.037 114.613 173.676 113.139 175.968 113.123C177.141 113.158 178.148 113.75 179.217 114.257C180.285 114.764 181.651 115.579 182.45 116.479C183.248 117.38 183.101 117.515 183.507 118.67C183.913 119.826 184.583 121.806 184.533 123.037C184.446 125.461 183.957 127.882 182.265 129.533C180.572 131.185 178.013 131.705 175.706 131.617C173.4 131.529 170.795 130.037 169.225 128.261C167.656 126.485 167.055 124.126 167.142 121.703Z" fill="#F7603F"/>
<path d="M58.4682 277.115C58.542 274.708 59.0786 273.388 60.7211 271.706C62.3636 270.025 65.0029 268.551 67.2948 268.535C68.467 268.57 69.475 269.162 70.5432 269.669C71.6113 270.176 72.9772 270.99 73.7761 271.891C74.5749 272.792 74.4272 272.927 74.8332 274.082C75.2391 275.238 75.9092 277.218 75.8594 278.449C75.8163 279.649 75.2023 280.605 74.7253 281.697C74.2483 282.789 74.4293 284.128 73.5911 284.945C72.753 285.763 71.3837 285.568 70.312 285.987C69.2402 286.406 68.175 287.072 67.0328 287.029C65.8907 286.985 64.8232 286.394 63.7845 285.894C62.7458 285.395 61.3287 284.552 60.5516 283.673C59.7745 282.793 59.8917 282.607 59.4945 281.481C59.0973 280.356 58.4251 278.315 58.4682 277.115Z" fill="#FC5857"/>
<path d="M229.428 148.494C229.502 146.087 230.039 144.767 231.681 143.085C233.324 141.404 235.963 139.93 238.255 139.914C239.427 139.949 240.435 140.542 241.503 141.048C242.571 141.555 243.937 142.37 244.736 143.27C245.535 144.171 245.387 144.306 245.793 145.461C246.199 146.617 246.869 148.597 246.82 149.828C246.732 152.252 246.244 154.673 244.551 156.325C242.858 157.976 240.3 158.496 237.993 158.408C235.686 158.32 233.081 156.828 231.512 155.052C229.942 153.276 229.341 150.917 229.428 148.494Z" fill="#FC5857"/>
<path d="M55.5214 211.327C55.5952 208.92 56.1318 207.6 57.7743 205.918C59.4168 204.236 62.0561 202.762 64.348 202.747C65.5202 202.782 66.5282 203.374 67.5963 203.881C68.6645 204.388 70.0304 205.202 70.8293 206.103C71.6281 207.004 71.4804 207.139 71.8863 208.294C72.2923 209.45 72.9624 211.43 72.9126 212.661C72.8254 215.085 72.3371 217.506 70.6443 219.157C68.9516 220.809 66.3928 221.329 64.086 221.24C61.7793 221.152 59.1742 219.661 57.6048 217.884C56.0353 216.108 55.4342 213.75 55.5214 211.327Z" fill="#5BA763"/>
<path d="M174.468 11.1149C174.542 8.7082 175.079 7.38821 176.721 5.70651C178.364 4.02482 181.003 2.55078 183.295 2.53545C184.467 2.57007 185.475 3.1626 186.543 3.66953C187.611 4.17646 188.977 4.99065 189.776 5.89146C190.575 6.79227 190.427 6.92727 190.833 8.08256C191.239 9.23785 191.909 11.2183 191.859 12.4494C191.772 14.8729 191.284 17.2943 189.591 18.9456C187.898 20.5969 185.34 21.117 183.033 21.0288C180.726 20.9406 178.121 19.4489 176.552 17.6728C174.982 15.8967 174.381 13.5385 174.468 11.1149Z" fill="#383736"/>
</svg>
