<svg width="239" height="301" viewBox="0 0 239 301" fill="none" xmlns="http://www.w3.org/2000/svg">
<path d="M154.93 307.144C152.745 307.194 150.45 306.776 148.419 305.964C146.388 305.153 144.579 304.17 143.026 302.626C141.474 301.083 139.579 299.159 138.752 297.13C137.926 295.1 137.726 292.785 137.757 290.593C137.788 288.4 138.053 286.091 138.937 284.086C139.821 282.081 141.77 280.211 143.365 278.713C144.961 277.214 146.797 276.282 148.85 275.529C150.903 274.776 153.209 274.422 155.392 274.534C157.578 274.484 158.785 274.887 160.816 275.698C162.847 276.509 164.656 277.493 166.208 279.036C167.761 280.58 169.656 282.503 170.483 284.533C171.309 286.562 171.509 288.878 171.478 291.07C171.447 293.262 171.181 295.572 170.298 297.577C169.414 299.582 167.465 301.451 165.87 302.95C164.274 304.449 162.438 305.381 160.385 306.134C158.332 306.887 157.113 307.256 154.93 307.144Z" fill="#C2B89B"/>
<path d="M1.53261 244.815C1.59158 241.591 3.07833 238.813 4.91913 236.165C6.75993 233.517 8.53567 230.916 11.5382 229.736C14.5407 228.556 18.1908 228.102 21.3436 228.788C24.4964 229.473 27.7432 230.939 29.9842 233.259C32.2252 235.578 33.6379 238.844 34.2121 242.016C34.7864 245.189 34.2717 248.827 32.9858 251.784C31.6998 254.741 29.0796 256.468 26.3667 258.213C23.6538 259.958 20.8443 261.405 17.6183 261.351C15.4711 261.324 13.0782 261.023 11.107 260.171C9.13582 259.32 7.20579 258.377 5.71433 256.833C4.22287 255.29 3.30988 253.351 2.52799 251.352C1.7461 249.354 1.48444 246.96 1.53261 244.815Z" fill="white"/>
<path d="M232.425 198.433C236.359 198.524 239.925 199.556 243.147 201.814C246.369 204.072 249.121 207.941 250.548 211.606C251.974 215.271 252.321 218.543 251.472 222.383C250.623 226.223 248.774 230.344 245.936 233.068C243.097 235.792 238.965 237.605 235.091 238.296C231.217 238.988 226.868 238.626 223.261 237.052C219.654 235.479 216.88 232.707 214.753 229.397C212.627 226.088 211.622 221.446 211.69 217.514C211.706 214.881 211.834 212.415 212.874 209.996C213.914 207.577 215.372 205.423 217.273 203.6C219.173 201.777 222.411 200.342 224.872 199.402C227.332 198.462 229.792 198.341 232.425 198.433Z" fill="white"/>
<path d="M121.92 179.461C124.153 179.461 126.374 179.789 128.431 180.641C130.488 181.493 133.357 182.425 134.911 183.994C136.466 185.564 137.292 187.438 138.098 189.475C138.903 191.513 139.164 193.83 139.093 196.013C139.022 198.196 138.849 200.537 137.913 202.519C136.977 204.502 135.138 206.425 133.485 207.893C131.832 209.36 130.108 210.356 128 211.076C125.892 211.797 123.687 212.213 121.458 212.071C117.095 211.903 112.561 209.578 109.569 206.467C106.578 203.355 105.274 199.804 105.372 195.535C105.393 193.385 105.679 191.002 106.552 189.029C107.426 187.055 109.392 185.141 110.98 183.655C112.569 182.17 114.411 181.236 116.465 180.471C118.52 179.706 119.722 179.385 121.92 179.461Z" fill="#4D9DE0"/>
<path d="M112.856 128.247C114.642 128.29 115.559 128.674 117.192 129.396C118.825 130.118 120.265 131.427 121.497 132.718C122.729 134.01 124.055 135.448 124.699 137.113C125.342 138.777 125.752 140.779 125.709 142.563C125.667 144.347 125.283 145.264 124.56 146.896C123.837 148.527 122.528 149.966 121.235 151.197C119.942 152.428 118.504 153.753 116.838 154.397C115.172 155.04 113.169 155.449 111.384 155.406C109.598 155.364 108.681 154.98 107.048 154.258C105.415 153.536 103.975 152.227 102.743 150.935C101.511 149.643 100.185 148.206 99.5412 146.541C98.8975 144.877 98.4875 142.875 98.5304 141.091C98.5732 139.307 98.957 138.39 99.6797 136.758C100.403 135.126 101.712 133.688 103.005 132.456C104.297 131.225 105.736 129.9 107.402 129.257C109.068 128.614 111.071 128.204 112.856 128.247Z" fill="#1D1A15"/>
<path d="M223.693 61.3157C225.177 61.3657 226.679 61.8464 228.029 62.4643C229.379 63.0822 230.253 63.5942 231.261 64.6845C232.269 65.7748 232.865 67.6687 233.375 69.0633C233.886 70.4579 234.467 71.9429 234.401 73.4266C234.25 76.4116 233.195 78.9294 231.03 80.9893C228.865 83.0492 225.27 84.1252 222.282 84.127C219.204 83.9383 216.8 83.0289 214.714 80.7581C212.627 78.4874 211.503 75.0997 211.574 72.016C211.807 69.0357 212.709 66.4372 214.945 64.4533C217.18 62.4695 220.707 61.1917 223.693 61.3157Z" fill="#6C6C6D"/>
<path d="M122.959 259.931C122.884 262.368 121.274 264.721 119.604 266.406C117.933 268.092 116.442 268.536 114.134 268.503C111.868 268.348 109.206 266.898 107.653 265.15C106.101 263.401 105.572 260.996 105.57 258.597C105.706 256.142 107.227 253.806 108.926 252.121C110.625 250.437 112.068 250.013 114.396 250.024C116.659 250.164 119.335 251.624 120.876 253.378C122.417 255.132 122.995 257.536 122.959 259.931Z" fill="#6C6C6D"/>
<path d="M175.83 60.6339C175.756 63.0709 174.145 65.4244 172.475 67.1096C170.804 68.7949 169.313 69.2396 167.005 69.2065C164.739 69.051 162.077 67.6016 160.525 65.8531C158.972 64.1047 158.443 61.6994 158.441 59.3004C158.578 56.845 160.098 54.5093 161.797 52.8247C163.496 51.1401 164.939 50.7163 167.267 50.7278C169.53 50.8676 172.206 52.3269 173.747 54.0812C175.289 55.8355 175.867 58.2389 175.83 60.6339Z" fill="#B99862"/>
<path d="M167.127 234.931C167.2 232.526 167.737 231.207 169.379 229.526C171.022 227.846 173.66 226.373 175.952 226.358C177.124 226.393 178.132 226.985 179.2 227.491C180.268 227.998 181.634 228.811 182.433 229.711C183.231 230.611 183.084 230.746 183.49 231.901C183.895 233.055 184.566 235.034 184.516 236.264C184.429 238.686 183.94 241.105 182.248 242.755C180.555 244.405 177.997 244.925 175.69 244.837C173.384 244.749 170.779 243.258 169.21 241.483C167.641 239.709 167.04 237.352 167.127 234.931Z" fill="#5BA763"/>
<path d="M187.27 174.953C187.344 172.548 187.88 171.229 189.522 169.549C191.165 167.868 193.804 166.395 196.095 166.38C197.267 166.415 198.275 167.007 199.343 167.513C200.411 168.02 201.777 168.833 202.576 169.734C203.375 170.634 203.227 170.769 203.633 171.923C204.039 173.077 204.709 175.056 204.659 176.286C204.572 178.708 204.083 181.127 202.391 182.777C200.698 184.427 198.14 184.947 195.833 184.859C193.527 184.771 190.922 183.28 189.353 181.506C187.784 179.731 187.183 177.374 187.27 174.953Z" fill="#4D9DE0"/>
<path d="M59.1404 276.896C59.2141 274.492 59.7506 273.173 61.3929 271.492C63.0353 269.812 65.6742 268.339 67.9658 268.324C69.1379 268.358 70.1457 268.95 71.2137 269.457C72.2818 269.963 73.6475 270.777 74.4463 271.677C75.245 272.577 75.0974 272.712 75.5033 273.867C75.9091 275.021 76.5792 277 76.5294 278.23C76.4863 279.429 75.8724 280.384 75.3955 281.475C74.9186 282.567 75.0995 283.904 74.2615 284.721C73.4234 285.538 72.0544 285.343 70.9828 285.762C69.9111 286.18 68.8461 286.846 67.704 286.803C66.562 286.759 65.4947 286.168 64.4561 285.669C63.4175 285.17 62.0006 284.328 61.2236 283.449C60.4465 282.57 60.5637 282.384 60.1666 281.26C59.7694 280.135 59.0972 278.095 59.1404 276.896Z" fill="#FC5857"/>
<path d="M230.078 148.379C230.152 145.974 230.688 144.655 232.331 142.974C233.973 141.294 236.612 139.821 238.904 139.806C240.076 139.841 241.083 140.433 242.151 140.939C243.22 141.446 244.585 142.259 245.384 143.159C246.183 144.059 246.035 144.194 246.441 145.349C246.847 146.503 247.517 148.482 247.467 149.712C247.38 152.134 246.892 154.553 245.199 156.203C243.507 157.853 240.948 158.373 238.642 158.285C236.335 158.197 233.731 156.706 232.161 154.931C230.592 153.157 229.991 150.8 230.078 148.379Z" fill="#FC5857"/>
<path d="M56.1933 211.16C56.267 208.755 56.8036 207.437 58.4459 205.756C60.0882 204.076 62.7271 202.603 65.0187 202.588C66.1908 202.622 67.1986 203.214 68.2667 203.721C69.3347 204.227 70.7004 205.041 71.4992 205.941C72.298 206.841 72.1503 206.976 72.5562 208.13C72.9621 209.285 73.6322 211.264 73.5824 212.494C73.4952 214.915 73.0069 217.335 71.3144 218.985C69.6219 220.635 67.0634 221.155 64.7569 221.066C62.4505 220.978 59.8457 219.488 58.2765 217.713C56.7072 215.938 56.1062 213.582 56.1933 211.16Z" fill="#5BA763"/>
<path d="M175.124 11.1078C175.197 8.70299 175.734 7.38404 177.376 5.70369C179.018 4.02333 181.657 2.55049 183.949 2.53519C185.121 2.56979 186.129 3.16186 187.197 3.66841C188.265 4.17495 189.631 4.98851 190.429 5.88861C191.228 6.78871 191.081 6.92361 191.486 8.07799C191.892 9.23238 192.562 11.2113 192.513 12.4413C192.425 14.863 191.937 17.2824 190.245 18.9324C188.552 20.5825 185.994 21.1021 183.687 21.014C181.381 20.9258 178.776 19.4352 177.207 17.6605C175.637 15.8858 175.036 13.5294 175.124 11.1078Z" fill="#383736"/>
</svg>
