<svg width="55" height="55" viewBox="0 0 55 55" fill="none" xmlns="http://www.w3.org/2000/svg">
<g clip-path="url(#clip0)">
<path d="M16.6759 18.6429C16.1608 22.2221 15.8707 25.8305 15.8075 29.4465H29.4271C29.3639 25.8304 29.0739 22.2221 28.5587 18.6429H16.6759Z" fill="#4D9DE0"/>
<path d="M14.7033 18.6429H9.3247C9.06053 18.6598 8.83629 18.8439 8.76699 19.1009C7.76349 22.463 7.18497 25.9389 7.0452 29.4465H13.854C13.9171 25.8313 14.2008 22.2233 14.7033 18.6429Z" fill="#4D9DE0"/>
<path d="M27.4987 4.89282H17.7361V10.7857H27.4987V4.89282Z" fill="#4D9DE0"/>
<path d="M13.8323 31.4106H7.00001C6.99713 35.0993 7.65242 38.7585 8.93483 42.2142H14.7066C14.1257 38.6427 13.8334 35.0297 13.8323 31.4106Z" fill="#4D9DE0"/>
<path d="M30.4274 12.8814C30.4274 12.8466 30.4137 12.8131 30.3892 12.7885C30.3648 12.7639 30.3315 12.75 30.2969 12.75H14.938C14.9033 12.75 14.8701 12.7639 14.8457 12.7885C14.8212 12.8131 14.8074 12.8466 14.8074 12.8814V16.6785H30.4276V12.8814H30.4274Z" fill="#4D9DE0"/>
<path d="M16.6764 42.2143H28.5582C29.1599 38.6451 29.4577 35.0309 29.4485 31.4108H15.7861C15.7769 35.0308 16.0748 38.6451 16.6764 42.2143Z" fill="#4D9DE0"/>
<path d="M30.5283 42.2143H36.3C37.5823 38.7586 38.2376 35.0994 38.2349 31.4108H31.4026C31.4015 35.0297 31.1091 38.6427 30.5283 42.2143Z" fill="#4D9DE0"/>
<path d="M36.4681 19.1009C36.3988 18.8438 36.1745 18.6597 35.9104 18.6429H30.5317C31.0342 22.2233 31.3179 25.8312 31.3812 29.4465H38.19C38.0501 25.9388 37.4716 22.463 36.4681 19.1009Z" fill="#4D9DE0"/>
<path d="M35.8808 -1H15.7835V2.92853H33.1607C33.6752 2.92691 34.1692 3.13145 34.5336 3.49679L43.5153 12.421C43.8849 12.7911 44.0933 13.2938 44.095 13.8184V30.4285H48V11.1924L35.8808 -1Z" fill="#4D9DE0"/>
<path d="M26.8675 53.1374C30.3968 51.6819 33.4212 48.4647 35.4616 44.1786H30.1605C29.6201 47.3432 28.5037 50.3804 26.8675 53.1374Z" fill="#4D9DE0"/>
<path d="M17.0605 44.1785C18.3968 50.2814 20.5797 54 22.6173 54C24.655 54 26.8378 50.2814 28.1742 44.1785H17.0605Z" fill="#4D9DE0"/>
<path d="M9.77328 44.1785C11.8137 48.4647 14.8381 51.6818 18.3674 53.1372C16.7312 50.3803 15.6148 47.3431 15.0745 44.1785H9.77328Z" fill="#4D9DE0"/>
</g>
<defs>
<clipPath id="clip0">
<rect width="55" height="55" fill="white"/>
</clipPath>
</defs>
</svg>
