<svg width="38" height="38" viewBox="0 0 38 38" fill="none" xmlns="http://www.w3.org/2000/svg">
<path d="M36.6936 21.0189C37.5644 20.0215 38 18.842 38 17.4802C38 16.2452 37.5481 15.1766 36.6475 14.2737C35.745 13.3708 34.6764 12.9196 33.4414 12.9196H26.863C26.9262 12.698 26.9896 12.508 27.0528 12.3497C27.1155 12.1914 27.2035 12.017 27.3139 11.827C27.4243 11.6369 27.5038 11.4944 27.5511 11.3995C27.836 10.8615 28.0541 10.4179 28.2047 10.0698C28.355 9.72112 28.5047 9.2463 28.6556 8.64462C28.8062 8.04328 28.8811 7.44135 28.8811 6.83968C28.8811 6.45986 28.8765 6.15082 28.869 5.9135C28.8616 5.67601 28.8213 5.31964 28.7506 4.84457C28.6789 4.36975 28.5838 3.97388 28.4653 3.65736C28.3464 3.34076 28.1562 2.98423 27.8954 2.58868C27.6341 2.19239 27.3175 1.87221 26.9451 1.62665C26.5728 1.38126 26.098 1.17546 25.5201 1.00934C24.9416 0.84305 24.2889 0.759949 23.5601 0.759949C23.1485 0.759949 22.7925 0.91043 22.4914 1.21131C22.1748 1.52791 21.9052 1.9237 21.6838 2.39852C21.462 2.87359 21.3075 3.28527 21.2203 3.63373C21.1332 3.98203 21.0342 4.46508 20.9238 5.0824C20.7808 5.74771 20.6744 6.22636 20.6027 6.51925C20.5316 6.81214 20.3926 7.19604 20.187 7.67094C19.981 8.14618 19.7358 8.52592 19.4507 8.81108C18.9283 9.33348 18.1289 10.2835 17.0519 11.6609C16.2759 12.6741 15.4764 13.632 14.6531 14.5345C13.8297 15.4372 13.2281 15.9042 12.8482 15.9359C12.4527 15.9675 12.1122 16.1298 11.8271 16.4229C11.542 16.7158 11.3995 17.0603 11.3995 17.456V32.6796C11.3995 33.0913 11.5499 33.4434 11.8507 33.7363C12.1514 34.0296 12.5077 34.1839 12.9194 34.1998C13.4735 34.2156 14.7244 34.5636 16.672 35.2451C17.8909 35.6561 18.8447 35.9693 19.5335 36.1827C20.2221 36.3962 21.1847 36.6259 22.4187 36.8716C23.6539 37.117 24.7937 37.24 25.8384 37.24H26.2423H28.0474H28.9022C31.0085 37.2084 32.5674 36.5907 33.5811 35.3876C34.4991 34.295 34.8869 32.8621 34.7449 31.0887C35.3623 30.5029 35.7901 29.7591 36.0272 28.8564C36.296 27.8911 36.296 26.9648 36.0272 26.0783C36.7554 25.1124 37.0959 24.0278 37.0481 22.8245C37.0501 22.3173 36.9316 21.7158 36.6936 21.0189Z" fill="#FF6700"/>
<path d="M8.36007 15.9601H1.52029C1.10835 15.9601 0.752074 16.1106 0.451278 16.4115C0.150481 16.7122 0 17.0685 0 17.4802V32.6807C0 33.0918 0.150481 33.4483 0.451361 33.7494C0.752407 34.0498 1.10869 34.2003 1.52037 34.2003H8.36007C8.77167 34.2003 9.12779 34.0498 9.42875 33.7494C9.72954 33.4483 9.87994 33.0919 9.87994 32.6807V17.4802C9.87994 17.0685 9.72946 16.7123 9.42875 16.4115C9.12787 16.1105 8.77175 15.9601 8.36007 15.9601ZM5.6287 30.7208C5.3279 31.0137 4.97171 31.1601 4.56002 31.1601C4.13245 31.1601 3.77218 31.0137 3.47945 30.7208C3.18656 30.4279 3.04016 30.0678 3.04016 29.6402C3.04016 29.2286 3.18648 28.8723 3.47945 28.5716C3.77226 28.2707 4.13245 28.12 4.56002 28.12C4.97171 28.12 5.3279 28.2707 5.6287 28.5716C5.92958 28.8722 6.08006 29.2285 6.08006 29.6402C6.08006 30.0678 5.92991 30.4278 5.6287 30.7208Z" fill="#FF6700"/>
</svg>
