<svg width="41" height="41" viewBox="0 0 41 41" fill="none" xmlns="http://www.w3.org/2000/svg">
<path d="M16.9775 0C18.9645 0 20.5809 1.61638 20.5809 3.60336C20.5809 5.59034 18.9645 7.20673 16.9775 7.20673C14.9905 7.20673 13.3741 5.59034 13.3741 3.60336C13.3742 1.61638 14.9905 0 16.9775 0Z" fill="#EDCF41"/>
<path d="M37.3964 6.00555H39.7987C40.4626 6.00555 40.9998 6.5428 40.9998 7.20665C40.9998 7.8705 40.4625 8.40774 39.7987 8.40774H37.3965C36.7326 8.40774 36.1954 7.8705 36.1954 7.20665C36.1954 6.5428 36.7326 6.00555 37.3964 6.00555Z" fill="#EDCF41"/>
<path d="M34.1449 3.95512L36.5471 1.55293C37.0163 1.08376 37.7764 1.08376 38.2456 1.55293C38.7148 2.02211 38.7148 2.78222 38.2456 3.25139L35.8434 5.65358C35.3742 6.12284 34.6142 6.12284 34.1449 5.65358C33.6758 5.18448 33.6758 4.4243 34.1449 3.95512Z" fill="#EDCF41"/>
<path d="M34.1449 8.7596C34.6141 8.29042 35.3742 8.29042 35.8434 8.7596L38.2456 11.1618C38.7148 11.631 38.7148 12.3911 38.2456 12.8602C37.7764 13.3294 37.0163 13.3294 36.5471 12.8602L34.1449 10.4581C33.6758 9.98896 33.6758 9.22878 34.1449 8.7596Z" fill="#EDCF41"/>
<path d="M0.25512 3.73004C0.850983 2.54007 2.29055 2.06777 3.47843 2.65562L21.9086 12.3911L23.1796 9.84906L20.0436 8.28112C19.1608 7.83845 19.1608 6.5749 20.0436 6.13222L29.6525 1.32777C30.4594 0.924253 31.3908 1.51915 31.3908 2.40218V12.0111C31.3908 12.8971 30.456 13.4844 29.6525 13.0855L27.4773 11.9979L25.1319 16.6889C24.5771 17.7967 23.0651 18.3416 21.9086 17.7633L18.1786 15.8982V23.7116L22.8599 37.8367C23.2812 39.0984 22.5966 40.4563 21.3397 40.8747C20.1113 41.2926 18.6965 40.5412 18.3018 39.3557L14.5753 28.0961L10.8476 39.3569C10.422 40.638 9.03762 41.293 7.80842 40.8735C6.56921 40.4619 5.86524 39.1113 6.29062 37.8355L10.9719 23.7116V12.295L1.32953 6.95327C0.139086 6.35933 -0.33842 4.91455 0.25512 3.73004Z" fill="#EDCF41"/>
</svg>
