<svg width="62" height="62" viewBox="0 0 62 62" fill="none" xmlns="http://www.w3.org/2000/svg">
<path d="M2.90625 28.4521V35.8437C2.90625 37.1128 5.0375 38.5756 8.62187 39.7187C26.4759 45.7056 59.0938 41.4431 59.0938 35.8437V28.4521C50.2297 35.7081 11.7219 35.6596 2.90625 28.4521ZM6.78125 35.8437C6.78125 36.1006 6.67919 36.347 6.49751 36.5287C6.31583 36.7104 6.06943 36.8125 5.8125 36.8125C5.55557 36.8125 5.30917 36.7104 5.12749 36.5287C4.94581 36.347 4.84375 36.1006 4.84375 35.8437V32.9375C4.84375 32.6805 4.94581 32.4341 5.12749 32.2524C5.30917 32.0708 5.55557 31.9687 5.8125 31.9687C6.06943 31.9687 6.31583 32.0708 6.49751 32.2524C6.67919 32.4341 6.78125 32.6805 6.78125 32.9375V35.8437ZM13.5625 37.7812C13.5625 38.0381 13.4604 38.2845 13.2788 38.4662C13.0971 38.6479 12.8507 38.75 12.5938 38.75C12.3368 38.75 12.0904 38.6479 11.9087 38.4662C11.7271 38.2845 11.625 38.0381 11.625 37.7812V34.875C11.625 34.618 11.7271 34.3716 11.9087 34.1899C12.0904 34.0083 12.3368 33.9062 12.5938 33.9062C12.8507 33.9062 13.0971 34.0083 13.2788 34.1899C13.4604 34.3716 13.5625 34.618 13.5625 34.875V37.7812ZM22.2812 39.7187C22.2812 39.9756 22.1792 40.222 21.9975 40.4037C21.8158 40.5854 21.5694 40.6875 21.3125 40.6875C21.0556 40.6875 20.8092 40.5854 20.6275 40.4037C20.4458 40.222 20.3438 39.9756 20.3438 39.7187V36.8125C20.3438 36.5555 20.4458 36.3091 20.6275 36.1274C20.8092 35.9458 21.0556 35.8437 21.3125 35.8437C21.5694 35.8437 21.8158 35.9458 21.9975 36.1274C22.1792 36.3091 22.2812 36.5555 22.2812 36.8125V39.7187ZM31.9688 40.2031C31.9688 40.46 31.8667 40.7064 31.685 40.8881C31.5033 41.0698 31.2569 41.1718 31 41.1718C30.7431 41.1718 30.4967 41.0698 30.315 40.8881C30.1333 40.7064 30.0312 40.46 30.0312 40.2031V37.2968C30.0312 37.0399 30.1333 36.7935 30.315 36.6118C30.4967 36.4301 30.7431 36.3281 31 36.3281C31.2569 36.3281 31.5033 36.4301 31.685 36.6118C31.8667 36.7935 31.9688 37.0399 31.9688 37.2968V40.2031ZM41.6562 39.7187C41.6562 39.9756 41.5542 40.222 41.3725 40.4037C41.1908 40.5854 40.9444 40.6875 40.6875 40.6875C40.4306 40.6875 40.1842 40.5854 40.0025 40.4037C39.8208 40.222 39.7188 39.9756 39.7188 39.7187V36.8125C39.7188 36.5555 39.8208 36.3091 40.0025 36.1274C40.1842 35.9458 40.4306 35.8437 40.6875 35.8437C40.9444 35.8437 41.1908 35.9458 41.3725 36.1274C41.5542 36.3091 41.6562 36.5555 41.6562 36.8125V39.7187ZM50.375 37.7812C50.375 38.0381 50.2729 38.2845 50.0913 38.4662C49.9096 38.6479 49.6632 38.75 49.4062 38.75C49.1493 38.75 48.9029 38.6479 48.7212 38.4662C48.5396 38.2845 48.4375 38.0381 48.4375 37.7812V34.875C48.4375 34.618 48.5396 34.3716 48.7212 34.1899C48.9029 34.0083 49.1493 33.9062 49.4062 33.9062C49.6632 33.9062 49.9096 34.0083 50.0913 34.1899C50.2729 34.3716 50.375 34.618 50.375 34.875V37.7812ZM57.1562 35.8437C57.1562 36.1006 57.0542 36.347 56.8725 36.5287C56.6908 36.7104 56.4444 36.8125 56.1875 36.8125C55.9306 36.8125 55.6842 36.7104 55.5025 36.5287C55.3208 36.347 55.2188 36.1006 55.2188 35.8437V32.9375C55.2188 32.6805 55.3208 32.4341 55.5025 32.2524C55.6842 32.0708 55.9306 31.9687 56.1875 31.9687C56.4444 31.9687 56.6908 32.0708 56.8725 32.2524C57.0542 32.4341 57.1562 32.6805 57.1562 32.9375V35.8437Z" fill="#ED2026"/>
<path d="M9.91031 29.5081C12.2456 28.8896 14.6172 28.4172 17.0112 28.0937L12.8747 23.9572C12.7844 23.8669 12.7127 23.7596 12.6638 23.6416C12.6149 23.5236 12.5898 23.3971 12.5898 23.2694C12.5898 23.1416 12.6149 23.0151 12.6638 22.8971C12.7127 22.7791 12.7844 22.6719 12.8747 22.5816C13.0571 22.3991 13.3045 22.2967 13.5625 22.2967C13.6902 22.2967 13.8167 22.3218 13.9347 22.3707C14.0528 22.4196 14.16 22.4912 14.2503 22.5816L19.4428 27.7741C22.9581 27.3678 26.4927 27.1511 30.0312 27.125V21.3125C30.0312 21.0556 30.1333 20.8092 30.315 20.6275C30.4967 20.4458 30.7431 20.3437 31 20.3437C31.2569 20.3437 31.5033 20.4458 31.685 20.6275C31.8667 20.8092 31.9688 21.0556 31.9688 21.3125V27.125C35.5068 27.1415 39.0414 27.3485 42.5572 27.745L47.7497 22.5525C47.84 22.4622 47.9472 22.3905 48.0653 22.3416C48.1833 22.2928 48.3098 22.2676 48.4375 22.2676C48.5652 22.2676 48.6917 22.2928 48.8097 22.3416C48.9278 22.3905 49.035 22.4622 49.1253 22.5525C49.2156 22.6428 49.2873 22.7501 49.3362 22.8681C49.3851 22.9861 49.4102 23.1126 49.4102 23.2403C49.4102 23.3681 49.3851 23.4945 49.3362 23.6126C49.2873 23.7306 49.2156 23.8378 49.1253 23.9281L44.9887 28.0937C53.7947 29.3434 50.8013 30.0312 53.8238 28.985C55.4416 28.4134 59.0938 26.8828 59.0938 25.1875C59.0938 22.3587 48.4375 18.4062 31 18.4062C13.5625 18.4062 2.90625 22.3587 2.90625 25.1875C2.90625 27.1928 7.91469 28.985 9.91031 29.5081Z" fill="#ED2026"/>
<path d="M2.90625 39.1278V45.5313C2.90625 48.1372 11.4216 51.4019 25.1875 52.1575V48.4375C25.1875 48.1806 25.2896 47.9342 25.4712 47.7525C25.6529 47.5708 25.8993 47.4688 26.1562 47.4688H35.8438C36.1007 47.4688 36.3471 47.5708 36.5288 47.7525C36.7104 47.9342 36.8125 48.1806 36.8125 48.4375V52.1575C50.5784 51.4019 59.0938 48.1372 59.0938 45.5313V39.1278C49.6 46.5 11.9931 46.19 2.90625 39.1278Z" fill="#ED2026"/>
<path d="M24.2188 14.5313H25.1875V16.6334L27.125 16.5366V14.5313H34.875V16.5366L36.8125 16.6334V14.5313H37.7812C38.0382 14.5313 38.2846 14.4292 38.4663 14.2475C38.6479 14.0658 38.75 13.8194 38.75 13.5625V9.6875C38.75 9.43057 38.6479 9.18417 38.4663 9.00249C38.2846 8.82081 38.0382 8.71875 37.7812 8.71875H24.2188C23.9618 8.71875 23.7154 8.82081 23.5337 9.00249C23.3521 9.18417 23.25 9.43057 23.25 9.6875V13.5625C23.25 13.8194 23.3521 14.0658 23.5337 14.2475C23.7154 14.4292 23.9618 14.5313 24.2188 14.5313Z" fill="#ED2026"/>
<path d="M4.84373 14.5313H10.6562V18.6775C11.2762 18.5128 11.9253 18.3578 12.5937 18.2125C12.5937 8.21501 12.6615 8.52501 12.4484 8.21501C12.3623 8.0736 12.2414 7.95661 12.0973 7.87521C11.9531 7.7938 11.7905 7.7507 11.625 7.75001C11.189 7.75001 11.6734 7.50782 4.28185 12.7778C4.11645 12.8976 3.99312 13.0665 3.92946 13.2605C3.8658 13.4545 3.86508 13.6637 3.92739 13.8581C3.9897 14.0526 4.11186 14.2224 4.27642 14.3433C4.44099 14.4642 4.63954 14.5299 4.84373 14.5313Z" fill="#ED2026"/>
<path d="M51.3438 14.5312H57.1563C57.3604 14.5299 57.559 14.4641 57.7236 14.3433C57.8881 14.2224 58.0103 14.0526 58.0726 13.8581C58.1349 13.6637 58.1342 13.4545 58.0705 13.2605C58.0069 13.0665 57.8835 12.8975 57.7181 12.7778L51.0628 8.03093C50.9429 7.90123 50.7898 7.80678 50.6201 7.75781C50.4503 7.70885 50.2704 7.70722 50.0999 7.75311C49.9293 7.79899 49.7745 7.89065 49.6522 8.01816C49.53 8.14568 49.4449 8.30419 49.4063 8.47656C49.3481 8.64125 49.4063 8.11812 49.4063 18.2125C50.0747 18.3578 50.7238 18.5128 51.3438 18.6775V14.5312Z" fill="#ED2026"/>
</svg>
