<svg width="311" height="285" viewBox="0 0 311 285" fill="none" xmlns="http://www.w3.org/2000/svg">
<path d="M179.435 194.683C178.986 194.695 178.54 194.617 178.122 194.453C177.704 194.289 177.323 194.043 177.002 193.728C176.682 193.414 176.428 193.038 176.255 192.623C176.083 192.209 175.996 191.763 176 191.314C176.004 190.865 176.098 190.422 176.277 190.01C176.456 189.598 176.716 189.226 177.042 188.917C177.368 188.608 177.752 188.368 178.173 188.211C178.594 188.054 179.042 187.983 179.49 188.003C180.355 188.042 181.171 188.414 181.767 189.042C182.362 189.67 182.691 190.504 182.684 191.37C182.677 192.235 182.334 193.064 181.728 193.682C181.122 194.3 180.3 194.658 179.435 194.683Z" fill="#4D9DE0"/>
<path d="M14.0035 182.246C13.9778 181.551 14.0923 180.859 14.3403 180.209C14.5883 179.56 14.9647 178.968 15.447 178.467C15.9292 177.967 16.5075 177.569 17.1471 177.297C17.7867 177.025 18.4746 176.885 19.1696 176.885C19.8646 176.885 20.5525 177.025 21.1921 177.297C21.8318 177.569 22.41 177.967 22.8922 178.467C23.3745 178.968 23.7509 179.56 23.9989 180.209C24.2469 180.859 24.3615 181.551 24.3357 182.246C24.3615 182.94 24.2469 183.633 23.9989 184.282C23.7509 184.932 23.3745 185.524 22.8922 186.025C22.41 186.525 21.8318 186.923 21.1921 187.195C20.5525 187.467 19.8646 187.607 19.1696 187.607C18.4746 187.607 17.7867 187.467 17.1471 187.195C16.5075 186.923 15.9292 186.525 15.447 186.025C14.9647 185.524 14.5883 184.932 14.3403 184.282C14.0923 183.633 13.9778 182.94 14.0035 182.246Z" fill="#C2B89B"/>
<path d="M300.869 182.001C301.605 182.013 302.308 182.311 302.829 182.831C303.35 183.351 303.649 184.052 303.664 184.788C303.659 185.165 303.578 185.537 303.428 185.882C303.278 186.227 303.06 186.539 302.788 186.8C302.516 187.061 302.196 187.265 301.844 187.4C301.493 187.536 301.118 187.6 300.741 187.59C300.375 187.581 300.013 187.501 299.677 187.353C299.341 187.204 299.038 186.992 298.784 186.726C298.531 186.461 298.332 186.148 298.199 185.806C298.066 185.463 298.002 185.098 298.011 184.731C298.019 184.364 298.1 184.003 298.248 183.667C298.396 183.331 298.609 183.028 298.875 182.774C299.14 182.52 299.453 182.322 299.795 182.189C300.137 182.056 300.502 181.992 300.869 182.001" fill="#5DA1DA"/>
<path d="M280.424 194.582C281.16 194.595 281.863 194.893 282.384 195.412C282.905 195.932 283.204 196.634 283.219 197.37C283.213 197.746 283.133 198.118 282.983 198.463C282.833 198.809 282.615 199.121 282.343 199.381C282.071 199.642 281.75 199.846 281.399 199.982C281.048 200.117 280.673 200.182 280.296 200.171C279.555 200.154 278.851 199.844 278.339 199.308C277.827 198.772 277.549 198.054 277.566 197.313C277.583 196.572 277.894 195.868 278.43 195.356C278.966 194.843 279.683 194.565 280.424 194.582" fill="#FC5857"/>
<path d="M246.314 192.731C245.619 192.75 244.928 192.629 244.282 192.376C243.635 192.122 243.046 191.74 242.55 191.254C242.054 190.768 241.661 190.187 241.395 189.545C241.129 188.903 240.994 188.215 241 187.52C241.006 186.826 241.151 186.139 241.428 185.502C241.705 184.865 242.108 184.291 242.612 183.812C243.115 183.334 243.711 182.963 244.361 182.72C245.012 182.477 245.705 182.368 246.399 182.398C247.736 182.458 248.999 183.034 249.92 184.005C250.841 184.976 251.35 186.267 251.339 187.606C251.328 188.944 250.798 190.226 249.861 191.182C248.923 192.138 247.652 192.693 246.314 192.731Z" fill="#5BA763"/>
<path d="M213.435 66.6826C212.986 66.6952 212.539 66.6171 212.121 66.4531C211.703 66.2891 211.323 66.0426 211.002 65.7282C210.681 65.4138 210.427 65.038 210.255 64.6233C210.083 64.2086 209.996 63.7634 210 63.3144C210.004 62.8653 210.098 62.4217 210.277 62.0098C210.456 61.598 210.716 61.2265 211.042 60.9174C211.368 60.6084 211.752 60.3681 212.173 60.2111C212.594 60.054 213.042 59.9834 213.49 60.0033C214.355 60.0417 215.171 60.414 215.766 61.0419C216.362 61.6697 216.691 62.5042 216.684 63.3696C216.677 64.235 216.334 65.0638 215.728 65.6818C215.122 66.2997 214.3 66.6585 213.435 66.6826Z" fill="#4D9DE0"/>
<path d="M180.626 10.9982C180.021 11.0151 179.42 10.91 178.857 10.6892C178.294 10.4684 177.781 10.1364 177.349 9.71307C176.918 9.28975 176.576 8.78376 176.344 8.22532C176.112 7.66688 175.995 7.06746 176 6.46284C176.005 5.85821 176.132 5.2608 176.373 4.70627C176.614 4.15174 176.964 3.65146 177.403 3.23532C177.842 2.81918 178.36 2.49571 178.926 2.28423C179.493 2.07275 180.096 1.97759 180.7 2.00444C181.864 2.05618 182.963 2.55751 183.765 3.40292C184.567 4.24833 185.009 5.3719 185 6.53716C184.99 7.70243 184.529 8.81853 183.713 9.65058C182.897 10.4826 181.79 10.9657 180.626 10.9982Z" fill="#FC5857"/>
<path d="M0.00353434 67.3613C-0.0222382 66.6668 0.0923088 65.9742 0.34032 65.3249C0.58833 64.6756 0.964714 64.083 1.44697 63.5826C1.92923 63.0821 2.50745 62.684 3.14707 62.4121C3.7867 62.1401 4.47458 62 5.16961 62C5.86463 62 6.55252 62.1401 7.19214 62.4121C7.83176 62.684 8.40998 63.0821 8.89224 63.5826C9.3745 64.083 9.75088 64.6756 9.99889 65.3249C10.2469 65.9742 10.3615 66.6668 10.3357 67.3613C10.3615 68.0559 10.2469 68.7485 9.99889 69.3977C9.75088 70.047 9.3745 70.6396 8.89224 71.1401C8.40998 71.6406 7.83176 72.0387 7.19214 72.3106C6.55252 72.5825 5.86463 72.7226 5.16961 72.7226C4.47458 72.7226 3.7867 72.5825 3.14707 72.3106C2.50745 72.0387 1.92923 71.6406 1.44697 71.1401C0.964714 70.6396 0.58833 70.047 0.34032 69.3977C0.0923088 68.7485 -0.0222382 68.0559 0.00353434 67.3613Z" fill="#C2B89B"/>
<path d="M291.869 0.000732771C292.605 0.0134691 293.308 0.311019 293.829 0.830841C294.35 1.35066 294.649 2.05227 294.664 2.78821C294.659 3.1648 294.578 3.53656 294.428 3.88189C294.278 4.22723 294.06 4.53927 293.788 4.79991C293.516 5.06055 293.196 5.26459 292.844 5.40021C292.493 5.53582 292.118 5.6003 291.741 5.5899C291.375 5.5815 291.013 5.50089 290.677 5.35268C290.341 5.20448 290.038 4.99158 289.784 4.72614C289.531 4.46069 289.332 4.14791 289.199 3.80564C289.066 3.46336 289.002 3.09831 289.011 2.73132C289.019 2.36433 289.1 2.00259 289.248 1.66675C289.396 1.33091 289.609 1.02755 289.875 0.773996C290.14 0.520437 290.453 0.321642 290.795 0.188965C291.137 0.0562887 291.502 -0.00767158 291.869 0.000732771" fill="#5DA1DA"/>
<path d="M271.424 12.5823C272.16 12.595 272.863 12.8926 273.384 13.4124C273.905 13.9322 274.204 14.6338 274.219 15.3697C274.213 15.7463 274.133 16.1181 273.983 16.4634C273.833 16.8088 273.615 17.1208 273.343 17.3815C273.071 17.6421 272.75 17.8461 272.399 17.9818C272.048 18.1174 271.673 18.1818 271.296 18.1714C270.555 18.1545 269.851 17.8438 269.339 17.3077C268.827 16.7716 268.549 16.054 268.566 15.3129C268.583 14.5717 268.894 13.8676 269.43 13.3555C269.966 12.8435 270.683 12.5653 271.424 12.5823" fill="#FC5857"/>
<path d="M237.314 10.7306C236.619 10.7499 235.928 10.6292 235.282 10.3755C234.635 10.1218 234.046 9.74046 233.55 9.25414C233.054 8.76782 232.661 8.18653 232.395 7.545C232.129 6.90346 231.994 6.21484 232 5.52024C232.006 4.82565 232.151 4.13933 232.428 3.50229C232.705 2.86524 233.108 2.29052 233.612 1.81246C234.115 1.3344 234.711 0.962789 235.361 0.719836C236.012 0.476883 236.705 0.367566 237.399 0.39841C238.736 0.457853 239.999 1.03378 240.92 2.00499C241.841 2.97621 242.35 4.26697 242.339 5.60563C242.328 6.9443 241.798 8.22648 240.861 9.18234C239.923 10.1382 238.652 10.6932 237.314 10.7306Z" fill="#5BA763"/>
<path d="M224.859 30.0007C225.595 30.0135 226.298 30.311 226.819 30.8308C227.34 31.3507 227.639 32.0523 227.654 32.7882C227.648 33.1648 227.568 33.5366 227.418 33.8819C227.267 34.2272 227.05 34.5393 226.778 34.7999C226.506 35.0606 226.185 35.2646 225.834 35.4002C225.483 35.5358 225.108 35.6003 224.731 35.5899C223.99 35.5729 223.286 35.2622 222.774 34.7261C222.262 34.1901 221.984 33.4725 222.001 32.7313C222.018 31.9901 222.328 31.2861 222.864 30.774C223.401 30.2619 224.118 29.9838 224.859 30.0007Z" fill="#C80019"/>
<path d="M178.813 38.8818C179.549 38.8946 180.252 39.1921 180.773 39.7119C181.294 40.2318 181.593 40.9334 181.608 41.6693C181.602 42.0459 181.522 42.4177 181.372 42.763C181.222 43.1083 181.004 43.4204 180.732 43.681C180.46 43.9417 180.139 44.1457 179.788 44.2813C179.437 44.4169 179.062 44.4814 178.685 44.471C177.944 44.454 177.24 44.1433 176.728 43.6072C176.216 43.0712 175.938 42.3536 175.955 41.6124C175.972 40.8713 176.282 40.1672 176.819 39.6551C177.355 39.143 178.072 38.8649 178.813 38.8818" fill="#383736"/>
<path d="M248.859 48.0007C249.595 48.0135 250.298 48.311 250.819 48.8308C251.34 49.3507 251.639 50.0523 251.654 50.7882C251.648 51.1648 251.568 51.5366 251.418 51.8819C251.267 52.2272 251.05 52.5393 250.778 52.7999C250.506 53.0606 250.185 53.2646 249.834 53.4002C249.483 53.5358 249.108 53.6003 248.731 53.5899C247.99 53.5729 247.286 53.2622 246.774 52.7261C246.262 52.1901 245.984 51.4725 246.001 50.7313C246.018 49.9901 246.328 49.2861 246.864 48.774C247.4 48.2619 248.118 47.9838 248.859 48.0007" fill="#5BA763"/>
</svg>
