<svg width="23" height="23" viewBox="0 0 23 23" fill="none" xmlns="http://www.w3.org/2000/svg">
<g clip-path="url(#clip0)">
<path d="M13.0154 15.4882L13.0168 15.489C13.057 15.5098 13.0982 15.531 13.1401 15.5524C13.2014 15.5838 13.2641 15.616 13.3268 15.6489L14.8106 14.172M13.0154 15.4882L14.8106 14.172M13.0154 15.4882C12.8395 15.4004 12.6788 15.3201 12.5425 15.2357C11.1143 14.3298 9.81473 13.1484 8.56647 11.6171C7.98302 10.8806 7.58684 10.2597 7.29717 9.63623C7.63917 9.32078 7.96004 8.99564 8.27047 8.68106C8.30533 8.64575 8.34005 8.61056 8.37465 8.57554C8.44294 8.50735 8.51118 8.43799 8.57905 8.36901L8.57924 8.36881C8.64736 8.29958 8.71511 8.23073 8.7828 8.16313C9.3088 7.63789 9.57781 7.02851 9.57781 6.41278C9.57781 5.79705 9.3088 5.18767 8.7828 4.66243L7.45564 3.3372C7.30473 3.18651 7.15033 3.03232 7.00578 2.87836L7.00579 2.87835L7.00469 2.87721C6.71315 2.5764 6.4057 2.26447 6.08799 1.97155C5.60043 1.49026 5.01253 1.23032 4.39038 1.23032C3.76797 1.23032 3.17035 1.49046 2.66831 1.97172L2.6683 1.9717L2.66685 1.97314L2.66199 1.978L2.65713 1.98285L2.65682 1.98316L1.00426 3.64788C1.00421 3.64793 1.00416 3.64798 1.00411 3.64803C0.365344 4.28593 0.000244281 5.06508 -0.0796066 5.96708L-0.0796591 5.96769C-0.198206 7.40792 0.226512 8.74543 0.548514 9.6126C1.34069 11.7464 2.52356 13.7221 4.28438 15.8359L4.28459 15.8361C6.42276 18.3855 8.99592 20.3993 11.9355 21.8182L11.9362 21.8185C13.0567 22.3488 14.5634 22.982 16.2506 23.09L16.2522 23.0901C16.354 23.095 16.4633 23.0999 16.5633 23.0999C17.713 23.0999 18.6831 22.6862 19.4418 21.8639L19.4514 21.8535L19.4529 21.8504L13.0154 15.4882ZM14.8106 14.172L14.8107 14.1719M14.8106 14.172C14.8106 14.172 14.8106 14.1719 14.8107 14.1719M14.8107 14.1719C15.3172 13.6661 15.9152 13.3952 16.5438 13.3952C17.1774 13.3952 17.771 13.6712 18.2584 14.1777C18.2586 14.1779 18.2588 14.1781 18.259 14.1783L20.9262 16.8512C20.9262 16.8513 20.9263 16.8514 20.9264 16.8515C21.4335 17.3529 21.7045 17.9552 21.7045 18.5874C21.7045 19.2142 21.4389 19.8206 20.9427 20.3361L14.8107 14.1719ZM19.9924 19.2885C19.9721 19.3116 19.9509 19.3347 19.9286 19.3579L19.9273 19.3566V19.2614C19.9354 19.2617 19.9443 19.2629 19.9537 19.2659C19.9666 19.2699 19.9803 19.2771 19.9924 19.2885ZM20.1986 18.5925C20.1991 18.808 20.0957 19.0369 19.8654 19.2793C19.8584 19.2844 19.851 19.2912 19.8444 19.2998C19.843 19.3016 19.8414 19.3039 19.8397 19.3065C19.6905 19.466 19.5384 19.6137 19.3761 19.7713C19.3396 19.8067 19.3025 19.8427 19.2649 19.8793C18.949 20.1803 18.6258 20.498 18.3214 20.8557C17.8505 21.3577 17.2992 21.5941 16.5681 21.5941C16.4945 21.5941 16.4202 21.5941 16.3511 21.5895L16.3509 21.5895C14.9273 21.4985 13.6001 20.9428 12.5961 20.4633C9.85758 19.1395 7.45274 17.2601 5.45392 14.8776C3.80198 12.8894 2.70015 11.0545 1.97082 9.08673L1.97071 9.08645C1.52179 7.88626 1.36094 6.95988 1.43222 6.09105C1.47886 5.54663 1.68739 5.09788 2.0741 4.71172L3.7307 3.05753C3.95708 2.84569 4.18621 2.74099 4.4001 2.74099C4.66629 2.74099 4.88988 2.90244 5.0392 3.05155L5.04649 3.05883L5.05379 3.06611L5.05375 3.06615L5.05622 3.06846C5.35084 3.34336 5.63135 3.62826 5.9277 3.93388L5.92772 3.9339C6.0034 4.01191 6.08025 4.08986 6.15737 4.16809L6.15903 4.16978C6.23571 4.24754 6.31266 4.3256 6.38958 4.40481L6.38958 4.40481L6.39066 4.4059L7.71782 5.73113C7.96597 5.97892 8.07496 6.2025 8.07496 6.41278C8.07496 6.62306 7.96597 6.84664 7.71782 7.09444C7.66974 7.14244 7.62268 7.18999 7.57603 7.23711C7.48419 7.32989 7.394 7.42101 7.30099 7.51068L7.30096 7.51065L7.29891 7.51274C6.89095 7.92982 6.5039 8.31625 6.08349 8.69262L6.0834 8.6925L6.07984 8.69606C6.07984 8.69606 6.07982 8.69609 6.07976 8.69614C6.07962 8.69626 6.07932 8.69652 6.07877 8.69698L6.076 8.69927L6.07119 8.70328C6.06627 8.7075 6.05698 8.71565 6.04789 8.72801C5.82903 8.94939 5.73491 9.17359 5.71056 9.38363C5.68626 9.59329 5.73253 9.78047 5.77775 9.92347L5.77774 9.92348L5.77824 9.92498L5.78553 9.94683L5.79283 9.96867L5.7926 9.96875L5.79527 9.97521C6.14496 10.8211 6.63667 11.6155 7.37939 12.5572L7.37883 12.5576L7.38725 12.566L7.38845 12.5672C8.73498 14.2228 10.1565 15.5156 11.7262 16.5068C11.9298 16.6358 12.1377 16.7396 12.3311 16.8361L12.3329 16.8371C12.509 16.925 12.6699 17.0054 12.8062 17.0899L12.806 17.0902L12.8142 17.0943C12.8189 17.0967 12.8246 17.1001 12.8351 17.1067L12.8364 17.1075C12.8453 17.113 12.8585 17.1213 12.8726 17.1283C13.0498 17.2168 13.2206 17.2602 13.3985 17.2602C13.8434 17.2602 14.1212 16.9828 14.2069 16.8972L14.2081 16.896L15.8707 15.2359C16.0315 15.0753 16.2693 14.901 16.5341 14.901C16.7939 14.901 17.017 15.0659 17.1603 15.2228L17.1602 15.2229L17.1635 15.2261L17.1664 15.229L17.1683 15.231L17.1703 15.233L17.1709 15.2336L17.1716 15.2342L17.1723 15.235L17.1732 15.2359L19.8518 17.9106L19.8522 17.9109C20.091 18.1471 20.1981 18.3743 20.1986 18.5925Z" fill="#FF6700" stroke="#FF6700" stroke-width="0.2"/>
<path d="M18.2966 11.1917L18.2966 11.1917L18.3002 11.1912C18.7159 11.1238 18.9894 10.7314 18.9225 10.3191L18.9224 10.3184C18.6563 8.75889 17.9172 7.33721 16.7895 6.21107C15.6617 5.08493 14.238 4.34697 12.6763 4.08133L12.6763 4.08133L12.6755 4.0812C12.2623 4.01429 11.8756 4.28777 11.8027 4.69633C11.7301 5.1035 11.998 5.50218 12.4148 5.56983C13.6675 5.77995 14.8056 6.37189 15.7148 7.27977C16.6238 8.18746 17.2119 9.32391 17.4272 10.5752C17.4891 10.9453 17.8093 11.2022 18.1724 11.2022C18.214 11.2022 18.2513 11.1974 18.2849 11.1932C18.2888 11.1927 18.2927 11.1922 18.2966 11.1917Z" fill="#FF6700" stroke="#FF6700" stroke-width="0.2"/>
<path d="M11.9875 0.526408L11.9875 0.526405L11.9872 0.527935C11.9201 0.94132 12.1948 1.32719 12.6083 1.39973L12.6089 1.39983C14.8535 1.77981 16.9009 2.84274 18.5296 4.4643C20.1582 6.09051 21.2177 8.13473 21.5983 10.3761C21.6602 10.7462 21.9804 11.0031 22.3434 11.0031C22.3851 11.0031 22.4224 10.9983 22.456 10.994C22.4599 10.9935 22.4638 10.9931 22.4676 10.9926L22.4676 10.9926L22.4701 10.9922C22.8808 10.9304 23.1613 10.538 23.0885 10.1286C22.6523 7.57419 21.4466 5.24972 19.5945 3.40035C17.7424 1.55098 15.4146 0.347054 12.8566 -0.0885289C12.4456 -0.161413 12.06 0.119751 11.9875 0.526408Z" fill="#FF6700" stroke="#FF6700" stroke-width="0.2"/>
</g>
<defs>
<clipPath id="clip0">
<rect width="23" height="23" fill="white"/>
</clipPath>
</defs>
</svg>
