<svg width="32" height="32" viewBox="0 0 32 32" fill="none" xmlns="http://www.w3.org/2000/svg">
<path d="M8.87233 0.871436L8.87238 0.871436L25.4909 0.871436V0.971436L25.4909 0.871436C27.488 0.872814 29.1029 2.51845 29.1 4.54301M8.87233 0.871436L29 27.4C28.9996 29.3721 27.4253 30.9705 25.4836 30.9714H8.86513C6.92342 30.9705 5.34961 29.3721 5.34873 27.4V25.9571H5.24873M8.87233 0.871436C6.87398 0.872354 5.25666 2.51699 5.25598 4.54283V4.54286V5.98572M8.87233 0.871436L5.35598 5.98572M29.1 4.54301L29 4.54286H29.1V4.54301ZM29.1 4.54301V27.4C29.0995 29.4259 27.482 31.0705 25.4836 31.0714H25.4836H8.86513H8.86508C6.86672 31.0705 5.24963 29.4259 5.24873 27.4001V27.4V25.9571M5.24873 25.9571V25.8571H3.70328C3.31472 25.8571 3 25.5373 3 25.1429C3 24.7484 3.31472 24.4286 3.70328 24.4286H5.24873V24.3286M5.24873 25.9571H3.70328C3.25801 25.9571 2.9 25.591 2.9 25.1429C2.9 24.6947 3.25801 24.3286 3.70328 24.3286H5.24873M5.35598 4.54286C5.35664 2.57077 6.93067 0.972328 8.87238 0.971436L5.35598 4.54286ZM5.35598 4.54286V5.98572M5.35598 4.54286V5.98572M5.24873 24.3286H5.34873V19.8429H5.24873M5.24873 24.3286V19.8429M5.24873 19.8429V19.7429H3.70328C3.31472 19.7429 3 19.4232 3 19.0286C3 18.6342 3.31472 18.3143 3.70328 18.3143H5.24873V18.2143M5.24873 19.8429H3.70328C3.25803 19.8429 2.9 19.477 2.9 19.0286C2.9 18.5804 3.25801 18.2143 3.70328 18.2143H5.24873M5.24873 18.2143H5.34873V13.7286H5.24873M5.24873 18.2143V13.7286M5.24873 13.7286V13.6286H3.70328C3.31472 13.6286 3 13.3087 3 12.9143C3 12.5196 3.31472 12.2 3.70328 12.2H5.24873V12.1M5.24873 13.7286H3.70328C3.25801 13.7286 2.9 13.3625 2.9 12.9143C2.9 12.4659 3.25803 12.1 3.70328 12.1H5.24873M5.24873 12.1H5.34873V7.61429H5.24873M5.24873 12.1V7.61429M5.24873 7.61429V7.51429H3.70328C3.31472 7.51429 3 7.19443 3 6.80001C3 6.40559 3.31472 6.08572 3.70328 6.08572H5.25598V5.98572M5.24873 7.61429H3.70328C3.25801 7.61429 2.9 7.24816 2.9 6.80001C2.9 6.35185 3.25801 5.98572 3.70328 5.98572H5.25598M5.25598 5.98572H5.35598M25.4909 29.4429C26.598 29.4395 27.4973 28.528 27.5007 27.3997V4.54316C27.4973 3.41482 26.5979 2.50328 25.4907 2.50001H8.8725C7.76535 2.50328 6.86573 3.41478 6.86254 4.54306C6.86254 4.54309 6.86254 4.54311 6.86254 4.54314L6.86254 5.98572H8.40799C8.85326 5.98572 9.21127 6.35185 9.21127 6.80001C9.21127 7.24816 8.85326 7.61429 8.40799 7.61429H6.86254V12.1H8.40799C8.85324 12.1 9.21127 12.4659 9.21127 12.9143C9.21127 13.3625 8.85326 13.7286 8.40799 13.7286H6.86254V18.2143H8.40799C8.85326 18.2143 9.21127 18.5804 9.21127 19.0286C9.21127 19.477 8.85324 19.8429 8.40799 19.8429H6.86254V24.3286H8.40799C8.85326 24.3286 9.21127 24.6947 9.21127 25.1429C9.21127 25.591 8.85326 25.9571 8.40799 25.9571H6.86254L6.86254 27.3997C6.86254 27.3998 6.86254 27.3998 6.86254 27.3998C6.86573 28.528 7.76528 29.4395 8.87238 29.4429C8.87247 29.4429 8.87257 29.4429 8.87267 29.4429M25.4909 29.4429L8.87238 29.5429L8.87267 29.4429M25.4909 29.4429L25.4906 29.4429M25.4909 29.4429L25.4906 29.4429M8.87267 29.4429H25.4906M8.87267 29.4429H25.4906" fill="#FF6700" stroke="#FF6700" stroke-width="0.2"/>
<path d="M13.9 12.5L13.9 12.5001C13.9019 14.4875 15.5123 16.0981 17.4999 16.1L17.5 16.0001V16.1C19.4881 16.1 21.1 14.4884 21.1 12.5C21.1 10.5116 19.4881 8.9 17.5 8.9C15.5117 8.9 13.9 10.5117 13.9 12.5ZM15.5433 12.4929C15.5453 11.4132 16.42 10.5381 17.5001 10.5361C18.5805 10.5361 19.4567 11.4124 19.4567 12.4928C19.4567 13.5733 18.5805 14.4495 17.5 14.4495C16.4194 14.4495 15.5434 13.5733 15.5433 12.4929Z" fill="#FF6700" stroke="#FF6700" stroke-width="0.2"/>
<path d="M11.9 22.3088L11.9 22.3091C11.9013 22.7517 12.2838 23.0988 12.741 23.1H12.7412L22.2588 23.1L22.259 23.1C22.7162 23.0988 23.0987 22.7517 23.1 22.3091V22.3088C23.1 19.2709 20.6352 16.9 17.5001 16.9C14.3648 16.9 11.9 19.2709 11.9 22.3088ZM21.3386 21.5175H13.6619C14.0171 19.7418 15.5437 18.4825 17.5001 18.4825C19.4568 18.4825 20.9903 19.7422 21.3386 21.5175Z" fill="#FF6700" stroke="#FF6700" stroke-width="0.2"/>
</svg>
