<svg width="33" height="31" viewBox="0 0 33 31" fill="none" xmlns="http://www.w3.org/2000/svg">
<path d="M6.3669 9.42976H26.6331C27.0363 9.42976 27.3621 9.10114 27.3621 8.69711C27.3621 8.29299 27.0362 7.96445 26.633 7.96445H6.3669C5.96369 7.96445 5.63779 8.29299 5.63779 8.69711C5.63779 9.10115 5.96369 9.42976 6.3669 9.42976Z" fill="#FF6700" stroke="#FF6700" stroke-width="0.2"/>
<path d="M6.3669 13.481H26.6331C27.0363 13.481 27.3621 13.1524 27.3621 12.7484C27.3621 12.3443 27.0362 12.0157 26.633 12.0157H6.3669C5.96369 12.0157 5.63779 12.3443 5.63779 12.7484C5.63779 13.1524 5.96369 13.481 6.3669 13.481Z" fill="#FF6700" stroke="#FF6700" stroke-width="0.2"/>
<path d="M6.3669 17.5321H26.6331C27.0363 17.5321 27.3621 17.2034 27.3621 16.7994C27.3621 16.3952 27.0362 16.0667 26.633 16.0667H6.3669C5.96369 16.0667 5.63779 16.3953 5.63779 16.7994C5.63779 17.2034 5.96369 17.5321 6.3669 17.5321Z" fill="#FF6700" stroke="#FF6700" stroke-width="0.2"/>
<path d="M25.9184 28.7552C25.7727 28.7552 25.6285 28.7043 25.5128 28.6063L19.2296 23.2797H5.30932C2.93313 23.2796 1 21.3357 1 18.9463V6.57817C1 4.18876 2.93313 2.24487 5.30932 2.24487H27.6907C30.0669 2.24487 32 4.18883 32 6.57817V18.9463C32 21.3357 30.0669 23.2796 27.6907 23.2796H26.5474V28.1225C26.5474 28.3687 26.4055 28.5925 26.1835 28.6962C26.0988 28.7358 26.0083 28.7552 25.9184 28.7552ZM5.30932 3.51018C3.62697 3.51018 2.25828 4.88645 2.25828 6.57817V18.9463C2.25828 20.638 3.62697 22.0143 5.30932 22.0143H19.4594C19.6078 22.0143 19.7514 22.0671 19.865 22.1633L25.2891 26.7617V22.647C25.2891 22.2976 25.5709 22.0143 25.9183 22.0143H27.6907C29.373 22.0143 30.7417 20.638 30.7417 18.9463V6.57817C30.7417 4.88645 29.373 3.51018 27.6907 3.51018H5.30932Z" fill="#FF6700" stroke="#FF6700" stroke-width="0.5"/>
</svg>
