<svg width="29" height="29" viewBox="0 0 29 29" fill="none" xmlns="http://www.w3.org/2000/svg">
<g clip-path="url(#clip0)">
<path d="M14.686 10.6625C12.9971 10.6625 11.6278 12.0316 11.6278 13.7206C11.6278 15.4096 12.997 16.7788 14.686 16.7788C16.375 16.7788 17.7442 15.4096 17.7442 13.7206C17.7442 12.0316 16.375 10.6625 14.686 10.6625ZM14.686 15.1701C13.8855 15.1701 13.2365 14.5211 13.2365 13.7206C13.2365 12.92 13.8855 12.271 14.686 12.271C15.4866 12.271 16.1355 12.92 16.1355 13.7206C16.1355 14.5211 15.4866 15.1701 14.686 15.1701Z" fill="#FF6700" stroke="#FF6700" stroke-width="0.2"/>
<path d="M26.4953 3.9016L26.4948 3.90155L7.26817 1.71836C6.49483 1.60882 5.71142 1.83444 5.11482 2.33855C4.51919 2.80113 4.13733 3.4862 4.05716 4.23612L3.71585 7.03521H2.71262C1.09838 7.03521 -0.0990483 8.46336 -0.0990483 10.0581V24.4602C-0.138799 25.9924 1.0707 27.2671 2.60314 27.3076C2.63987 27.3086 2.67661 27.3088 2.71322 27.3083H22.0462C23.6412 27.3083 25.1044 26.0756 25.1044 24.4615V23.9796C25.5686 23.8788 26.0088 23.6877 26.3996 23.4168L26.3998 23.4171L26.407 23.4111C26.9971 22.9142 27.375 22.2106 27.4632 21.4444L27.4632 21.4442L29.0832 7.14647L29.0833 7.14578C29.2542 5.53824 28.1006 4.09214 26.4953 3.9016ZM23.4958 24.3615H23.4957V24.4615C23.4957 24.8132 23.3203 25.1211 23.0482 25.3437C22.7755 25.5668 22.4104 25.6997 22.0462 25.6997H2.71262V25.6996L2.70968 25.6997C2.06502 25.7187 1.52708 25.2114 1.50814 24.5667L1.50814 24.5667C1.50715 24.5335 1.50758 24.5003 1.50944 24.4671L1.5096 24.4671V24.4615V21.9061L6.92737 17.9214L6.92738 17.9214L6.92902 17.9202C7.54595 17.4465 8.4149 17.4886 8.98327 18.0196L8.98324 18.0196L8.98544 18.0215L12.824 21.4023L12.824 21.4023L12.8258 21.4038C13.4263 21.908 14.1823 22.1899 14.9663 22.202L14.9667 22.202C15.58 22.2095 16.1833 22.0462 16.7091 21.7303C16.7093 21.7302 16.7096 21.73 16.7098 21.7299L23.4958 17.803V24.3615ZM15.8683 20.3604L15.8677 20.3608C15.2454 20.7295 14.4579 20.6629 13.9063 20.1952C13.906 20.195 13.9058 20.1947 13.9056 20.1945L10.0332 16.7798L10.0332 16.7798L10.0323 16.7789C8.88673 15.7946 7.21246 15.7342 5.99894 16.6333C5.99881 16.6334 5.99869 16.6335 5.99856 16.6336L1.5096 19.8983V10.0581C1.5096 9.31819 2.01148 8.64386 2.71262 8.64386H22.0441C22.8188 8.67699 23.4443 9.28794 23.4957 10.0614V15.9169L15.8683 20.3604ZM22.0462 7.03521H5.32517L5.62881 4.40366C5.69354 4.07318 5.86615 3.77361 6.11959 3.55184C6.40806 3.35394 6.756 3.26163 7.1048 3.29048L26.296 5.50889L26.296 5.50891L26.298 5.50911C27.0174 5.57742 27.5453 6.21609 27.477 6.93561L27.4758 6.94756L25.8206 21.2453L25.8199 21.2452L25.82 21.2576C25.8226 21.5973 25.6676 21.9191 25.4004 22.129L25.3999 22.1284L25.3914 22.1369C25.3364 22.192 25.2405 22.2378 25.139 22.2839L25.1305 22.2878C25.1218 22.2917 25.1131 22.2957 25.1043 22.2997V10.0581H25.1044L25.1043 10.0547C25.0468 8.39737 23.7063 7.07277 22.0484 7.03524V7.03521H22.0462Z" fill="#FF6700" stroke="#FF6700" stroke-width="0.2"/>
</g>
<defs>
<clipPath id="clip0">
<rect width="29" height="29" fill="white"/>
</clipPath>
</defs>
</svg>
