<svg width="27" height="27" viewBox="0 0 27 27" fill="none" xmlns="http://www.w3.org/2000/svg">
<g clip-path="url(#clip0)">
<path d="M25.4991 5.28398C25.0665 5.34599 24.7662 5.74664 24.8282 6.17902C24.8509 6.33826 24.8694 6.49296 24.8859 6.6456C25.0739 8.39078 24.8486 9.71367 24.1985 10.6771C23.4911 11.725 22.1797 12.3397 20.9353 12.2064C20.6445 12.1751 20.3581 12.1032 20.0846 11.9963C20.1346 11.91 20.181 11.8216 20.2234 11.7316C20.4523 11.2471 20.5472 10.6895 20.5102 10.136C20.4817 9.71367 20.3767 9.29406 20.1944 8.91071C19.8308 8.14606 19.2186 7.62325 18.4702 7.43847C17.6446 7.23474 16.7343 7.78351 16.4408 8.66166C16.2492 9.23473 16.2996 9.89021 16.5907 10.6097C16.8326 11.2077 17.1867 11.7477 17.6227 12.2062C17.2289 12.4161 16.7658 12.5685 16.2568 12.6489C15.8252 12.7171 15.5307 13.122 15.5989 13.5536C15.6602 13.9433 15.9966 14.2212 16.3792 14.2212C16.4202 14.2212 16.4618 14.2181 16.5034 14.2115C17.4487 14.0622 18.2935 13.7163 18.9638 13.2234C19.5208 13.5182 20.132 13.7112 20.7668 13.7792C20.9397 13.7977 21.1123 13.8068 21.2849 13.8068C22.9483 13.8068 24.5656 12.9607 25.5096 11.5621C26.4463 10.1743 26.7355 8.3401 26.3942 5.9549C26.3322 5.52252 25.9311 5.22198 25.4991 5.28398V5.28398ZM17.9412 9.16305C17.9733 9.06706 18.0621 8.99228 18.1056 8.97827C18.4729 9.07612 18.6764 9.40241 18.7656 9.59007C18.985 10.0513 18.9957 10.6268 18.793 11.0563C18.7848 11.0738 18.7761 11.0914 18.7672 11.1087C18.4659 10.792 18.2212 10.4221 18.0574 10.0167C17.9136 9.66114 17.8734 9.36595 17.9412 9.16305Z" fill="#FF6700"/>
<path d="M21.2662 16.805C21.2662 16.2554 20.8257 15.8101 20.2825 15.8101C19.7391 15.8101 19.2987 16.2554 19.2987 16.805C19.2987 17.3544 19.7391 17.7998 20.2825 17.7998C20.8257 17.7998 21.2662 17.3544 21.2662 16.805Z" fill="#FF6700"/>
<path d="M22.7353 6.0758C22.7353 5.52641 22.2949 5.08105 21.7515 5.08105C21.2083 5.08105 20.7679 5.52641 20.7679 6.0758C20.7679 6.62518 21.2083 7.07054 21.7515 7.07054C22.2949 7.07054 22.7353 6.62518 22.7353 6.0758V6.0758Z" fill="#FF6700"/>
<path d="M24.7159 4.50323C25.9475 4.50323 26.9497 3.49324 26.9497 2.25172C26.9497 1.00999 25.9478 0 24.7159 0C23.4841 0 22.4821 1.00999 22.4821 2.25172C22.4821 3.49324 23.4843 4.50323 24.7159 4.50323ZM24.7159 1.58203C25.0754 1.58203 25.3679 1.88237 25.3679 2.25172C25.3679 2.62086 25.0754 2.9212 24.7159 2.9212C24.3565 2.9212 24.0639 2.62086 24.0639 2.25172C24.0639 1.88237 24.3565 1.58203 24.7159 1.58203Z" fill="#FF6700"/>
<path d="M14.2356 9.47497C14.2356 8.92558 13.7952 8.48022 13.2517 8.48022C12.7085 8.48022 12.2681 8.92558 12.2681 9.47497C12.2681 10.0244 12.7085 10.4697 13.2517 10.4697C13.7952 10.4697 14.2356 10.0244 14.2356 9.47497Z" fill="#FF6700"/>
<path d="M19.3622 2.12487C19.3622 1.57549 18.9216 1.13013 18.3784 1.13013C17.8349 1.13013 17.3945 1.57549 17.3945 2.12487C17.3945 2.67446 17.8349 3.11982 18.3784 3.11982C18.9216 3.11982 19.3622 2.67446 19.3622 2.12487Z" fill="#FF6700"/>
<path d="M12.8868 5.39297H13.2565V5.77694C13.2565 6.21385 13.6106 6.56796 14.0476 6.56796C14.4845 6.56796 14.8386 6.21385 14.8386 5.77694V5.39297H15.2083C15.6452 5.39297 15.9993 5.03866 15.9993 4.60195C15.9993 4.16504 15.6452 3.81094 15.2083 3.81094H14.8386V3.42676C14.8386 2.99005 14.4845 2.63574 14.0476 2.63574C13.6106 2.63574 13.2565 2.99005 13.2565 3.42676V3.81094H12.8868C12.4499 3.81094 12.0958 4.16504 12.0958 4.60195C12.0958 5.03866 12.4499 5.39297 12.8868 5.39297Z" fill="#FF6700"/>
<path d="M7.9763 7.30301C7.68091 6.98105 7.18055 6.95942 6.85858 7.25461C6.53661 7.55 6.51519 8.05036 6.81038 8.37233L7.1206 8.71057L0.185414 24.7888C-0.0675465 25.3757 0.046574 26.0301 0.483281 26.4967C0.791035 26.8252 1.20199 27.0001 1.62881 27.0001C1.80782 27.0001 1.98992 26.9692 2.1679 26.906L18.4892 21.1046L18.7156 21.3514C18.8717 21.5215 19.0849 21.6076 19.2987 21.6076C19.4899 21.6076 19.6813 21.5388 19.8333 21.3996C20.1553 21.1042 20.1767 20.6038 19.8815 20.2821L7.9763 7.30301ZM7.33999 23.3886L4.96158 17.7102L7.17313 12.5832L11.1338 22.0402L7.33999 23.3886ZM1.63808 25.4152L4.09147 19.7275L5.84694 23.9193L1.63808 25.4152ZM12.6266 21.5096L8.04325 10.566L8.28879 9.997L17.3187 19.8416L12.6266 21.5096Z" fill="#FF6700"/>
</g>
<defs>
<clipPath id="clip0">
<rect width="27" height="27" fill="white"/>
</clipPath>
</defs>
</svg>
