<svg width="25" height="25" viewBox="0 0 25 25" fill="none" xmlns="http://www.w3.org/2000/svg">
<g clip-path="url(#clip0)">
<path d="M24.5801 11.6627L22.4682 9.71909V3.27422C22.4682 2.86415 22.139 2.53166 21.733 2.53166H16.6492C16.2432 2.53166 15.914 2.8641 15.914 3.27422V3.6872L13.3634 1.33987C12.8711 0.886695 12.1287 0.886744 11.6365 1.33982L0.419817 11.6628C0.0254808 12.0257 -0.104841 12.585 0.0878344 13.0875C0.280559 13.59 0.749797 13.9146 1.28334 13.9146H3.0748V24.2574C3.0748 24.6675 3.40395 25 3.81 25H9.9581C10.3641 25 10.6933 24.6675 10.6933 24.2574V17.9776H14.3066V24.2574C14.3066 24.6675 14.6358 25 15.0418 25H21.1897C21.5957 25 21.9249 24.6676 21.9248 24.2574V13.9147H23.7167C24.2502 13.9147 24.7195 13.59 24.9122 13.0875C25.1048 12.585 24.9746 12.0257 24.5801 11.6627ZM21.1897 12.4295C20.7837 12.4295 20.4545 12.762 20.4545 13.1721V23.5149H15.7771V17.235C15.7771 16.8249 15.4479 16.4925 15.0419 16.4925H9.9581C9.55209 16.4925 9.22289 16.8249 9.22289 17.235V23.5149H4.54516V13.1721C4.54516 12.762 4.21601 12.4295 3.80995 12.4295H1.76977L12.5 2.55434L16.1541 5.91731C16.3694 6.11536 16.6801 6.1664 16.9463 6.0477C17.2126 5.92885 17.3845 5.66244 17.3845 5.36841V4.01678H20.9978V10.047C20.9978 10.256 21.085 10.4552 21.2379 10.5959L23.2302 12.4295H21.1897Z" fill="#FF6700"/>
</g>
<defs>
<clipPath id="clip0">
<rect width="25" height="25" fill="white"/>
</clipPath>
</defs>
</svg>
