<svg width="28" height="28" viewBox="0 0 28 28" fill="none" xmlns="http://www.w3.org/2000/svg">
<path d="M27.1797 13.1797H24.7188C24.2657 13.1797 23.8984 13.547 23.8984 14C23.8984 14.453 24.2657 14.8203 24.7188 14.8203H27.1797C27.6327 14.8203 28 14.453 28 14C28 13.547 27.6327 13.1797 27.1797 13.1797Z" fill="#FF6700"/>
<path d="M26.1191 18.342L24.4785 16.7014C24.1582 16.3811 23.6388 16.3811 23.3184 16.7014C22.998 17.0217 22.998 17.5411 23.3184 17.8615L24.9591 19.5021C25.2794 19.8225 25.7988 19.8225 26.1191 19.5021C26.4395 19.1818 26.4395 18.6624 26.1191 18.342Z" fill="#FF6700"/>
<path d="M26.1191 8.49829C25.7988 8.17798 25.2794 8.17798 24.959 8.49829L23.3184 10.1389C22.998 10.4593 22.998 10.9786 23.3184 11.299C23.6388 11.6194 24.1582 11.6193 24.4785 11.299L26.1191 9.65837C26.4395 9.33801 26.4395 8.81864 26.1191 8.49829Z" fill="#FF6700"/>
<path d="M18.9766 3.33594C17.7444 3.33594 16.721 4.24621 16.5431 5.42959L15.7948 6.17788C14.4925 7.48027 12.5745 8.25781 10.6641 8.25781H5.74219C4.67277 8.25781 3.76097 8.94365 3.42234 9.89844H3.28125C1.47197 9.89844 0 11.3704 0 13.1797C0 14.989 1.47197 16.4609 3.28125 16.4609H3.42234C3.66991 17.159 4.22384 17.7129 4.92188 17.9605V22.2031C4.92188 23.5601 6.02591 24.6641 7.38287 24.6641C8.73977 24.6641 9.84375 23.5601 9.84375 22.2031V18.1016H10.6641C12.5744 18.1016 14.4924 18.8791 15.7948 20.1815L16.5431 20.9298C16.721 22.1131 17.7445 23.0234 18.9766 23.0234C20.3335 23.0234 21.4375 21.9195 21.4375 20.5625V5.79688C21.4375 4.43991 20.3335 3.33594 18.9766 3.33594ZM3.28125 14.8203C2.37661 14.8203 1.64062 14.0843 1.64062 13.1797C1.64062 12.275 2.37661 11.5391 3.28125 11.5391V14.8203ZM8.20312 22.2031C8.20312 22.6554 7.83513 23.0234 7.38281 23.0234C6.93049 23.0234 6.5625 22.6554 6.5625 22.2031V18.1016H8.20312V22.2031ZM9.84375 16.4609H5.74219C5.28987 16.4609 4.92188 16.0929 4.92188 15.6406V10.7188C4.92188 10.2664 5.28987 9.89844 5.74219 9.89844H9.84375V16.4609ZM16.5156 18.6127C15.1298 17.4133 13.348 16.668 11.4789 16.4981L11.479 9.8612C13.348 9.69134 15.1298 8.94611 16.5156 7.74665V18.6127ZM19.7969 20.5625C19.7969 21.0148 19.4289 21.3828 18.9766 21.3828H18.9766C18.5242 21.3828 18.1562 21.0148 18.1562 20.5625V5.79688C18.1562 5.34455 18.5242 4.97656 18.9766 4.97656C19.4289 4.97656 19.7969 5.34455 19.7969 5.79688V20.5625Z" fill="#FF6700"/>
</svg>
