<svg width="30" height="30" viewBox="0 0 30 30" fill="none" xmlns="http://www.w3.org/2000/svg">
<g clip-path="url(#clip0)">
<path d="M27.3955 15L29.8242 11.7617C30.024 11.4954 30.0561 11.1391 29.9072 10.8413C29.7584 10.5435 29.454 10.3555 29.1211 10.3555H24.4141C24.1375 10.3555 23.877 10.4857 23.711 10.707L23.6179 10.8311C21.8921 6.0992 17.3388 2.82422 12.1758 2.82422C5.46205 2.82422 0 8.28627 0 15C0 21.7137 5.46205 27.1758 12.1758 27.1758C17.3388 27.1758 21.8921 23.9008 23.6179 19.1689L23.711 19.293C23.877 19.5143 24.1375 19.6446 24.4141 19.6446H29.1211C29.454 19.6446 29.7583 19.4565 29.9072 19.1587C30.0561 18.8609 30.024 18.5046 29.8242 18.2383L27.3955 15ZM22.3097 17.4248C21.1996 22.0792 16.9985 25.418 12.1758 25.418C6.43131 25.418 1.75781 20.7445 1.75781 15C1.75781 9.25553 6.43131 4.58203 12.1758 4.58203C16.9985 4.58203 21.1996 7.92076 22.3098 12.5752L21.3615 13.8397L21.1504 14.1211H20.5402C20.0993 9.89526 16.5164 6.58986 12.1758 6.58986C7.53838 6.58986 3.76564 10.3627 3.76564 15C3.76564 19.6373 7.53838 23.4101 12.1758 23.4101C16.5163 23.4101 20.0993 20.1048 20.5402 15.8789H21.1504L21.3615 16.1603L22.3097 17.4248ZM16.7358 14.1211C16.3238 11.9791 14.4363 10.3555 12.1758 10.3555C9.61477 10.3555 7.53123 12.439 7.53123 15C7.53123 17.561 9.61477 19.6446 12.1758 19.6446C14.4363 19.6446 16.3238 18.021 16.7358 15.8789H18.77C18.3386 19.1331 15.546 21.6523 12.1758 21.6523C8.50764 21.6523 5.52346 18.6681 5.52346 15C5.52346 11.3319 8.50764 8.34768 12.1758 8.34768C15.546 8.34768 18.3386 10.8669 18.77 14.1211H16.7358ZM12.1758 15.8789H14.9252C14.5525 17.0421 13.4611 17.8867 12.1758 17.8867C10.584 17.8867 9.28904 16.5918 9.28904 15C9.28904 13.4082 10.584 12.1133 12.1758 12.1133C13.4612 12.1133 14.5525 12.9579 14.9252 14.1211H12.1758C11.6904 14.1211 11.2969 14.5146 11.2969 15C11.2969 15.4854 11.6904 15.8789 12.1758 15.8789ZM25.5937 15.5273L27.3633 17.8867H24.8535L22.6885 15L24.8535 12.1133H27.3633L25.5937 14.4727C25.3594 14.7852 25.3594 15.2149 25.5937 15.5273V15.5273Z" fill="#FF6700"/>
</g>
<defs>
<clipPath id="clip0">
<rect width="30" height="30" fill="white"/>
</clipPath>
</defs>
</svg>
