<svg width="41" height="41" viewBox="0 0 41 41" fill="none" xmlns="http://www.w3.org/2000/svg">
<g clip-path="url(#clip0)">
<path d="M4.72961 27.3301L0.281523 37.642C-0.102602 38.5332 0.0706918 39.527 0.733839 40.2355C1.20117 40.7344 1.82522 41 2.47335 41C2.74518 41 3.0217 40.9531 3.29196 40.857L10.0636 38.45L4.72961 27.3301Z" fill="white"/>
<path d="M8.94997 17.5455L5.99115 24.4057L12.3398 37.6408L17.6791 35.743L8.94997 17.5455Z" fill="white"/>
<path d="M38.7209 8.02378C38.064 8.11793 37.6079 8.72634 37.7021 9.38292C37.7365 9.62472 37.7647 9.85963 37.7897 10.0914C38.0753 12.7415 37.7331 14.7503 36.7458 16.2133C35.6717 17.8046 33.6804 18.738 31.7907 18.5356C31.349 18.488 30.9142 18.3789 30.4988 18.2165C30.5748 18.0855 30.6452 17.9513 30.7096 17.8146C31.0572 17.0789 31.2014 16.2321 31.1451 15.3916C31.1019 14.7503 30.9424 14.1132 30.6655 13.531C30.1134 12.3699 29.1838 11.576 28.0474 11.2954C26.7936 10.986 25.4113 11.8194 24.9656 13.1528C24.6747 14.0231 24.7513 15.0184 25.1933 16.111C25.5606 17.0191 26.0983 17.839 26.7605 18.5353C26.1624 18.854 25.4592 19.0855 24.6863 19.2075C24.0309 19.311 23.5836 19.926 23.6872 20.5813C23.7804 21.1732 24.2912 21.5951 24.8721 21.5951C24.9343 21.5951 24.9975 21.5904 25.0607 21.5804C26.4962 21.3537 27.779 20.8285 28.7968 20.0799C29.6427 20.5275 30.5708 20.8206 31.5348 20.9239C31.7973 20.952 32.0594 20.9658 32.3215 20.9658C34.8474 20.9658 37.3033 19.6811 38.7369 17.5571C40.1592 15.4498 40.5984 12.6646 40.08 9.04259C39.9859 8.38601 39.3769 7.92963 38.7209 8.02378ZM27.2441 13.9142C27.2929 13.7684 27.4277 13.6549 27.4937 13.6336C28.0514 13.7822 28.3605 14.2777 28.4959 14.5627C28.8291 15.263 28.8453 16.137 28.5375 16.7892C28.525 16.8158 28.5119 16.8424 28.4984 16.8687C28.0408 16.3879 27.6692 15.8261 27.4205 15.2105C27.2022 14.6706 27.1412 14.2223 27.2441 13.9142Z" fill="white"/>
<path d="M32.2931 25.5187C32.2931 24.6841 31.6243 24.0078 30.7994 24.0078C29.9743 24.0078 29.3055 24.6841 29.3055 25.5187C29.3055 26.3529 29.9743 27.0292 30.7994 27.0292C31.6243 27.0292 32.2931 26.3529 32.2931 25.5187Z" fill="white"/>
<path d="M34.524 9.22611C34.524 8.39186 33.8552 7.71558 33.03 7.71558C32.2052 7.71558 31.5364 8.39186 31.5364 9.22611C31.5364 10.0604 32.2052 10.7366 33.03 10.7366C33.8552 10.7366 34.524 10.0604 34.524 9.22611Z" fill="white"/>
<path d="M37.5316 6.83823C39.4019 6.83823 40.9237 5.30455 40.9237 3.41927C40.9237 1.53368 39.4022 0 37.5316 0C35.661 0 34.1396 1.53368 34.1396 3.41927C34.1396 5.30455 35.6614 6.83823 37.5316 6.83823Z" fill="white"/>
<path d="M21.617 14.3881C21.617 13.5538 20.9482 12.8776 20.1231 12.8776C19.2982 12.8776 18.6294 13.5538 18.6294 14.3881C18.6294 15.2224 19.2982 15.8986 20.1231 15.8986C20.9482 15.8986 21.617 15.2224 21.617 14.3881Z" fill="white"/>
<path d="M29.4018 3.2266C29.4018 2.39235 28.7327 1.71606 27.9078 1.71606C27.0827 1.71606 26.4139 2.39235 26.4139 3.2266C26.4139 4.06116 27.0827 4.73745 27.9078 4.73745C28.7327 4.73745 29.4018 4.06116 29.4018 3.2266Z" fill="white"/>
<path d="M19.5688 8.18922H20.1303V8.77228C20.1303 9.43574 20.668 9.97346 21.3314 9.97346C21.9949 9.97346 22.5326 9.43574 22.5326 8.77228V8.18922H23.0941C23.7576 8.18922 24.2953 7.65119 24.2953 6.98804C24.2953 6.32458 23.7576 5.78687 23.0941 5.78687H22.5326V5.20349C22.5326 4.54034 21.9949 4.00232 21.3314 4.00232C20.668 4.00232 20.1303 4.54034 20.1303 5.20349V5.78687H19.5688C18.9053 5.78687 18.3676 6.32458 18.3676 6.98804C18.3676 7.65119 18.9053 8.18922 19.5688 8.18922Z" fill="white"/>
<path d="M12.1121 11.0895C11.6636 10.6006 10.9038 10.5678 10.4148 11.016C9.92593 11.4646 9.8934 12.2244 10.3417 12.7133L10.8127 13.2269L10.2115 14.6211L19.9554 34.934L28.0761 32.0475L28.4199 32.4222C28.657 32.6806 28.9808 32.8113 29.3055 32.8113C29.5958 32.8113 29.8863 32.7069 30.1172 32.4954C30.6061 32.0468 30.6386 31.287 30.1904 30.7984L12.1121 11.0895Z" fill="white"/>
</g>
<defs>
<clipPath id="clip0">
<rect width="41" height="41" fill="white"/>
</clipPath>
</defs>
</svg>
