<svg width="46" height="41" viewBox="0 0 46 41" fill="none" xmlns="http://www.w3.org/2000/svg">
<path d="M24.1551 6.15881C16.6561 6.15881 10.577 12.2379 10.577 19.7369C10.577 27.2359 16.6561 33.3151 24.1551 33.3151C31.6541 33.3151 37.7332 27.2359 37.7332 19.7369C37.7332 12.2379 31.6541 6.15881 24.1551 6.15881ZM24.155 30.0397C18.4741 30.0397 13.8524 25.4179 13.8524 19.737C13.8524 14.0561 18.4741 9.43433 24.155 9.43433C29.8359 9.43433 34.4577 14.0561 34.4577 19.737C34.4577 25.4179 29.836 30.0397 24.155 30.0397Z" fill="white"/>
<path d="M24.155 12.1959C19.9969 12.1959 16.614 15.5788 16.614 19.737C16.614 23.8951 19.9969 27.278 24.155 27.278C28.3132 27.278 31.6961 23.8951 31.6961 19.737C31.6961 15.5788 28.3132 12.1959 24.155 12.1959Z" fill="white"/>
<path d="M5.4787 17.6045C6.52308 16.9719 7.22113 15.8248 7.22113 14.5146L6.70382 6.05667C6.68404 5.73428 6.41682 5.48291 6.09379 5.48291C5.7444 5.48291 5.46605 5.7756 5.48343 6.12434L5.81984 12.9077C5.81984 13.289 5.51066 13.598 5.12948 13.598C4.74823 13.598 4.43913 13.2888 4.43913 12.9077L4.27105 6.12714C4.26216 5.76879 3.96915 5.48299 3.61064 5.48299C3.25213 5.48299 2.95921 5.76887 2.95024 6.12714L2.78215 12.9077C2.78215 13.289 2.47297 13.598 2.0918 13.598C1.71055 13.598 1.40145 13.2888 1.40145 12.9077L1.73786 6.12434C1.75515 5.77544 1.47664 5.48291 1.1275 5.48291C0.804465 5.48291 0.537244 5.73428 0.517545 6.05667L0 14.5147C0 15.8249 0.697961 16.9719 1.74242 17.6046C2.42212 18.0163 2.80105 18.786 2.71345 19.5759C2.12383 24.8897 1.72344 33.5649 1.72344 34.5099C1.72344 35.8826 2.56835 36.9954 3.61056 36.9954C4.65278 36.9954 5.49768 35.8826 5.49768 34.5099C5.49768 33.5649 5.09721 24.8897 4.50768 19.5759C4.41999 18.7864 4.79932 18.016 5.4787 17.6045Z" fill="white"/>
<path d="M45.1444 20.8752V4.3753C45.1444 4.21611 45.0427 4.07461 44.8917 4.02376C44.7408 3.97299 44.5744 4.02432 44.478 4.15116C42.4194 6.86605 41.3052 10.1797 41.3052 13.5868V19.6229C41.3052 20.3152 41.8664 20.8764 42.5587 20.8764H43.0813C42.5662 26.1971 42.2258 33.6385 42.2258 34.5098C42.2258 35.8825 43.0707 36.9953 44.1129 36.9953C45.1551 36.9953 46 35.8824 46 34.5098C46 33.6384 45.6596 26.1958 45.1444 20.8752Z" fill="white"/>
</svg>
