<svg width="61" height="42" viewBox="0 0 61 42" fill="none" xmlns="http://www.w3.org/2000/svg">
<g clip-path="url(#clip0)">
<path d="M11.5687 16.6947C11.9252 16.5388 12.3096 16.4569 12.6987 16.4536C12.9672 16.4531 13.2344 16.4922 13.4917 16.5704L11.5687 14.7708V16.6947Z" fill="white"/>
<path d="M8.95137 3.39984C7.78789 4.83418 8.17183 7.18582 8.3203 7.87367L9.90403 9.43785H12.0695C12.4767 9.2275 12.9244 9.10929 13.3819 9.09067C13.9092 9.07904 14.4309 9.19818 14.901 9.43785H16.9854C17.0325 9.07997 17.0799 8.56571 17.0967 7.98397L13.6421 7.48972C12.561 7.33474 11.7191 6.4733 11.5887 5.38893C11.4589 4.30503 12.0732 3.2686 13.0864 2.86231L14.3718 2.34805C13.8073 2.16096 13.2153 2.06882 12.6205 2.0758C11.2597 1.93525 9.90915 2.42252 8.95137 3.39984Z" fill="white"/>
<path d="M12.7015 18.553C12.2533 18.6381 11.8536 18.8881 11.5804 19.2534C11.7828 21.3649 12.4618 23.4028 13.5671 25.2132H18.8345C16.7914 23.6458 15.0853 21.6823 13.8185 19.4405C13.5779 19.0891 13.1404 18.5548 12.7015 18.553Z" fill="white"/>
<path d="M20.1152 21.479H19.9975C19.1993 21.4799 18.4309 21.1765 17.8487 20.6311L15.8578 18.7737C17.4573 21.3948 19.7126 23.5533 22.4017 25.036C25.3257 24.7028 28.2856 25.1663 30.9682 26.3768C31.1427 26.4638 31.2981 26.5564 31.4592 26.6472C32.1261 26.2651 32.9801 25.755 34.0118 25.0947L33.2914 24.4226C32.8791 24.0368 32.3704 23.7692 31.8189 23.6477L21.7329 21.4274L20.1152 21.479Z" fill="white"/>
<path d="M19.4474 16.362L14.2122 11.4758C14.0172 11.2934 13.7603 11.1919 13.4936 11.1919H13.4559C13.1753 11.2012 12.9105 11.3217 12.7196 11.5274C12.5284 11.7318 12.4269 12.0035 12.4367 12.2828C12.4465 12.5625 12.567 12.8264 12.7722 13.0167L19.2812 19.0933C19.4869 19.2814 19.7578 19.3824 20.0366 19.3754L23.5903 19.2511H23.6047L28.4332 19.0817C29.014 19.0743 29.4789 18.5968 29.471 18.016C29.4631 17.4351 28.9856 16.9707 28.4048 16.9786L21.7096 17.2108C20.8738 17.2341 20.0621 16.9293 19.4474 16.362Z" fill="white"/>
<path d="M29.4873 20.9782L32.2755 21.5935C33.1951 21.7954 34.043 22.2422 34.73 22.8859L35.7501 23.8381C36.3207 23.1805 36.753 22.4149 37.0216 21.587L32.2764 16.0948L31.414 17.128C31.4941 17.3872 31.5402 17.6558 31.5518 17.9271C31.603 19.2856 30.7671 20.5198 29.4873 20.9773V20.9782Z" fill="white"/>
<path d="M58.8745 26.2651C57.3853 24.6571 55.7671 23.173 54.0363 21.828C49.6826 18.3445 40.6735 14.7815 38.1659 13.8284C37.1612 14.936 36.8908 16.5258 37.473 17.9029C37.7969 17.942 38.2679 18.0164 38.8706 18.1374H38.8789L38.8915 18.1426C41.1505 18.6294 43.3774 19.253 45.5606 20.0097C48.1049 20.8581 49.7538 22.151 50.4584 23.8534C50.7697 24.6166 50.8823 25.4469 50.7846 26.2651H58.8745Z" fill="white"/>
<path d="M13.6723 5.10138C13.6723 5.25542 13.7859 5.3862 13.9385 5.40761L16.9538 5.83856C16.8407 5.1414 16.6001 4.47124 16.2441 3.86157L13.8682 4.8133C13.7496 4.85984 13.6718 4.97433 13.6723 5.10138Z" fill="white"/>
<path d="M6.31027 22.0584V24.162C6.31027 24.7428 6.78125 25.2133 7.36206 25.2133H11.1829C10.5011 23.8837 9.99991 22.4689 9.69182 21.0066H7.36206C6.78125 21.0066 6.31027 21.4776 6.31027 22.0584Z" fill="white"/>
<path d="M34.7867 29.68C34.9389 28.6818 35.3773 27.7491 36.0489 26.9952L35.5956 26.5745C34.7439 27.1273 33.9895 27.5965 33.3459 27.9804C33.9029 28.477 34.3883 29.049 34.7867 29.68Z" fill="white"/>
<path d="M30.03 28.2634C27.5969 27.2121 24.9274 26.8286 22.2965 27.153C22.2598 27.1572 22.2225 27.159 22.1853 27.159C21.2606 27.2628 20.3307 27.3154 19.3999 27.3168H9.43817C10.3601 28.5105 10.7157 30.0468 10.4122 31.524H33.3901C32.7097 30.0603 31.5132 28.8996 30.03 28.2634Z" fill="white"/>
<path d="M61 29.4203C61 28.8395 60.529 28.3686 59.9482 28.3686H49.4313C49.0655 28.3704 48.7253 28.1829 48.5321 27.8724C48.339 27.562 48.3213 27.1739 48.4847 26.8467C48.7825 26.1389 48.7858 25.3412 48.494 24.631C48.0314 23.5452 46.7836 22.6326 44.8867 22.0015C42.5402 21.2192 40.7987 20.7394 39.5375 20.4387C39.4449 20.8594 39.3397 21.2802 39.2219 21.6678C38.8654 23.0026 38.2027 24.2359 37.2868 25.2704L37.5256 25.4934C37.5963 25.5664 37.6559 25.6502 37.7024 25.7414C38.9641 25.1127 40.431 25.0363 41.7514 25.5311C43.3169 26.0946 44.5232 27.3656 45.0044 28.9587C45.2516 29.7913 45.2907 30.6722 45.1189 31.5239H59.9482C60.529 31.5239 61 31.0529 61 30.4721V29.4203Z" fill="white"/>
<path d="M39.9656 27.3169C38.2227 27.3169 36.8103 28.7298 36.8103 30.4723C36.8103 32.2147 38.2227 33.6272 39.9656 33.6272C41.7081 33.6272 43.1205 32.2147 43.1205 30.4723C43.1205 28.7298 41.7081 27.3169 39.9656 27.3169ZM39.9656 31.524C39.3848 31.524 38.9138 31.0531 38.9138 30.4723C38.9138 29.8914 39.3848 29.4205 39.9656 29.4205C40.5464 29.4205 41.0174 29.8914 41.0174 30.4723C41.0174 31.0531 40.5464 31.524 39.9656 31.524Z" fill="white"/>
<path d="M2.10358 30.4723C2.10358 32.2147 3.51604 33.6272 5.25848 33.6272C7.00137 33.6272 8.41384 32.2147 8.41384 30.4723C8.41384 28.7298 7.00137 27.3169 5.25848 27.3169C3.51604 27.3169 2.10358 28.7298 2.10358 30.4723ZM6.31026 30.4723C6.31026 31.0531 5.83929 31.524 5.25848 31.524C4.67767 31.524 4.20669 31.0531 4.20669 30.4723C4.20669 29.8914 4.67767 29.4205 5.25848 29.4205C5.83929 29.4205 6.31026 29.8914 6.31026 30.4723Z" fill="white"/>
</g>
<defs>
<clipPath id="clip0">
<rect width="61" height="42" fill="white"/>
</clipPath>
</defs>
</svg>
