<svg width="52" height="52" viewBox="0 0 52 52" fill="none" xmlns="http://www.w3.org/2000/svg">
<path d="M51.8525 19.2821C51.8446 19.1584 51.784 19.044 51.6861 18.968C51.5881 18.8919 51.4622 18.8618 51.3404 18.8848L46.0464 19.8838L46.0476 19.9038L41.1238 20.2186L41.0461 19.0026L43.6457 18.8364C44.8584 18.7589 45.7787 17.713 45.7012 16.5003L45.6863 16.2671C45.6088 15.0544 44.5628 14.1341 43.3501 14.2116L36.4188 14.6546C35.2061 14.7321 34.2858 15.7781 34.3633 16.9907L34.3782 17.2239C34.4392 18.1775 35.1191 18.9943 36.0525 19.2216L26.5368 19.8299C26.0801 19.8592 25.7336 20.253 25.7628 20.7097L25.8436 21.9731C26.5201 22.0386 27.9015 22.1727 28.5931 22.2397C29.7825 22.3551 30.787 23.023 31.3788 23.9639L37.7112 23.5591L37.0412 25.0506C36.7881 25.6142 37.0325 26.295 37.6132 26.5559C38.1872 26.8137 38.8609 26.5571 39.1184 25.9839C39.7413 24.5973 40.2876 23.3812 40.9076 22.001L40.9096 22.0335L46.1623 21.6978L46.1635 21.7178L51.5416 22.0345C51.6653 22.0418 51.7861 21.9956 51.8735 21.9079C51.961 21.8201 52.007 21.699 51.9991 21.5754C51.9596 20.9581 51.8922 19.9048 51.8525 19.2821Z" fill="white"/>
<path d="M30.2167 44.1298L25.3793 33.3887C25.0778 32.7191 24.4858 32.2246 23.7732 32.047L20.3345 31.1901L20.8977 28.9572L19.8931 28.8598C18.14 28.6898 17.0438 27.35 16.8303 26.5446L14.9668 19.5169L18.4805 26.107C18.7968 26.7001 19.3889 27.0956 20.0581 27.1606L28.0406 27.9348C28.2603 27.9562 28.4945 27.9396 28.7063 27.8885H28.7064C29.5143 27.6932 30.1477 27.0048 30.2325 26.1307C30.3396 25.0274 29.532 24.0461 28.4282 23.9389L21.517 23.2686L18.3351 17.3007L22.3303 21.6324L22.7355 21.6717L23.5231 18.5488C23.9054 17.0332 22.9802 15.4947 21.4623 15.1219L15.2445 13.5946C13.7392 13.2248 12.2178 14.1398 11.8389 15.6427L7.84305 31.4844C7.84305 31.4844 7.86478 31.5033 10.3026 42.7173H2.39707C1.07321 42.7174 0 43.7906 0 45.1145C0 46.4383 1.07321 47.5117 2.39707 47.5117H13.2767C14.0019 47.5117 14.6879 47.1833 15.143 46.6187C15.598 46.0541 15.7731 45.3139 15.6191 44.6054L13.4012 34.4032L21.4857 36.4177L25.8454 46.0984C26.3894 47.3063 27.8092 47.8432 29.0152 47.2998C30.2224 46.7561 30.7603 45.3368 30.2167 44.1298Z" fill="white"/>
<path d="M23.2204 13.9116C25.8226 13.9116 27.9321 11.8021 27.9321 9.19996C27.9321 6.59777 25.8226 4.48828 23.2204 4.48828C20.6182 4.48828 18.5087 6.59777 18.5087 9.19996C18.5087 11.8021 20.6182 13.9116 23.2204 13.9116Z" fill="white"/>
</svg>
