<svg width="50" height="40" viewBox="0 0 50 40" fill="none" xmlns="http://www.w3.org/2000/svg">
<path d="M0.53125 18.7809V25.2187C0.53125 26.324 2.3875 27.5981 5.50937 28.5937C21.0597 33.8081 49.4688 30.0956 49.4688 25.2187V18.7809C41.7484 25.1006 8.20938 25.0584 0.53125 18.7809ZM3.90625 25.2187C3.90625 25.4425 3.81735 25.6571 3.65912 25.8153C3.50089 25.9735 3.28628 26.0624 3.0625 26.0624C2.83872 26.0624 2.62411 25.9735 2.46588 25.8153C2.30764 25.6571 2.21875 25.4425 2.21875 25.2187V22.6874C2.21875 22.4637 2.30764 22.2491 2.46588 22.0908C2.62411 21.9326 2.83872 21.8437 3.0625 21.8437C3.28628 21.8437 3.50089 21.9326 3.65912 22.0908C3.81735 22.2491 3.90625 22.4637 3.90625 22.6874V25.2187ZM9.8125 26.9062C9.8125 27.13 9.72361 27.3446 9.56537 27.5028C9.40714 27.661 9.19253 27.7499 8.96875 27.7499C8.74497 27.7499 8.53036 27.661 8.37213 27.5028C8.21389 27.3446 8.125 27.13 8.125 26.9062V24.3749C8.125 24.1512 8.21389 23.9366 8.37213 23.7783C8.53036 23.6201 8.74497 23.5312 8.96875 23.5312C9.19253 23.5312 9.40714 23.6201 9.56537 23.7783C9.72361 23.9366 9.8125 24.1512 9.8125 24.3749V26.9062ZM17.4062 28.5937C17.4062 28.8175 17.3174 29.0321 17.1591 29.1903C17.0009 29.3485 16.7863 29.4374 16.5625 29.4374C16.3387 29.4374 16.1241 29.3485 15.9659 29.1903C15.8076 29.0321 15.7188 28.8175 15.7188 28.5937V26.0624C15.7188 25.8387 15.8076 25.6241 15.9659 25.4658C16.1241 25.3076 16.3387 25.2187 16.5625 25.2187C16.7863 25.2187 17.0009 25.3076 17.1591 25.4658C17.3174 25.6241 17.4062 25.8387 17.4062 26.0624V28.5937ZM25.8438 29.0156C25.8438 29.2393 25.7549 29.454 25.5966 29.6122C25.4384 29.7704 25.2238 29.8593 25 29.8593C24.7762 29.8593 24.5616 29.7704 24.4034 29.6122C24.2451 29.454 24.1562 29.2393 24.1562 29.0156V26.4843C24.1562 26.2605 24.2451 26.0459 24.4034 25.8877C24.5616 25.7295 24.7762 25.6406 25 25.6406C25.2238 25.6406 25.4384 25.7295 25.5966 25.8877C25.7549 26.0459 25.8438 26.2605 25.8438 26.4843V29.0156ZM34.2812 28.5937C34.2812 28.8175 34.1924 29.0321 34.0341 29.1903C33.8759 29.3485 33.6613 29.4374 33.4375 29.4374C33.2137 29.4374 32.9991 29.3485 32.8409 29.1903C32.6826 29.0321 32.5938 28.8175 32.5938 28.5937V26.0624C32.5938 25.8387 32.6826 25.6241 32.8409 25.4658C32.9991 25.3076 33.2137 25.2187 33.4375 25.2187C33.6613 25.2187 33.8759 25.3076 34.0341 25.4658C34.1924 25.6241 34.2812 25.8387 34.2812 26.0624V28.5937ZM41.875 26.9062C41.875 27.13 41.7861 27.3446 41.6279 27.5028C41.4696 27.661 41.255 27.7499 41.0312 27.7499C40.8075 27.7499 40.5929 27.661 40.4346 27.5028C40.2764 27.3446 40.1875 27.13 40.1875 26.9062V24.3749C40.1875 24.1512 40.2764 23.9366 40.4346 23.7783C40.5929 23.6201 40.8075 23.5312 41.0312 23.5312C41.255 23.5312 41.4696 23.6201 41.6279 23.7783C41.7861 23.9366 41.875 24.1512 41.875 24.3749V26.9062ZM47.7812 25.2187C47.7812 25.4425 47.6924 25.6571 47.5341 25.8153C47.3759 25.9735 47.1613 26.0624 46.9375 26.0624C46.7137 26.0624 46.4991 25.9735 46.3409 25.8153C46.1826 25.6571 46.0938 25.4425 46.0938 25.2187V22.6874C46.0938 22.4637 46.1826 22.2491 46.3409 22.0908C46.4991 21.9326 46.7137 21.8437 46.9375 21.8437C47.1613 21.8437 47.3759 21.9326 47.5341 22.0908C47.6924 22.2491 47.7812 22.4637 47.7812 22.6874V25.2187Z" fill="white"/>
<path d="M6.63156 19.7006C8.66552 19.1619 10.7311 18.7505 12.8162 18.4688L9.21344 14.8659C9.13477 14.7873 9.07236 14.6939 9.02979 14.5911C8.98721 14.4883 8.9653 14.3781 8.9653 14.2669C8.9653 14.1556 8.98721 14.0455 9.02979 13.9427C9.07236 13.8399 9.13477 13.7465 9.21344 13.6678C9.37232 13.5089 9.58781 13.4197 9.8125 13.4197C9.92376 13.4197 10.0339 13.4416 10.1367 13.4842C10.2395 13.5267 10.3329 13.5891 10.4116 13.6678L14.9341 18.1903C17.9957 17.8365 21.0743 17.6478 24.1562 17.625V12.5625C24.1562 12.3387 24.2451 12.1241 24.4034 11.9659C24.5616 11.8076 24.7762 11.7188 25 11.7188C25.2238 11.7188 25.4384 11.8076 25.5966 11.9659C25.7549 12.1241 25.8438 12.3387 25.8438 12.5625V17.625C28.9253 17.6394 32.0038 17.8196 35.0659 18.165L39.5884 13.6425C39.6671 13.5638 39.7605 13.5014 39.8633 13.4588C39.9661 13.4163 40.0762 13.3944 40.1875 13.3944C40.2988 13.3944 40.4089 13.4163 40.5117 13.4588C40.6145 13.5014 40.7079 13.5638 40.7866 13.6425C40.8652 13.7212 40.9276 13.8146 40.9702 13.9174C41.0128 14.0201 41.0347 14.1303 41.0347 14.2416C41.0347 14.3528 41.0128 14.463 40.9702 14.5658C40.9276 14.6686 40.8652 14.762 40.7866 14.8406L37.1838 18.4688C44.8534 19.5572 42.2463 20.1562 44.8787 19.245C46.2878 18.7472 49.4688 17.4141 49.4688 15.9375C49.4688 13.4737 40.1875 10.0312 25 10.0312C9.8125 10.0312 0.53125 13.4737 0.53125 15.9375C0.53125 17.6841 4.89344 19.245 6.63156 19.7006Z" fill="white"/>
<path d="M0.53125 28.0791V33.6563C0.53125 35.926 7.94781 38.7694 19.9375 39.4275V36.1875C19.9375 35.9638 20.0264 35.7491 20.1846 35.5909C20.3429 35.4327 20.5575 35.3438 20.7812 35.3438H29.2188C29.4425 35.3438 29.6571 35.4327 29.8154 35.5909C29.9736 35.7491 30.0625 35.9638 30.0625 36.1875V39.4275C42.0522 38.7694 49.4688 35.926 49.4688 33.6563V28.0791C41.2 34.5 8.44563 34.23 0.53125 28.0791Z" fill="white"/>
<path d="M19.0938 6.65625H19.9375V8.48719L21.625 8.40281V6.65625H28.375V8.40281L30.0625 8.48719V6.65625H30.9063C31.13 6.65625 31.3446 6.56735 31.5029 6.40912C31.6611 6.25089 31.75 6.03628 31.75 5.8125V2.4375C31.75 2.21372 31.6611 1.99911 31.5029 1.84088C31.3446 1.68264 31.13 1.59375 30.9063 1.59375H19.0938C18.87 1.59375 18.6554 1.68264 18.4971 1.84088C18.3389 1.99911 18.25 2.21372 18.25 2.4375V5.8125C18.25 6.03628 18.3389 6.25089 18.4971 6.40912C18.6554 6.56735 18.87 6.65625 19.0938 6.65625Z" fill="white"/>
<path d="M2.21878 6.6564H7.28128V10.2677C7.82128 10.1242 8.38659 9.98921 8.96878 9.86265C8.96878 1.15515 9.02784 1.42515 8.84222 1.15515C8.76724 1.03199 8.66195 0.930097 8.5364 0.859196C8.41085 0.788296 8.26922 0.750753 8.12503 0.750152C7.74534 0.750152 8.16722 0.539214 1.72941 5.12921C1.58535 5.2335 1.47793 5.38064 1.42248 5.54962C1.36704 5.71861 1.36641 5.90078 1.42068 6.07015C1.47495 6.23951 1.58135 6.38739 1.72468 6.49267C1.86801 6.59796 2.04094 6.65526 2.21878 6.6564Z" fill="white"/>
<path d="M42.7187 6.65626H47.7812C47.9591 6.65512 48.132 6.59782 48.2753 6.49253C48.4187 6.38725 48.5251 6.23937 48.5793 6.07C48.6336 5.90064 48.633 5.71846 48.5775 5.54948C48.5221 5.3805 48.4147 5.23336 48.2706 5.12907L42.4741 0.994699C42.3696 0.88173 42.2363 0.799472 42.0884 0.756821C41.9406 0.714171 41.7839 0.712753 41.6354 0.752721C41.4868 0.792688 41.352 0.872519 41.2455 0.983578C41.139 1.09464 41.0649 1.2327 41.0312 1.38282C40.9806 1.52626 41.0312 1.07064 41.0312 9.86251C41.6134 9.98907 42.1787 10.1241 42.7187 10.2675V6.65626Z" fill="white"/>
</svg>
